<svg width="101" height="137" viewBox="0 0 101 137" fill="none" xmlns="http://www.w3.org/2000/svg">
<path fill-rule="evenodd" clip-rule="evenodd" d="M85 113H88.2705L89.1634 110.899H96.8657L97.7567 113H101L92.9994 95L85 113ZM93.0294 101.209L95.7657 108.14H90.3243L93.0294 101.209Z" fill="#594A41"/>
<path fill-rule="evenodd" clip-rule="evenodd" d="M41.0294 101.209L43.7671 108.139H38.3228L41.0294 101.209ZM36.2739 113L37.1642 110.899H44.8674L45.7605 113H49L41.0006 95L33 113H36.2739Z" fill="#594A41"/>
<path fill-rule="evenodd" clip-rule="evenodd" d="M80.6529 113V97.9393H86V95H72V97.9393H77.3757V113H80.6529Z" fill="#594A41"/>
<path fill-rule="evenodd" clip-rule="evenodd" d="M69 113V95H65.6245V102.829H55.4074V95H52V113H55.4074V105.95H65.6245V113H69Z" fill="#594A41"/>
<path fill-rule="evenodd" clip-rule="evenodd" d="M0 113H3.26537L4.18727 110.899H11.8754L12.7366 113H16L8.01616 95L0 113ZM8.0457 101.209L10.7483 108.14H5.34185L8.0457 101.209Z" fill="#594A41"/>
<path fill-rule="evenodd" clip-rule="evenodd" d="M21.8875 104.241H23.028H24.0483C24.7102 104.241 25.2503 104.271 25.6704 104.332C26.0607 104.42 26.4199 104.512 26.7512 104.663C27.2335 104.871 27.6198 105.204 27.8918 105.652C28.163 106.074 28.312 106.586 28.312 107.157C28.312 107.635 28.1913 108.058 27.9818 108.478C27.7421 108.869 27.4426 109.198 27.0217 109.438C26.6927 109.65 26.2427 109.768 25.6405 109.859C25.0698 109.948 24.1981 109.978 23.028 109.978H21.8875V104.241ZM21.8875 96.8818H23.1479C24.8608 96.8818 26.0005 97.0636 26.5999 97.452C27.2004 97.874 27.5007 98.5634 27.5007 99.5265C27.5007 100.426 27.1722 101.086 26.5414 101.448C25.8815 101.838 24.7393 102.017 23.1479 102.017H21.8875V96.8818ZM18.6155 112.443H23.8094C25.7604 112.443 27.1722 112.323 28.0117 112.113C28.8245 111.932 29.5441 111.571 30.0834 111.061C30.6254 110.609 31.0435 110.038 31.316 109.379C31.6158 108.748 31.7656 108.058 31.7656 107.307C31.7656 106.103 31.4043 105.113 30.7445 104.332C30.0523 103.52 29.0925 103.07 27.8918 102.889C28.8528 102.648 29.6031 102.197 30.1156 101.537C30.5939 100.907 30.8643 100.096 30.8643 99.1352C30.8643 98.3538 30.6839 97.6031 30.3251 96.9428C29.9934 96.2801 29.4832 95.7382 28.8528 95.3178C28.3741 95.0198 27.7728 94.7775 27.0515 94.6572C26.3626 94.5086 25.2503 94.448 23.7787 94.448H18.6155V112.443Z" fill="#594A41"/>
<path fill-rule="evenodd" clip-rule="evenodd" d="M44.9163 87.7787C45.5153 87.7787 45.9387 87.8696 46.2075 88.0194C46.4464 88.1999 46.5969 88.5004 46.5969 88.8594C46.5969 89.1307 46.5061 89.3419 46.3572 89.5519C46.2075 89.7017 46.0569 89.8225 45.8475 89.8814C45.6666 89.9408 45.3365 89.9723 44.8255 89.9723H43.3258V87.7787H44.9163ZM41.7634 83.0613V91.3546H45.3978C46.0569 91.3546 46.5364 91.2657 46.8972 91.145C47.2286 90.9928 47.5288 90.7238 47.7993 90.3325C48.0689 89.9408 48.1883 89.4611 48.1883 88.8909C48.1883 88.1999 47.9781 87.599 47.5288 87.1177C47.1087 86.6375 46.3887 86.367 45.3978 86.367H43.3258V83.0613H41.7634Z" fill="#594A41"/>
<mask id="mask0" style="mask-type:alpha" maskUnits="userSpaceOnUse" x="0" y="0" width="101" height="137">
<path fill-rule="evenodd" clip-rule="evenodd" d="M0 137H101V0H0V137Z" fill="white"/>
</mask>
<g mask="url(#mask0)">
<path fill-rule="evenodd" clip-rule="evenodd" d="M49.179 89.1305H52.0909V87.5391H49.179V89.1305Z" fill="#594A41"/>
<path fill-rule="evenodd" clip-rule="evenodd" d="M66.6547 84.4755V83.0613H60.9192V91.3546H66.773V89.9404H62.4791V87.6895H66.3537V86.3076H62.4791V84.4755H66.6547Z" fill="#594A41"/>
<path fill-rule="evenodd" clip-rule="evenodd" d="M14.0802 85.1349C14.4418 84.6846 14.9528 84.444 15.5844 84.444C16.181 84.444 16.6927 84.6846 17.0519 85.1349C17.443 85.586 17.625 86.2487 17.625 87.1791C17.625 88.1107 17.4139 88.8 17.0519 89.2511C16.6641 89.7316 16.181 89.9404 15.5844 89.9404C14.981 89.9404 14.4697 89.7316 14.0802 89.2511C13.6924 88.8 13.5095 88.1107 13.5095 87.2069C13.5095 86.2785 13.6924 85.586 14.0802 85.1349ZM15.5844 91.3231C16.6641 91.3231 17.533 90.9629 18.1941 90.2433C18.854 89.5216 19.1841 88.5004 19.1841 87.2069C19.1841 85.9159 18.854 84.8942 18.1941 84.1742C17.533 83.4235 16.6641 83.0613 15.5525 83.0613C14.9528 83.0613 14.412 83.182 13.9612 83.394C13.5995 83.5426 13.2706 83.7829 12.9994 84.1153C12.6999 84.4141 12.4602 84.8054 12.3096 85.1939C12.0695 85.7657 11.948 86.4267 11.948 87.2392C11.948 88.5311 12.2789 89.5216 12.9388 90.2433C13.5995 90.9629 14.4697 91.3231 15.5844 91.3231Z" fill="#594A41"/>
<path fill-rule="evenodd" clip-rule="evenodd" d="M32.6056 89.9404H28.3117V87.6895H32.1863V86.3076H28.3117V84.4755H32.4881V83.0613H26.751V91.3546H32.6056V89.9404Z" fill="#594A41"/>
<path fill-rule="evenodd" clip-rule="evenodd" d="M53.0828 83.0613V91.3546H58.577V92.9162H59.8677V89.9719H59.2078V83.0613H57.6463V89.9719H54.6435V83.0613H53.0828Z" fill="#594A41"/>
<path fill-rule="evenodd" clip-rule="evenodd" d="M40.2339 91.3546V83.0613H34.8563V87.8094V89.222C34.8563 89.5806 34.7978 89.8221 34.6779 89.9113C34.5577 90.0018 34.347 90.0611 34.0185 90.0611H33.6887V91.3546C34.1674 91.382 34.4975 91.4135 34.6779 91.4135C35.1881 91.4135 35.5784 91.2932 35.8189 91.0541C36.0591 90.8417 36.2088 90.5421 36.2697 90.1225C36.3287 89.7312 36.3618 89.0096 36.3618 88.019V84.4755H38.7014V91.3546H40.2339Z" fill="#594A41"/>
<path fill-rule="evenodd" clip-rule="evenodd" d="M86.7415 84.8942C86.9187 85.0755 87.0095 85.3445 87.0095 85.6449C87.0095 85.8864 86.9506 86.0976 86.8323 86.2785C86.7092 86.4574 86.5611 86.6081 86.3496 86.6989C86.1401 86.7878 85.7176 86.8197 85.119 86.8197H84.2472V84.4755H84.9987C85.5719 84.4755 85.9294 84.4755 86.1401 84.5344C86.3799 84.5663 86.5885 84.6842 86.7415 84.8942ZM82.6865 83.0613V91.3546H84.2472V88.229H85.2692C85.9888 88.229 86.4993 88.1999 86.8896 88.1107C87.16 88.0489 87.4304 87.8983 87.6992 87.7186C87.9721 87.5098 88.1807 87.2392 88.3607 86.9077C88.5137 86.5491 88.6001 86.1279 88.6001 85.6159C88.6001 84.9532 88.4519 84.4141 88.1517 83.9941C87.8514 83.5737 87.4898 83.3028 87.041 83.182C86.7705 83.1227 86.1401 83.0613 85.2098 83.0613H82.6865Z" fill="#594A41"/>
<path fill-rule="evenodd" clip-rule="evenodd" d="M23.3608 91.3546V84.4755H25.6403V83.0613H19.5149V84.4755H21.7977V91.3546H23.3608Z" fill="#594A41"/>
<path fill-rule="evenodd" clip-rule="evenodd" d="M69.6873 87.7186H72.7175V91.3546H74.2806V83.0613H72.7175V86.3375H69.6873V83.0613H68.1257V91.3546H69.6873V87.7186Z" fill="#594A41"/>
<path fill-rule="evenodd" clip-rule="evenodd" d="M79.2931 91.3546V84.4755H81.5759V83.0613H75.4517V84.4755H77.734V91.3546H79.2931Z" fill="#594A41"/>
<path fill-rule="evenodd" clip-rule="evenodd" d="M50.5004 27.0969L67.0447 63.896H61.8193L50.5004 38.7217L39.2097 63.896H33.9552L50.5004 27.0969ZM50.5004 63.896H46.8083L50.5004 55.6964L54.1913 63.896H50.5004ZM29.9051 72.9404H35.158L32.3659 79.0967H39.9919L42.7541 72.9404H50.5004H58.2769L61.0388 79.0967H68.6632L65.8735 72.9404H71.0973L73.8886 79.0967H86.0494L50.5004 0L14.9812 79.0967H27.1421L29.9051 72.9404Z" fill="#594A41"/>
<path fill-rule="evenodd" clip-rule="evenodd" d="M28.788 129.353L26.8749 125.793L24.9611 129.353L20.988 130.073L23.7785 132.993L23.2353 137L26.8749 135.245L30.5126 137L29.9689 132.993L32.7618 130.073L28.788 129.353Z" fill="#594A41"/>
<path fill-rule="evenodd" clip-rule="evenodd" d="M44.5394 129.353L42.6256 125.793L40.7109 129.353L36.7371 130.073L39.53 132.993L38.9851 137L42.6256 135.245L46.264 137L45.7212 132.993L48.5141 130.073L44.5394 129.353Z" fill="#594A41"/>
<path fill-rule="evenodd" clip-rule="evenodd" d="M60.2902 129.353L58.3771 125.793L56.4608 129.353L52.4878 130.073L55.2791 132.993L54.7383 137L58.3771 135.245L62.014 137L61.4735 132.993L64.2624 130.073L60.2902 129.353Z" fill="#594A41"/>
<path fill-rule="evenodd" clip-rule="evenodd" d="M76.0408 129.353L74.1262 125.793L72.2139 129.353L68.2393 130.073L71.0289 132.993L70.4881 137L74.1262 135.245L77.7654 137L77.2226 132.993L80.0139 130.073L76.0408 129.353Z" fill="#594A41"/>
<path fill-rule="evenodd" clip-rule="evenodd" d="M0 121.19H101V120.374H0V121.19Z" fill="#594A41"/>
</g>
</svg>
