<svg width="239" height="76" viewBox="0 0 239 76" fill="none" xmlns="http://www.w3.org/2000/svg">
<path fill-rule="evenodd" clip-rule="evenodd" d="M71.7601 60.035H6.46729C2.8957 60.035 0 57.1288 0 53.5442V6.49014C0 2.90555 2.8957 0 6.46729 0H71.7601V60.035Z" fill="#D25519"/>
<path fill-rule="evenodd" clip-rule="evenodd" d="M232.56 60.035H71.76V0H232.56C236.117 0 239 2.89376 239 6.46309V53.5719C239 57.1413 236.117 60.035 232.56 60.035Z" fill="#575756"/>
<path fill-rule="evenodd" clip-rule="evenodd" d="M81.9545 19.2479V40.7923C81.9545 45.9548 84.8108 48.3596 90.9429 48.3596L105.059 48.1037V27.8384H95.1924L95.4122 32.2012H99.4987V43.4571H92.2926C88.5669 43.4571 87.7853 41.7148 87.7853 40.2526V19.7869C87.7853 18.3247 88.5669 16.5817 92.2926 16.5817H103.202L103.407 11.6799H90.9429C84.8108 11.6799 81.9545 14.0847 81.9545 19.2479Z" fill="#FEFEFE"/>
<path fill-rule="evenodd" clip-rule="evenodd" d="M118.544 16.5819H125.75C129.476 16.5819 130.258 18.325 130.258 19.7864V26.2495C130.258 27.7117 129.476 29.454 125.75 29.454H118.544V16.5819ZM130.892 48.3592H137.138L130.221 34.0319L131.062 33.7503C134.492 32.6044 136.089 30.2212 136.089 26.2495V19.2482C136.089 14.0849 133.232 11.6802 127.1 11.6802H112.714V48.33L118.544 48.1178V33.8175H124.954L130.892 48.3592Z" fill="#FEFEFE"/>
<path fill-rule="evenodd" clip-rule="evenodd" d="M161.127 40.2529C161.127 41.715 160.344 43.4574 156.619 43.4574H153.92C150.194 43.4574 149.412 41.715 149.412 40.2529V19.7864C149.412 18.325 150.194 16.5819 153.92 16.5819H156.619C160.344 16.5819 161.127 18.325 161.127 19.7864V40.2529ZM157.969 11.6802H152.57C146.439 11.6802 143.583 14.0849 143.583 19.2482V40.7918C143.583 45.9551 146.439 48.3592 152.57 48.3592H157.969C164.101 48.3592 166.957 45.9551 166.957 40.7918V19.2482C166.957 14.0849 164.101 11.6802 157.969 11.6802Z" fill="#FEFEFE"/>
<path fill-rule="evenodd" clip-rule="evenodd" d="M183.505 48.3594H188.903C195.036 48.3594 197.892 45.9546 197.892 40.7921V11.6804H192.061V40.2531C192.061 41.7146 191.279 43.4576 187.554 43.4576H184.855C181.129 43.4576 180.348 41.7146 180.348 40.2531V11.6804H174.517V40.7921C174.517 45.9546 177.373 48.3594 183.505 48.3594Z" fill="#FEFEFE"/>
<path fill-rule="evenodd" clip-rule="evenodd" d="M211.281 28.9148V16.5817H218.488C222.213 16.5817 222.995 18.3247 222.995 19.7862V25.7103C222.995 27.1725 222.213 28.9148 218.488 28.9148H211.281ZM228.826 26.2493V19.2479C228.826 14.0847 225.969 11.6799 219.837 11.6799H205.451V48.3298L211.281 48.1175V33.8173H219.837C225.96 33.4615 228.826 31.056 228.826 26.2493Z" fill="#FEFEFE"/>
<path fill-rule="evenodd" clip-rule="evenodd" d="M21.5722 17.8795H32.7175L33.0195 10.6597H20.2342C13.5382 10.6597 10.1428 13.5805 10.1428 19.3409V40.6938C10.1428 46.4543 13.5382 49.3751 20.2342 49.3751H33.0195L32.7175 42.1553H21.5722C18.2881 42.1553 18.2881 40.6529 18.2881 40.1597V19.875C18.2881 19.3812 18.2881 17.8795 21.5722 17.8795Z" fill="#FEFEFE"/>
<path fill-rule="evenodd" clip-rule="evenodd" d="M46.3576 28.6055C41.2629 29.7146 38.6802 32.8837 38.6802 38.0248V49.3751H61.586L61.2535 42.1553H46.8262V38.0248C46.8262 36.2589 49.1932 34.8481 53.8623 33.8312C58.9563 32.7228 61.5397 29.6432 61.5397 24.679V19.3409C61.5397 13.5805 58.1443 10.6597 51.4476 10.6597H38.6609L38.9926 17.8795H50.1096C53.3944 17.8795 53.3944 19.3819 53.3944 19.875V24.679C53.3944 26.2459 50.961 27.6033 46.3576 28.6055Z" fill="#FEFEFE"/>
<path fill-rule="evenodd" clip-rule="evenodd" d="M9.38733 74.7733V68.5571H14.4054V74.7733H13.2803V69.5275H10.5117V74.7733H9.38733Z" fill="#575756"/>
<path fill-rule="evenodd" clip-rule="evenodd" d="M18.0717 71.6479H19.1284C19.4573 71.6479 19.713 71.5508 19.8948 71.3572C20.0766 71.1665 20.1678 70.9085 20.1678 70.5832C20.1678 70.2586 20.0752 70.0019 19.8906 69.814C19.7061 69.6253 19.4573 69.5303 19.145 69.5275H18.0717V71.6479ZM16.9473 74.7733V68.5571H19.3274C19.9072 68.5571 20.3799 68.7437 20.7448 69.1169C21.1097 69.4907 21.2922 69.9776 21.2922 70.579C21.2922 71.1804 21.1097 71.6708 20.7455 72.0502C20.3813 72.4289 19.9093 72.6182 19.3302 72.6182H18.0717V74.7733H16.9473Z" fill="#575756"/>
<path fill-rule="evenodd" clip-rule="evenodd" d="M26.1367 69.4848C25.5679 69.4876 25.0848 69.6943 24.6867 70.1042C24.2887 70.5141 24.0903 71.0267 24.0903 71.642C24.0903 72.2572 24.2887 72.7781 24.6867 73.2047C25.0848 73.6319 25.5679 73.8442 26.1367 73.8414C26.7082 73.8414 27.1913 73.6278 27.5866 73.2005C27.9819 72.7767 28.1795 72.2572 28.1795 71.642C28.1795 71.0267 27.9819 70.5141 27.5866 70.1042C27.1913 69.6943 26.7082 69.4876 26.1367 69.4848ZM29.304 71.6378C29.304 72.5416 29.0006 73.3073 28.3931 73.935C27.7856 74.5621 27.0337 74.8756 26.1367 74.8756C25.2368 74.8756 24.4836 74.5635 23.8761 73.9378C23.2693 73.3129 22.9652 72.5471 22.9652 71.6413C22.9652 70.7361 23.2693 69.9787 23.8761 69.369C24.4836 68.7593 25.2368 68.4534 26.1367 68.45C27.0365 68.45 27.7884 68.7551 28.3931 69.3648C29.0006 69.9738 29.304 70.7319 29.304 71.6378Z" fill="#575756"/>
<path fill-rule="evenodd" clip-rule="evenodd" d="M31.5477 74.7733V68.5571H32.6721V72.148L32.6127 73.1107H32.6293C32.8283 72.7084 33.0032 72.3852 33.1538 72.1396L35.4925 68.5571H36.5996V74.7733H35.4925V71.1908L35.5513 70.2287H35.5347C35.3412 70.6248 35.1698 70.9452 35.0191 71.1908L32.6639 74.7733H31.5477Z" fill="#575756"/>
<path fill-rule="evenodd" clip-rule="evenodd" d="M39.8446 73.6807C40.0948 73.8021 40.3698 73.8625 40.6712 73.8625C40.9718 73.8625 41.2206 73.7792 41.4162 73.6128C41.6124 73.4491 41.7106 73.2257 41.7106 72.9441C41.7106 72.6611 41.6214 72.444 41.4438 72.2914C41.2662 72.1388 41.0236 72.0611 40.7168 72.0584H39.951V71.1816H40.5668C40.8481 71.1816 41.081 71.0984 41.2648 70.9319C41.4452 70.7648 41.5357 70.5525 41.5357 70.2952C41.5357 70.0372 41.4549 69.8277 41.2931 69.6668C41.1314 69.5031 40.8958 69.4206 40.5862 69.4206C40.1148 69.4206 39.667 69.6009 39.244 69.9609L38.7886 69.1251C39.3366 68.6756 39.9994 68.4502 40.7776 68.4502C41.3056 68.453 41.7513 68.6063 42.1149 68.9094C42.4791 69.2132 42.6608 69.6293 42.6608 70.1586C42.6608 70.7773 42.3816 71.242 41.8232 71.5527V71.5687C42.137 71.6679 42.3858 71.8427 42.5689 72.0917C42.7521 72.3414 42.8405 72.6459 42.835 73.0058C42.835 73.5753 42.6353 74.0303 42.2344 74.3702C41.8343 74.7101 41.3284 74.88 40.7182 74.88C40.3228 74.8772 39.9386 74.7975 39.5633 74.6407C39.1888 74.4846 38.8695 74.2641 38.6055 73.9804L39.2143 73.232C39.3843 73.4095 39.5951 73.5594 39.8446 73.6807Z" fill="#575756"/>
<path fill-rule="evenodd" clip-rule="evenodd" d="M46.1735 73.8027H47.3795C47.66 73.7999 47.8805 73.716 48.0394 73.5509C48.1984 73.3852 48.2779 73.1701 48.2779 72.9052C48.2779 72.6402 48.1984 72.4252 48.0394 72.2594C47.8805 72.0944 47.66 72.0104 47.3795 72.0077H46.1735V73.8027ZM46.1735 71.1309H47.264C47.5025 71.1309 47.6898 71.0553 47.8266 70.9034C47.9627 70.7522 48.0312 70.5573 48.0312 70.3187C48.0312 70.0794 47.9627 69.8887 47.8266 69.7458C47.6898 69.6001 47.4969 69.5273 47.2468 69.5273H46.1735V71.1309ZM45.0491 74.7731V68.5576H47.244C47.8176 68.5576 48.2793 68.6998 48.6296 68.9842C48.9807 69.2686 49.1556 69.6653 49.1556 70.1744C49.1556 70.4657 49.0906 70.7293 48.96 70.9645C48.8294 71.1989 48.6504 71.3806 48.4237 71.5096V71.5256C48.743 71.6185 48.9856 71.8003 49.1528 72.0701C49.3194 72.3406 49.4023 72.6402 49.4023 72.969C49.4023 73.5565 49.2005 74.0039 48.7969 74.3118C48.3933 74.6198 47.8867 74.7731 47.2765 74.7731H45.0491Z" fill="#575756"/>
<path fill-rule="evenodd" clip-rule="evenodd" d="M54.4214 69.4848C53.8527 69.4876 53.3696 69.6943 52.9715 70.1042C52.5735 70.5141 52.3751 71.0267 52.3751 71.642C52.3751 72.2572 52.5735 72.7781 52.9715 73.2047C53.3696 73.6319 53.8527 73.8442 54.4214 73.8414C54.993 73.8414 55.4761 73.6278 55.8714 73.2005C56.2667 72.7767 56.4643 72.2572 56.4643 71.642C56.4643 71.0267 56.2667 70.5141 55.8714 70.1042C55.4761 69.6943 54.993 69.4876 54.4214 69.4848ZM57.5887 71.6378C57.5887 72.5416 57.2854 73.3073 56.6779 73.935C56.0704 74.5621 55.3185 74.8756 54.4214 74.8756C53.5216 74.8756 52.7683 74.5635 52.1609 73.9378C51.5541 73.3129 51.25 72.5471 51.25 71.6413C51.25 70.7361 51.5541 69.9787 52.1609 69.369C52.7683 68.7593 53.5216 68.4534 54.4214 68.45C55.3213 68.45 56.0732 68.7551 56.6779 69.3648C57.2854 69.9738 57.5887 70.7319 57.5887 71.6378Z" fill="#575756"/>
<path fill-rule="evenodd" clip-rule="evenodd" d="M63.296 73.8027V69.5273H61.6429V69.9934C61.6401 71.6643 61.3609 72.9336 60.8059 73.8027H63.296ZM58.9427 73.8027H59.5993C60.2234 72.8934 60.5357 71.597 60.5357 69.9122V68.5576H64.4204V73.8027H65.2124V76.0001H64.1052V74.7731H60.0499V76.0001H58.9427V73.8027Z" fill="#575756"/>
<path fill-rule="evenodd" clip-rule="evenodd" d="M66.6685 71.6607C66.6685 70.7375 66.9615 69.9704 67.5482 69.3607C68.135 68.751 68.8952 68.4472 69.8295 68.45C70.7639 68.45 71.5206 68.7337 72.0998 69.301L71.5587 70.1431C71.3341 69.9496 71.0687 69.7914 70.7618 69.6686C70.4557 69.5459 70.1571 69.4848 69.8675 69.4848C69.2172 69.4848 68.7093 69.6888 68.3423 70.0959C67.9767 70.5065 67.7929 71.0163 67.7929 71.6267C67.7929 72.2364 67.9788 72.758 68.3513 73.1915C68.7231 73.625 69.2359 73.8428 69.889 73.8456C70.5421 73.8456 71.1371 73.5834 71.6741 73.059L72.2657 73.8713C71.6098 74.5441 70.8005 74.8805 69.8378 74.8805C68.8751 74.8805 68.1032 74.5739 67.5213 73.9607C66.9532 73.351 66.6685 72.5846 66.6685 71.6607Z" fill="#575756"/>
<path fill-rule="evenodd" clip-rule="evenodd" d="M75.7236 74.7733V69.5275H73.6835V68.5571H78.8715V69.5275H76.8314V74.7733H75.7236Z" fill="#575756"/>
<path fill-rule="evenodd" clip-rule="evenodd" d="M81.9206 73.8027H83.1265C83.4071 73.7999 83.6276 73.716 83.7865 73.5509C83.9455 73.3852 84.0249 73.1701 84.0249 72.9052C84.0249 72.6402 83.9455 72.4252 83.7865 72.2594C83.6276 72.0944 83.4071 72.0104 83.1265 72.0077H81.9206V73.8027ZM81.9206 71.1309H83.0111C83.2495 71.1309 83.4368 71.0553 83.5737 70.9034C83.7098 70.7522 83.7782 70.5573 83.7782 70.3187C83.7782 70.0794 83.7098 69.8887 83.5737 69.7458C83.4368 69.6001 83.244 69.5273 82.9938 69.5273H81.9206V71.1309ZM80.7961 74.7731V68.5576H82.9911C83.5647 68.5576 84.0263 68.6998 84.3767 68.9842C84.7278 69.2686 84.9026 69.6653 84.9026 70.1744C84.9026 70.4657 84.8377 70.7293 84.7071 70.9645C84.5764 71.1989 84.3974 71.3806 84.1708 71.5096V71.5256C84.4901 71.6185 84.7326 71.8003 84.8999 72.0701C85.0664 72.3406 85.1494 72.6402 85.1494 72.969C85.1494 73.5565 84.9476 74.0039 84.544 74.3118C84.1404 74.6198 83.6338 74.7731 83.0235 74.7731H80.7961Z" fill="#575756"/>
<path fill-rule="evenodd" clip-rule="evenodd" d="M87.3635 74.7733V68.5571H91.074V69.5275H88.4879V71.161H90.5751V72.1313H88.4879V73.8029H91.2102V74.7733H87.3635Z" fill="#575756"/>
<path fill-rule="evenodd" clip-rule="evenodd" d="M93.3732 74.7733V68.5571H94.4976V71.1908H97.3345V68.5571H98.4424V74.7733H97.3345V72.1611H94.4976V74.7733H93.3732Z" fill="#575756"/>
<path fill-rule="evenodd" clip-rule="evenodd" d="M100.997 74.7733V68.5571H102.122V71.1908H104.959V68.5571H106.066V74.7733H104.959V72.1611H102.122V74.7733H100.997Z" fill="#575756"/>
<path fill-rule="evenodd" clip-rule="evenodd" d="M111.426 69.4848C110.857 69.4876 110.374 69.6943 109.976 70.1042C109.578 70.5141 109.379 71.0267 109.379 71.642C109.379 72.2572 109.578 72.7781 109.976 73.2047C110.374 73.6319 110.857 73.8442 111.426 73.8414C111.997 73.8414 112.48 73.6278 112.876 73.2005C113.271 72.7767 113.469 72.2572 113.469 71.642C113.469 71.0267 113.271 70.5141 112.876 70.1042C112.48 69.6943 111.997 69.4876 111.426 69.4848ZM114.593 71.6378C114.593 72.5416 114.29 73.3073 113.682 73.935C113.075 74.5621 112.323 74.8756 111.426 74.8756C110.526 74.8756 109.773 74.5635 109.165 73.9378C108.558 73.3129 108.254 72.5471 108.254 71.6413C108.254 70.7361 108.558 69.9787 109.165 69.369C109.773 68.7593 110.526 68.4534 111.426 68.45C112.326 68.45 113.077 68.7551 113.682 69.3648C114.29 69.9738 114.593 70.7319 114.593 71.6378Z" fill="#575756"/>
<path fill-rule="evenodd" clip-rule="evenodd" d="M116.663 72.2169H119.283V71.2466H116.663V72.2169Z" fill="#575756"/>
<path fill-rule="evenodd" clip-rule="evenodd" d="M122.523 74.7733V69.5275H120.482V68.5571H125.671V69.5275H123.631V74.7733H122.523Z" fill="#575756"/>
<path fill-rule="evenodd" clip-rule="evenodd" d="M130.183 69.4848C129.615 69.4876 129.132 69.6943 128.733 70.1042C128.335 70.5141 128.136 71.0267 128.136 71.642C128.136 72.2572 128.335 72.7781 128.733 73.2047C129.132 73.6319 129.615 73.8442 130.183 73.8414C130.754 73.8414 131.238 73.6278 131.633 73.2005C132.028 72.7767 132.226 72.2572 132.226 71.642C132.226 71.0267 132.028 70.5141 131.633 70.1042C131.238 69.6943 130.754 69.4876 130.183 69.4848ZM133.35 71.6378C133.35 72.5416 133.047 73.3073 132.439 73.935C131.832 74.5621 131.08 74.8756 130.183 74.8756C129.283 74.8756 128.53 74.5635 127.922 73.9378C127.316 73.3129 127.011 72.5471 127.011 71.6413C127.011 70.7361 127.316 69.9787 127.922 69.369C128.53 68.7593 129.283 68.4534 130.183 68.45C131.083 68.45 131.835 68.7551 132.439 69.3648C133.047 69.9738 133.35 70.7319 133.35 71.6378Z" fill="#575756"/>
<path fill-rule="evenodd" clip-rule="evenodd" d="M136.718 71.6479H137.774C138.104 71.6479 138.359 71.5508 138.542 71.3572C138.723 71.1665 138.813 70.9085 138.813 70.5832C138.813 70.2586 138.721 70.0019 138.537 69.814C138.352 69.6253 138.104 69.5303 137.792 69.5275H136.718V71.6479ZM135.594 74.7733V68.5571H137.974C138.553 68.5571 139.026 68.7437 139.391 69.1169C139.756 69.4907 139.938 69.9776 139.938 70.579C139.938 71.1804 139.756 71.6708 139.392 72.0502C139.028 72.4289 138.556 72.6182 137.976 72.6182H136.718V74.7733H135.594Z" fill="#575756"/>
<path fill-rule="evenodd" clip-rule="evenodd" d="M141.978 74.7733V68.5571H145.539V69.5275H143.102V74.7733H141.978Z" fill="#575756"/>
<path fill-rule="evenodd" clip-rule="evenodd" d="M150.026 69.4848C149.458 69.4876 148.975 69.6943 148.576 70.1042C148.178 70.5141 147.979 71.0267 147.979 71.642C147.979 72.2572 148.178 72.7781 148.576 73.2047C148.975 73.6319 149.458 73.8442 150.026 73.8414C150.597 73.8414 151.08 73.6278 151.476 73.2005C151.871 72.7767 152.069 72.2572 152.069 71.642C152.069 71.0267 151.871 70.5141 151.476 70.1042C151.08 69.6943 150.597 69.4876 150.026 69.4848ZM153.193 71.6378C153.193 72.5416 152.89 73.3073 152.282 73.935C151.675 74.5621 150.923 74.8756 150.026 74.8756C149.126 74.8756 148.373 74.5635 147.765 73.9378C147.158 73.3129 146.854 72.5471 146.854 71.6413C146.854 70.7361 147.158 69.9787 147.765 69.369C148.373 68.7593 149.126 68.4534 150.026 68.45C150.926 68.45 151.677 68.7551 152.282 69.3648C152.89 69.9738 153.193 70.7319 153.193 71.6378Z" fill="#575756"/>
<path fill-rule="evenodd" clip-rule="evenodd" d="M156.561 73.8027H157.767C158.048 73.7999 158.268 73.716 158.427 73.5509C158.586 73.3852 158.666 73.1701 158.666 72.9052C158.666 72.6402 158.586 72.4252 158.427 72.2594C158.268 72.0944 158.048 72.0104 157.767 72.0077H156.561V73.8027ZM156.561 71.1309H157.652C157.89 71.1309 158.078 71.0553 158.215 70.9034C158.351 70.7522 158.419 70.5573 158.419 70.3187C158.419 70.0794 158.351 69.8887 158.215 69.7458C158.078 69.6001 157.885 69.5273 157.635 69.5273H156.561V71.1309ZM155.437 74.7731V68.5576H157.632C158.206 68.5576 158.668 68.6998 159.018 68.9842C159.369 69.2686 159.543 69.6653 159.543 70.1744C159.543 70.4657 159.479 70.7293 159.348 70.9645C159.218 71.1989 159.039 71.3806 158.812 71.5096V71.5256C159.131 71.6185 159.374 71.8003 159.541 72.0701C159.707 72.3406 159.79 72.6402 159.79 72.969C159.79 73.5565 159.588 74.0039 159.185 74.3118C158.781 74.6198 158.275 74.7731 157.664 74.7731H155.437Z" fill="#575756"/>
<path fill-rule="evenodd" clip-rule="evenodd" d="M167.01 74.7735H168.117V68.5574H167.01V74.7735ZM163.129 73.8025H164.108C164.418 73.8025 164.656 73.7102 164.824 73.525C164.992 73.3371 165.076 73.0832 165.076 72.7641C165.076 72.4451 164.989 72.1884 164.816 71.9942C164.643 71.8007 164.401 71.705 164.092 71.7078H163.129V73.8025ZM162.005 74.7735V68.5574H163.129V70.7374H164.277C164.851 70.7374 165.315 70.9226 165.67 71.2937C166.026 71.6641 166.203 72.151 166.2 72.7558C166.2 73.36 166.023 73.8469 165.67 74.2173C165.316 74.5883 164.859 74.7735 164.3 74.7735H162.005Z" fill="#575756"/>
<path fill-rule="evenodd" clip-rule="evenodd" d="M173.275 68.2747C172.88 68.2747 172.543 68.1665 172.265 67.9501C171.986 67.7337 171.846 67.4396 171.843 67.0692V66.9541H172.691V67.0692C172.691 67.2433 172.749 67.3786 172.865 67.4757C172.982 67.5721 173.118 67.6207 173.275 67.6207C173.431 67.6207 173.57 67.5721 173.692 67.4757C173.811 67.3786 173.87 67.2406 173.87 67.0609V66.9541H174.705V67.0692C174.705 67.4369 174.566 67.7303 174.288 67.9501C174.007 68.1665 173.669 68.2747 173.275 68.2747ZM170.693 74.7732V68.557H171.818V72.1479L171.758 73.1106H171.775C171.974 72.7083 172.148 72.3851 172.299 72.1396L174.637 68.557H175.745V74.7732H174.637V71.1907L174.698 70.2287H174.68C174.487 70.6247 174.315 70.9458 174.165 71.1907L171.809 74.7732H170.693Z" fill="#575756"/>
<path fill-rule="evenodd" clip-rule="evenodd" d="M180.902 74.7733L182.819 71.6229L180.97 68.5571H182.252L183.108 70.0789L183.492 70.8315H183.508C183.625 70.5749 183.753 70.3238 183.892 70.0789L184.757 68.5571H186.039L184.182 71.6229L186.107 74.7733H184.851L183.884 73.1017L183.501 72.3665H183.483C183.367 72.6175 183.242 72.8624 183.108 73.1017L182.146 74.7733H180.902Z" fill="#575756"/>
<path fill-rule="evenodd" clip-rule="evenodd" d="M190.594 69.4848C190.026 69.4876 189.543 69.6943 189.144 70.1042C188.746 70.5141 188.547 71.0267 188.547 71.642C188.547 72.2572 188.746 72.7781 189.144 73.2047C189.543 73.6319 190.026 73.8442 190.594 73.8414C191.165 73.8414 191.648 73.6278 192.044 73.2005C192.439 72.7767 192.637 72.2572 192.637 71.642C192.637 71.0267 192.439 70.5141 192.044 70.1042C191.648 69.6943 191.165 69.4876 190.594 69.4848ZM193.761 71.6378C193.761 72.5416 193.458 73.3073 192.85 73.935C192.243 74.5621 191.491 74.8756 190.594 74.8756C189.694 74.8756 188.941 74.5635 188.333 73.9378C187.726 73.3129 187.422 72.5471 187.422 71.6413C187.422 70.7361 187.726 69.9787 188.333 69.369C188.941 68.7593 189.694 68.4534 190.594 68.45C191.494 68.45 192.246 68.7551 192.85 69.3648C193.458 69.9738 193.761 70.7319 193.761 71.6378Z" fill="#575756"/>
<path fill-rule="evenodd" clip-rule="evenodd" d="M196.538 70.253V68.5571H200.397V74.7733H199.272V69.5275H197.646V70.2717C197.646 71.8019 197.45 72.9394 197.062 73.6829C196.672 74.4272 196.053 74.8135 195.204 74.842V73.8071C195.672 73.7419 196.012 73.4298 196.223 72.8714C196.433 72.3137 196.538 71.4405 196.538 70.253Z" fill="#575756"/>
<path fill-rule="evenodd" clip-rule="evenodd" d="M206.577 73.8027V69.5273H204.924V69.9934C204.921 71.6643 204.642 72.9336 204.086 73.8027H206.577ZM202.223 73.8027H202.88C203.504 72.8934 203.817 71.597 203.817 69.9122V68.5576H207.701V73.8027H208.493V76.0001H207.386V74.7731H203.331V76.0001H202.223V73.8027Z" fill="#575756"/>
<path fill-rule="evenodd" clip-rule="evenodd" d="M210.414 74.7733V68.5571H211.538V72.148L211.479 73.1107H211.495C211.695 72.7084 211.868 72.3852 212.019 72.1396L214.358 68.5571H215.466V74.7733H214.358V71.1908L214.417 70.2287H214.401C214.207 70.6248 214.035 70.9452 213.884 71.1908L211.53 74.7733H210.414Z" fill="#575756"/>
<path fill-rule="evenodd" clip-rule="evenodd" d="M218.029 74.7733V68.5571H219.153V71.1908H221.99V68.5571H223.098V74.7733H221.99V72.1611H219.153V74.7733H218.029Z" fill="#575756"/>
<path fill-rule="evenodd" clip-rule="evenodd" d="M225.653 74.7733V68.5571H229.213V69.5275H226.777V74.7733H225.653Z" fill="#575756"/>
</svg>
