<svg width="172" height="100" viewBox="0 0 172 100" fill="none" xmlns="http://www.w3.org/2000/svg">
<path fill-rule="evenodd" clip-rule="evenodd" d="M38.0291 99.8195V92.8372H39.1322V99.8195H38.0291ZM38 91.2119V89.9478H39.103V91.2119H38ZM42.3873 93.8079H42.4065C42.5302 93.6448 42.6653 93.4967 42.8155 93.3565C42.963 93.2185 43.1296 93.0954 43.316 92.9901C43.4997 92.8848 43.7004 92.802 43.9207 92.7443C44.1406 92.6865 44.3801 92.6567 44.6413 92.6567C44.9484 92.6567 45.2363 92.7017 45.5049 92.7897C45.7755 92.8772 46.0077 93.0202 46.2061 93.2159C46.4044 93.4113 46.5616 93.6673 46.6776 93.9832C46.7938 94.2992 46.8519 94.6855 46.8519 95.1471V99.8195H45.7489V95.3301C45.7489 94.7281 45.6379 94.297 45.4127 94.0309C45.1903 93.7676 44.8637 93.6347 44.4333 93.6347C44.0562 93.6347 43.6909 93.7425 43.3376 93.9607C42.9847 94.179 42.6801 94.4775 42.4261 94.8588V99.8195H41.3231V92.8372H42.1744L42.3873 93.8079ZM51.2535 98.6658C51.4156 98.1567 51.6355 97.507 51.9114 96.7169L53.2561 92.8372H54.3588L51.8147 99.8195H50.6778L48.1338 92.8372H49.2365L50.5717 96.7169C50.8375 97.482 51.0553 98.1317 51.2245 98.6658H51.2535ZM58.2961 93.6347C58.0397 93.6347 57.8051 93.6874 57.5849 93.7901C57.3675 93.8932 57.1762 94.0309 57.0145 94.2092C56.8523 94.3845 56.7192 94.593 56.6177 94.8311C56.5187 95.0668 56.4556 95.32 56.4315 95.5908H59.8851C59.8851 95.3152 59.8512 95.0592 59.7811 94.8235C59.7108 94.5853 59.6092 94.3772 59.474 94.2016C59.341 94.0235 59.1764 93.8855 58.9782 93.7854C58.7821 93.6848 58.5549 93.6347 58.2961 93.6347ZM58.8693 99.0069C59.2321 99.0069 59.5634 98.9767 59.8634 98.9168C60.1631 98.8565 60.4629 98.7711 60.7605 98.6608V99.6038C60.5186 99.7265 60.2213 99.8221 59.868 99.8947C59.5125 99.9651 59.1329 100 58.7264 100C58.2453 100 57.7929 99.9374 57.3698 99.8093C56.9465 99.6815 56.5813 99.476 56.2718 99.1924C55.9647 98.9092 55.7227 98.538 55.5462 98.079C55.3721 97.6225 55.2849 97.0706 55.2849 96.4235C55.2849 95.7865 55.3698 95.235 55.5389 94.7683C55.7107 94.2992 55.9356 93.9106 56.2186 93.5973C56.5015 93.2835 56.8281 93.0478 57.1959 92.8924C57.5632 92.7344 57.9477 92.6567 58.3493 92.6567C58.7264 92.6567 59.0797 92.7218 59.4061 92.8521C59.7353 92.9825 60.0204 93.1858 60.2598 93.4666C60.5017 93.7451 60.6905 94.1063 60.8306 94.5476C60.9685 94.9891 61.0386 95.5182 61.0386 96.1352C61.0386 96.1929 61.0386 96.243 61.0386 96.2858C61.0386 96.3284 61.0361 96.421 61.0312 96.5691H56.3758C56.3758 97.0129 56.4388 97.3891 56.5694 97.7003C56.7 98.0086 56.8765 98.262 57.1014 98.4552C57.3261 98.6459 57.5874 98.7861 57.8898 98.8739C58.1921 98.9618 58.5185 99.0069 58.8693 99.0069ZM63.6795 94.6983C63.6795 94.8885 63.7181 95.0469 63.7979 95.167C63.8754 95.2901 63.9817 95.3904 64.1148 95.4656C64.2455 95.5407 64.3977 95.6036 64.5718 95.6537C64.7462 95.7013 64.9251 95.7466 65.1113 95.7841C65.3652 95.8443 65.6069 95.9096 65.832 95.9798C66.0593 96.0498 66.2697 96.1577 66.4609 96.2983C66.6542 96.4413 66.809 96.6344 66.9277 96.8752C67.0461 97.1185 67.1042 97.432 67.1042 97.8179C67.1042 98.1716 67.0388 98.4828 66.9056 98.7562C66.7729 99.0268 66.5866 99.2552 66.3447 99.4383C66.1028 99.6212 65.8149 99.7618 65.4787 99.8572C65.1426 99.9524 64.7728 100 64.3712 100C64.1246 100 63.9019 99.9876 63.7013 99.9601C63.4982 99.9324 63.3217 99.8997 63.1669 99.8572C63.0146 99.8169 62.884 99.7744 62.775 99.7317C62.6661 99.6866 62.5744 99.6463 62.5041 99.6063V98.6608C62.7824 98.7762 63.0604 98.8689 63.3337 98.9367C63.6095 99.0043 63.9117 99.037 64.2405 99.037C64.5018 99.037 64.7363 99.0119 64.9468 98.9643C65.1548 98.9142 65.3362 98.8413 65.4861 98.7461C65.6385 98.6483 65.7547 98.5278 65.8369 98.3822C65.9167 98.2396 65.9578 98.0689 65.9578 97.8782C65.9578 97.6828 65.9214 97.5198 65.8464 97.3941C65.7715 97.2663 65.6723 97.161 65.5466 97.0782C65.4209 96.9928 65.2757 96.9254 65.1113 96.8727C64.9444 96.8175 64.7728 96.7696 64.5914 96.7245C64.3544 96.6719 64.1124 96.6069 63.8682 96.5339C63.6239 96.4613 63.4039 96.3585 63.203 96.2255C63.0024 96.0927 62.8402 95.9144 62.717 95.6864C62.5936 95.458 62.5331 95.1646 62.5331 94.8083C62.5331 94.4423 62.5961 94.1238 62.7243 93.8529C62.8525 93.5845 63.0266 93.3613 63.2443 93.1858C63.4617 93.0101 63.7135 92.8772 64.0034 92.7897C64.2913 92.7017 64.5963 92.6567 64.9177 92.6567C65.2927 92.6567 65.6385 92.6917 65.9578 92.7646C66.2795 92.8372 66.5671 92.9298 66.8282 93.0402V93.996C66.5503 93.8881 66.2697 93.7977 65.9868 93.7301C65.7014 93.6597 65.4087 93.6248 65.1089 93.6198C64.855 93.6198 64.6373 93.6473 64.4559 93.7C64.277 93.7552 64.1271 93.8304 64.0133 93.9255C63.897 94.0211 63.8127 94.1362 63.7593 94.2669C63.7062 94.3973 63.6795 94.5399 63.6795 94.6983ZM72.3258 99.8321C72.2314 99.8696 72.0864 99.9073 71.8928 99.9423C71.6994 99.9749 71.4697 99.995 71.1987 100C70.8457 100 70.5386 99.9549 70.2774 99.8645C70.0161 99.7744 69.8008 99.644 69.6268 99.476C69.4548 99.3053 69.3242 99.1023 69.2399 98.8615C69.155 98.6208 69.1117 98.3549 69.1117 98.0613V93.8152H67.8154V92.8372H69.1117V90.9261H70.2144V92.8372H72.2264V93.8152H70.2144V97.8833C70.2144 98.0438 70.2361 98.1941 70.2822 98.3321C70.3257 98.4676 70.3981 98.5881 70.4948 98.6884C70.5918 98.7885 70.7151 98.8663 70.8674 98.9215C71.0173 98.9792 71.1987 99.0069 71.4116 99.0069C71.559 99.0069 71.7137 98.9944 71.8759 98.9694C72.038 98.9466 72.1879 98.9142 72.3258 98.8739V99.8321ZM79.3152 99.8195H78.2125V95.3301C78.2125 95.0265 78.181 94.7709 78.1158 94.5577C78.0528 94.3446 77.9611 94.1689 77.84 94.0309C77.7191 93.8932 77.5741 93.7927 77.4072 93.7301C77.2376 93.6673 77.0517 93.6347 76.8412 93.6347C76.4494 93.6347 76.0916 93.7425 75.7698 93.9607C75.4482 94.179 75.1604 94.4775 74.9041 94.8588V99.8195H73.8011V92.8372H74.6548L74.8677 93.8079H74.8895C75.0127 93.6448 75.1457 93.4967 75.291 93.3565C75.4335 93.2185 75.5957 93.0954 75.7722 92.9901C75.9512 92.8848 76.1472 92.802 76.3598 92.7443C76.5727 92.6865 76.8048 92.6567 77.0563 92.6567C77.557 92.6567 77.9754 92.7821 78.3067 93.0304C78.638 93.2809 78.8946 93.6198 79.0736 94.0512H79.1026C79.3999 93.6146 79.741 93.2737 80.123 93.0278C80.5051 92.7795 80.9501 92.6567 81.4606 92.6567C81.6973 92.6567 81.9467 92.6917 82.2103 92.7595C82.4761 92.8271 82.7182 92.9549 82.9404 93.1383C83.1632 93.3212 83.347 93.5743 83.492 93.898C83.6394 94.2215 83.7122 94.638 83.7122 95.1471V99.8195H82.6092V95.3301C82.6092 95.0265 82.5777 94.7709 82.515 94.5577C82.4496 94.3446 82.3577 94.1689 82.239 94.0309C82.1183 93.8932 81.9758 93.7927 81.8087 93.7301C81.642 93.6673 81.4557 93.6347 81.2477 93.6347C80.8584 93.6347 80.5004 93.7425 80.1787 93.9607C79.8569 94.179 79.5694 94.4775 79.3152 94.8588V99.8195ZM88.4451 93.6347C88.1887 93.6347 87.9542 93.6874 87.7339 93.7901C87.5165 93.8932 87.3253 94.0309 87.1634 94.2092C87.0013 94.3845 86.8683 94.593 86.7667 94.8311C86.6676 95.0668 86.6047 95.32 86.5805 95.5908H90.0342C90.0342 95.3152 90.0002 95.0592 89.9302 94.8235C89.8598 94.5853 89.7583 94.3772 89.6231 94.2016C89.49 94.0235 89.3254 93.8855 89.1272 93.7854C88.9311 93.6848 88.7039 93.6347 88.4451 93.6347ZM89.0183 99.0069C89.3811 99.0069 89.7124 98.9767 90.0124 98.9168C90.3121 98.8565 90.6119 98.7711 90.9095 98.6608V99.6038C90.6676 99.7265 90.3703 99.8221 90.017 99.8947C89.6616 99.9651 89.282 100 88.8755 100C88.3943 100 87.942 99.9374 87.5189 99.8093C87.0955 99.6815 86.7304 99.476 86.4208 99.1924C86.1137 98.9092 85.8718 98.538 85.6952 98.079C85.5212 97.6225 85.434 97.0706 85.434 96.4235C85.434 95.7865 85.5188 95.235 85.6879 94.7683C85.8598 94.2992 86.0847 93.9106 86.3676 93.5973C86.6505 93.2835 86.9772 93.0478 87.3448 92.8924C87.7122 92.7344 88.0967 92.6567 88.4983 92.6567C88.8755 92.6567 89.2288 92.7218 89.5552 92.8521C89.8843 92.9825 90.1693 93.1858 90.4088 93.4666C90.6508 93.7451 90.8395 94.1063 90.9796 94.5476C91.1176 94.9891 91.1876 95.5182 91.1876 96.1352C91.1876 96.1929 91.1876 96.243 91.1876 96.2858C91.1876 96.3284 91.1851 96.421 91.1803 96.5691H86.5248C86.5248 97.0129 86.5878 97.3891 86.7184 97.7003C86.849 98.0086 87.0255 98.262 87.2503 98.4552C87.4752 98.6459 87.7364 98.7861 88.0389 98.8739C88.3411 98.9618 88.6674 99.0069 89.0183 99.0069ZM94.1091 93.8079H94.1283C94.2518 93.6448 94.3871 93.4967 94.5373 93.3565C94.6848 93.2185 94.8514 93.0954 95.0377 92.9901C95.2215 92.8848 95.4222 92.802 95.6425 92.7443C95.8624 92.6865 96.1018 92.6567 96.3631 92.6567C96.6702 92.6567 96.9581 92.7017 97.2265 92.7897C97.4973 92.8772 97.7295 93.0202 97.9279 93.2159C98.1262 93.4113 98.2834 93.6673 98.3993 93.9832C98.5156 94.2992 98.5737 94.6855 98.5737 95.1471V99.8195H97.4706V95.3301C97.4706 94.7281 97.3596 94.297 97.1345 94.0309C96.9121 93.7676 96.5855 93.6347 96.1551 93.6347C95.778 93.6347 95.4127 93.7425 95.0594 93.9607C94.7065 94.179 94.4017 94.4775 94.1479 94.8588V99.8195H93.0449V92.8372H93.8962L94.1091 93.8079ZM104.26 99.8321C104.165 99.8696 104.02 99.9073 103.827 99.9423C103.633 99.9749 103.403 99.995 103.133 100C102.78 100 102.472 99.9549 102.211 99.8645C101.95 99.7744 101.735 99.644 101.561 99.476C101.389 99.3053 101.258 99.1023 101.174 98.8615C101.089 98.6208 101.045 98.3549 101.045 98.0613V93.8152H99.7492V92.8372H101.045V90.9261H102.148V92.8372H104.16V93.8152H102.148V97.8833C102.148 98.0438 102.17 98.1941 102.216 98.3321C102.26 98.4676 102.332 98.5881 102.429 98.6884C102.526 98.7885 102.649 98.8663 102.801 98.9215C102.951 98.9792 103.133 99.0069 103.345 99.0069C103.493 99.0069 103.648 98.9944 103.81 98.9694C103.972 98.9466 104.122 98.9142 104.26 98.8739V99.8321ZM112.548 90.0808C112.408 90.0509 112.25 90.0306 112.081 90.0157C111.912 90.0005 111.764 89.9931 111.641 89.9931C111.397 89.9931 111.176 90.0255 110.981 90.0884C110.785 90.1511 110.62 90.2539 110.487 90.3918C110.354 90.5324 110.253 90.7155 110.183 90.9435C110.112 91.1693 110.076 91.4453 110.076 91.7663V92.8372H112.081V93.8152H110.076V99.8195H108.973V93.8152H107.791V92.8372H108.973V91.7736C108.973 91.2696 109.039 90.8458 109.169 90.4997C109.3 90.1562 109.479 89.8726 109.706 89.6494C109.933 89.4263 110.202 89.2633 110.509 89.158C110.816 89.0527 111.145 89 111.501 89C111.728 89 111.936 89.0124 112.127 89.0375C112.318 89.06 112.458 89.0875 112.548 89.1177V90.0808ZM115.929 100C115.578 100 115.264 99.9601 114.983 99.8823C114.705 99.8046 114.459 99.6942 114.248 99.5512C114.038 99.4106 113.859 99.2403 113.711 99.042C113.566 98.8438 113.45 98.6255 113.363 98.3898C113.298 98.2145 113.249 98.0212 113.223 97.8106C113.193 97.6 113.179 97.3691 113.179 97.1208V92.8372H114.282V97.1185C114.282 97.5046 114.333 97.8281 114.432 98.0888C114.545 98.3822 114.727 98.6132 114.981 98.7838C115.235 98.9516 115.559 99.037 115.951 99.037C116.367 99.037 116.703 98.9443 116.954 98.7584C117.208 98.5703 117.39 98.3222 117.498 98.006C117.578 97.7678 117.62 97.4693 117.62 97.1185V92.8372H118.722V97.1284C118.722 97.3615 118.71 97.5822 118.683 97.7856C118.657 97.9886 118.616 98.1767 118.558 98.3473C118.473 98.5881 118.357 98.8089 118.207 99.0119C118.057 99.2149 117.873 99.3907 117.656 99.5363C117.438 99.6841 117.186 99.797 116.899 99.8798C116.613 99.9601 116.289 100 115.929 100ZM121.825 93.8079H121.844C121.968 93.6448 122.103 93.4967 122.253 93.3565C122.401 93.2185 122.567 93.0954 122.754 92.9901C122.938 92.8848 123.138 92.802 123.358 92.7443C123.578 92.6865 123.818 92.6567 124.079 92.6567C124.386 92.6567 124.674 92.7017 124.943 92.7897C125.213 92.8772 125.446 93.0202 125.644 93.2159C125.842 93.4113 125.999 93.6673 126.115 93.9832C126.232 94.2992 126.29 94.6855 126.29 95.1471V99.8195H125.187V95.3301C125.187 94.7281 125.076 94.297 124.851 94.0309C124.628 93.7676 124.301 93.6347 123.871 93.6347C123.494 93.6347 123.129 93.7425 122.775 93.9607C122.423 94.179 122.118 94.4775 121.864 94.8588V99.8195H120.761V92.8372H121.612L121.825 93.8079ZM129.168 96.406C129.168 96.8073 129.211 97.1712 129.298 97.497C129.388 97.8231 129.514 98.099 129.678 98.3274C129.845 98.5555 130.048 98.7311 130.29 98.8539C130.532 98.9767 130.81 99.037 131.122 99.037C131.354 99.037 131.565 99.0043 131.753 98.9419C131.942 98.8765 132.111 98.7962 132.261 98.6985C132.411 98.6004 132.539 98.4977 132.646 98.3874C132.752 98.2769 132.836 98.1742 132.897 98.0815V94.4274C132.67 94.1891 132.406 93.996 132.109 93.8504C131.811 93.7073 131.489 93.6347 131.144 93.6347C130.933 93.6347 130.716 93.6749 130.486 93.7552C130.256 93.838 130.043 93.9832 129.847 94.1939C129.649 94.4049 129.487 94.6881 129.359 95.0418C129.231 95.398 129.168 95.8519 129.168 96.406ZM128.021 96.4162C128.021 95.9321 128.067 95.5033 128.159 95.1271C128.251 94.7535 128.375 94.4274 128.524 94.1463C128.677 93.8679 128.853 93.6347 129.056 93.4466C129.262 93.2584 129.472 93.1056 129.69 92.9875C129.908 92.8699 130.128 92.7845 130.353 92.7344C130.578 92.6818 130.788 92.6567 130.989 92.6567C131.4 92.6567 131.758 92.7268 132.06 92.8699C132.363 93.0126 132.633 93.2211 132.875 93.4941H132.897V89.1805H134V99.8195H133.168L132.94 99.0395H132.912C132.827 99.1525 132.725 99.2679 132.614 99.3831C132.5 99.4985 132.365 99.6013 132.213 99.6942C132.058 99.7868 131.881 99.862 131.681 99.9172C131.48 99.9724 131.245 100 130.982 100C130.611 100 130.249 99.935 129.896 99.8046C129.54 99.6765 129.223 99.4684 128.948 99.1826C128.672 98.8938 128.447 98.5254 128.278 98.0714C128.106 97.6201 128.021 97.068 128.021 96.4162Z" fill="#676766"/>
<path fill-rule="evenodd" clip-rule="evenodd" d="M9.78747 74.4536C9.78747 73.6951 9.69526 73.0353 9.50771 72.4672C9.32329 71.8995 9.0659 71.4267 8.7349 71.0492C8.40768 70.6716 8.01636 70.3891 7.56505 70.202C7.1133 70.0148 6.61723 69.9228 6.07673 69.9228C5.53612 69.9228 5.04005 70.0148 4.58841 70.202C4.13698 70.3891 3.74577 70.6716 3.41844 71.0492C3.08755 71.4267 2.83016 71.8995 2.64564 72.4672C2.45808 73.0353 2.36587 73.6951 2.36587 74.4536C2.36587 75.2085 2.45808 75.8717 2.64564 76.4397C2.83016 77.0075 3.08755 77.4771 3.41844 77.8547C3.74577 78.2292 4.13698 78.5115 4.58841 78.702C5.04005 78.8891 5.53612 78.9844 6.07673 78.9844C6.61723 78.9844 7.1133 78.8891 7.56505 78.702C8.01636 78.5115 8.40768 78.2292 8.7349 77.8547C9.0659 77.4771 9.32329 77.0075 9.50771 76.4397C9.69526 75.8717 9.78747 75.2085 9.78747 74.4536ZM12.1535 74.4536C12.1535 75.4021 12.0198 76.2716 11.7496 77.0616C11.4792 77.8517 11.0819 78.5338 10.5634 79.1016C10.0452 79.6727 9.40912 80.117 8.65253 80.4343C7.89875 80.7483 7.04011 80.9069 6.07673 80.9069C5.11334 80.9069 4.2547 80.7483 3.50092 80.4343C2.74433 80.117 2.10816 79.6727 1.59004 79.1016C1.07159 78.5338 0.677246 77.8517 0.406888 77.0616C0.136638 76.2716 0 75.4021 0 74.4536C0 73.5049 0.136638 72.6354 0.406888 71.8456C0.677246 71.0556 1.07159 70.3731 1.59004 69.8054C2.10816 69.2342 2.74433 68.79 3.50092 68.4726C4.2547 68.1587 5.11334 68 6.07673 68C7.04011 68 7.89875 68.1587 8.65253 68.4726C9.40912 68.79 10.0452 69.2342 10.5634 69.8054C11.0819 70.3731 11.4792 71.0556 11.7496 71.8456C12.0198 72.6354 12.1535 73.5049 12.1535 74.4536ZM16.1413 73.5398H13.2633V71.6741H21.2288V73.5398H18.3481V80.6786H16.1413V73.5398ZM27.2801 79.1367C27.7094 79.1367 28.1576 79.0954 28.6219 79.0098C29.0896 78.9239 29.5602 78.8004 30.037 78.6417V80.39C29.7542 80.5135 29.3154 80.6309 28.7237 80.7421C28.1356 80.8531 27.5218 80.9069 26.8891 80.9069C26.2499 80.9069 25.6426 80.8244 25.0671 80.6596C24.4947 80.4976 23.9921 80.2313 23.5598 79.8662C23.1305 79.5014 22.7901 79.0254 22.5357 78.4448C22.2845 77.8612 22.1572 77.1568 22.1572 76.3254C22.1572 75.5069 22.275 74.793 22.5136 74.1776C22.7486 73.5651 23.0668 73.0575 23.4642 72.6546C23.8619 72.2516 24.3166 71.9501 24.8317 71.7472C25.3435 71.5472 25.8745 71.4457 26.4215 71.4457C26.9938 71.4457 27.5218 71.5313 28.0051 71.7058C28.4853 71.8771 28.905 72.1501 29.255 72.5213C29.6077 72.8925 29.8813 73.3685 30.0753 73.9522C30.2723 74.5392 30.371 75.2278 30.371 76.0273C30.3645 76.3349 30.3551 76.5984 30.3424 76.814H24.4215C24.4533 77.2328 24.5456 77.5881 24.7013 77.8865C24.8571 78.1815 25.0572 78.4228 25.3119 78.6068C25.5629 78.7906 25.8555 78.9273 26.1895 79.0098C26.5266 79.0954 26.8891 79.1367 27.2801 79.1367ZM26.396 73.1592C26.1163 73.1592 25.8684 73.2098 25.649 73.3113C25.4327 73.416 25.2451 73.5526 25.0861 73.7303C24.9271 73.9079 24.803 74.1139 24.7107 74.3487C24.6154 74.5835 24.555 74.8343 24.5232 75.1008H28.0719C28.0719 74.8343 28.037 74.5835 27.9637 74.3487C27.8939 74.1139 27.789 73.9079 27.649 73.7303C27.5089 73.5526 27.3344 73.416 27.1275 73.3113C26.9176 73.2098 26.6758 73.1592 26.396 73.1592ZM39.7709 71.6741V80.6786H37.5576V73.5015H35.9645C35.8024 74.6725 35.6243 75.6686 35.4239 76.4875C35.2269 77.3059 35.0137 77.988 34.7847 78.5338C34.5589 79.0796 34.3205 79.5079 34.0727 79.8188C33.8243 80.1264 33.5731 80.3551 33.3188 80.501C33.0645 80.6468 32.8068 80.7421 32.5494 80.7831C32.2917 80.8278 32.0248 80.8498 31.7447 80.8498C31.6335 80.8498 31.5158 80.8468 31.392 80.8373C31.2645 80.8278 31.1408 80.8086 31.0167 80.7831V78.8224C31.2041 78.8543 31.3696 78.8701 31.5127 78.8701C31.7352 78.8701 31.923 78.8448 32.0786 78.7906C32.2346 78.7398 32.3839 78.6353 32.527 78.48C32.6701 78.3243 32.8102 78.0895 32.9498 77.7786C33.0899 77.4646 33.2299 77.0426 33.3697 76.5095C33.5097 75.9766 33.6494 75.3133 33.7894 74.5234C33.9295 73.7333 34.0727 72.7846 34.2218 71.6741H39.7709ZM44.3817 71.6741V74.888C44.8429 74.8407 45.307 74.8153 45.7747 74.8153C46.4932 74.8153 47.1165 74.8945 47.6506 75.0532C48.1816 75.2118 48.6174 75.4278 48.9511 75.6974C49.2881 75.9701 49.5363 76.2905 49.6954 76.6522C49.8544 77.014 49.9337 77.4044 49.9337 77.8199C49.9337 78.3402 49.8161 78.794 49.5841 79.1811C49.3488 79.5681 49.0243 79.8915 48.6079 80.1487C48.188 80.4058 47.6951 80.596 47.126 80.7199C46.5567 80.8437 45.9334 80.9069 45.2626 80.9069C44.1148 80.9069 43.0843 80.7896 42.1687 80.5548V71.6741H44.3817ZM45.3834 79.0985C46.0735 79.0985 46.6235 78.997 47.0307 78.794C47.4407 78.5876 47.6442 78.2736 47.6442 77.8484C47.6442 77.6676 47.6061 77.5059 47.5264 77.3566C47.4502 77.2075 47.3263 77.0806 47.1578 76.9726C46.9893 76.8617 46.773 76.7791 46.5027 76.7158C46.2355 76.6556 45.9113 76.6238 45.5329 76.6238C45.1514 76.6238 44.7696 76.6492 44.3817 76.6965V79.0413C44.6869 79.0796 45.0209 79.0985 45.3834 79.0985ZM60.7962 68.2476V70.1512H54.4428V73.0735C55.0088 73.0289 55.5177 73.0069 55.9725 73.0069C56.9549 73.0069 57.8071 73.089 58.5259 73.2542C59.2445 73.416 59.8392 73.6571 60.313 73.9711C60.7867 74.2886 61.1366 74.6756 61.3656 75.1323C61.5975 75.5926 61.7122 76.1159 61.7122 76.703C61.7122 77.4582 61.5053 78.1339 61.0919 78.7338C60.6785 79.3302 60.0492 79.7965 59.2095 80.1298C58.7613 80.3105 58.2302 80.4468 57.61 80.5388C56.9902 80.6309 56.2458 80.6786 55.3746 80.6786H52.1535V68.2476H60.7962ZM54.4428 78.775H55.5242C56.0837 78.775 56.5988 78.7433 57.0665 78.6766C57.5368 78.613 57.9375 78.502 58.2747 78.3467C58.6086 78.1944 58.8725 77.985 59.0634 77.7214C59.251 77.4582 59.3462 77.1313 59.3462 76.7412C59.3462 76.1352 59.0729 75.6815 58.5226 75.38C57.9726 75.0785 57.0854 74.9293 55.8613 74.9293C55.419 74.9293 54.9453 74.9547 54.4428 75.0025V78.775ZM72.0911 71.6741V80.6786H69.878V78.0672C69.878 76.884 69.9066 75.8148 69.9605 74.8627H69.9255C69.544 75.5133 68.9686 76.3667 68.1893 77.4264L65.7665 80.6786H63.7345V71.6741H65.9475V74.2854C65.9475 75.5736 65.919 76.6428 65.8648 77.4899H65.9001C66.2625 76.8711 66.8381 76.0178 67.6363 74.9263L70.0591 71.6741H72.0911ZM74.107 72.004C74.5682 71.8168 75.0642 71.6775 75.5984 71.5855C76.1328 71.4934 76.6703 71.4457 77.2108 71.4457C77.7992 71.4457 78.3268 71.5093 78.791 71.6362C79.2553 71.7631 79.6466 71.9407 79.9677 72.1721C80.2888 72.4009 80.5337 72.6766 80.7022 73.0004C80.8707 73.3208 80.9534 73.6795 80.9534 74.0696C80.9534 74.5329 80.8358 74.9263 80.6005 75.2498C80.3621 75.5736 80.0789 75.8209 79.7418 75.9955V76.0304C79.9487 76.1004 80.1393 76.189 80.3142 76.3064C80.4923 76.4208 80.6449 76.5602 80.7755 76.722C80.9056 76.887 81.0108 77.0741 81.087 77.2806C81.1633 77.4866 81.2014 77.7214 81.2014 77.9816C81.2014 78.372 81.122 78.7433 80.9599 79.1016C80.7975 79.4571 80.5496 79.768 80.2095 80.0344C79.8724 80.301 79.4367 80.5135 78.9057 80.6691C78.3746 80.8278 77.7419 80.9069 77.0008 80.9069C76.3807 80.9069 75.8178 80.8562 75.3122 80.7578C74.8035 80.6596 74.3522 80.5233 73.9544 80.3518V78.5845C74.441 78.7781 74.9181 78.9178 75.3888 79.0064C75.8626 79.0921 76.3139 79.1367 76.7496 79.1367C77.16 79.1367 77.5031 79.1079 77.7798 79.0541C78.0565 78.997 78.2759 78.9178 78.4414 78.8129C78.6066 78.7083 78.7211 78.5815 78.791 78.4353C78.8578 78.2895 78.8927 78.1277 78.8927 77.9499C78.8927 77.4551 78.632 77.1473 78.1138 77.0298C77.9134 76.9885 77.6178 76.9665 77.2203 76.9665H75.131V75.2531H77.322C77.6272 75.2531 77.8561 75.2245 78.0121 75.1706C78.2346 75.088 78.3936 74.9642 78.4858 74.796C78.578 74.6312 78.6259 74.4472 78.6259 74.2472C78.6259 73.9204 78.4888 73.6666 78.2125 73.486C77.9358 73.305 77.5065 73.2163 76.931 73.2163C76.457 73.2163 75.9768 73.267 75.4871 73.3685C74.9944 73.47 74.5363 73.5905 74.107 73.7303V72.004ZM89.0112 80.6786V76.9665H85.3672V80.6786H83.1604V71.6741H85.3672V75.1008H89.0112V71.6741H91.218V80.6786H89.0112ZM98.2965 79.1367C98.7258 79.1367 99.1741 79.0954 99.6384 79.0098C100.106 78.9239 100.577 78.8004 101.053 78.6417V80.39C100.771 80.5135 100.332 80.6309 99.7401 80.7421C99.152 80.8531 98.5382 80.9069 97.9055 80.9069C97.2663 80.9069 96.6589 80.8244 96.0835 80.6596C95.5111 80.4976 95.0086 80.2313 94.5762 79.8662C94.1469 79.5014 93.8065 79.0254 93.5521 78.4448C93.3009 77.8612 93.1737 77.1568 93.1737 76.3254C93.1737 75.5069 93.2914 74.793 93.5301 74.1776C93.7651 73.5651 94.0831 73.0575 94.4806 72.6546C94.8783 72.2516 95.3331 71.9501 95.8482 71.7472C96.3599 71.5472 96.8909 71.4457 97.4379 71.4457C98.0103 71.4457 98.5382 71.5313 99.0215 71.7058C99.5016 71.8771 99.9215 72.1501 100.271 72.5213C100.624 72.8925 100.898 73.3685 101.092 73.9522C101.289 74.5392 101.387 75.2278 101.387 76.0273C101.381 76.3349 101.371 76.5984 101.359 76.814H95.4378C95.4697 77.2328 95.5619 77.5881 95.7176 77.8865C95.8736 78.1815 96.0737 78.4228 96.3283 78.6068C96.5792 78.7906 96.8719 78.9273 97.2059 79.0098C97.543 79.0954 97.9055 79.1367 98.2965 79.1367ZM97.4125 73.1592C97.1327 73.1592 96.8848 73.2098 96.6654 73.3113C96.4491 73.416 96.2615 73.5526 96.1025 73.7303C95.9435 73.9079 95.8193 74.1139 95.7271 74.3487C95.6319 74.5835 95.5714 74.8343 95.5395 75.1008H99.0882C99.0882 74.8343 99.0533 74.5835 98.9801 74.3487C98.9103 74.1139 98.8055 73.9079 98.6655 73.7303C98.5254 73.5526 98.3507 73.416 98.1439 73.3113C97.934 73.2098 97.6922 73.1592 97.4125 73.1592ZM109.932 80.482C109.652 80.5994 109.308 80.6976 108.905 80.7831C108.501 80.8657 108.078 80.9069 107.63 80.9069C106.978 80.9069 106.367 80.8149 105.804 80.6278C105.238 80.4438 104.742 80.1613 104.319 79.784C103.896 79.403 103.562 78.9273 103.321 78.3467C103.076 77.7661 102.955 77.0901 102.955 76.3159C102.955 75.4498 103.095 74.704 103.375 74.0856C103.655 73.4667 104.021 72.9622 104.466 72.5751C104.911 72.1881 105.41 71.9025 105.967 71.7185C106.523 71.5377 107.07 71.4457 107.611 71.4457C108.014 71.4457 108.402 71.4805 108.774 71.5537C109.149 71.6233 109.486 71.7218 109.792 71.8456V73.6348C109.518 73.5208 109.226 73.4288 108.921 73.3588C108.612 73.289 108.281 73.2542 107.928 73.2542C107.572 73.2542 107.235 73.308 106.911 73.416C106.59 73.5238 106.304 73.6951 106.055 73.9299C105.808 74.1681 105.61 74.4757 105.464 74.8627C105.318 75.2498 105.245 75.7164 105.245 76.2587C105.245 76.6556 105.302 77.0298 105.413 77.3789C105.524 77.7279 105.687 78.0262 105.903 78.2736C106.116 78.521 106.39 78.7209 106.72 78.8701C107.054 79.0224 107.445 79.0985 107.9 79.0985C108.304 79.0985 108.669 79.0606 109 78.9844C109.327 78.905 109.639 78.8098 109.932 78.6989V80.482ZM122.015 68.2476V80.6786H119.726V70.1894H114.403V80.6786H112.113V68.2476H122.015ZM128.938 73.2163C128.553 73.2224 128.187 73.3178 127.838 73.4985C127.491 73.6795 127.183 73.9268 126.915 74.2347V78.2482C127.008 78.3562 127.119 78.4607 127.252 78.5656C127.383 78.6735 127.526 78.7686 127.688 78.8573C127.85 78.9431 128.028 79.0159 128.226 79.0701C128.42 79.1269 128.623 79.1556 128.836 79.1556C129.176 79.1556 129.482 79.0826 129.749 78.9368C130.016 78.7906 130.239 78.5845 130.417 78.318C130.591 78.0517 130.728 77.7342 130.82 77.3661C130.913 76.998 130.96 76.5855 130.96 76.1352C130.96 75.6528 130.913 75.2278 130.817 74.8627C130.719 74.4949 130.582 74.1934 130.407 73.9491C130.229 73.7079 130.016 73.527 129.768 73.4033C129.52 73.2795 129.243 73.2163 128.938 73.2163ZM129.23 80.9069C128.744 80.9069 128.305 80.8183 127.908 80.6438C127.513 80.4661 127.186 80.2472 126.925 79.987H126.887C126.893 80.1105 126.899 80.2851 126.906 80.5135C126.912 80.7388 126.915 80.9864 126.915 81.2527V85H124.702V71.6741H126.642L126.737 72.6831H126.772C127.049 72.3214 127.399 72.0263 127.828 71.7946C128.257 71.5631 128.757 71.4457 129.323 71.4457C129.812 71.4457 130.296 71.5377 130.773 71.7185C131.25 71.9025 131.669 72.1819 132.038 72.5592C132.404 72.9402 132.696 73.416 132.919 73.9934C133.139 74.5677 133.25 75.2531 133.25 76.0462C133.25 76.884 133.132 77.6074 132.897 78.2164C132.658 78.8258 132.347 79.3302 131.962 79.7299C131.577 80.1298 131.148 80.4278 130.68 80.6183C130.21 80.8119 129.726 80.9069 129.23 80.9069ZM141.527 76.1765C141.527 75.7004 141.47 75.2785 141.358 74.9135C141.247 74.5487 141.095 74.2442 140.894 73.9966C140.697 73.7491 140.458 73.5621 140.179 73.4383C139.899 73.3145 139.594 73.2542 139.266 73.2542C138.945 73.2542 138.646 73.3145 138.369 73.4383C138.093 73.5621 137.854 73.7491 137.657 73.9966C137.46 74.2442 137.304 74.5487 137.193 74.9135C137.082 75.2785 137.024 75.7004 137.024 76.1765C137.024 76.6522 137.082 77.0741 137.193 77.4392C137.304 77.8039 137.46 78.1085 137.66 78.3528C137.864 78.5971 138.102 78.7811 138.379 78.908C138.652 79.0352 138.958 79.0985 139.285 79.0985C139.613 79.0985 139.915 79.0352 140.188 78.908C140.462 78.7811 140.697 78.5971 140.894 78.3528C141.095 78.1085 141.247 77.8039 141.358 77.4392C141.47 77.0741 141.527 76.6522 141.527 76.1765ZM143.817 76.1765C143.817 76.884 143.712 77.5279 143.498 78.1085C143.289 78.6925 142.986 79.1906 142.589 79.606C142.195 80.0218 141.718 80.3423 141.158 80.5676C140.598 80.7929 139.975 80.9069 139.285 80.9069C138.576 80.9069 137.94 80.7929 137.377 80.5676C136.814 80.3423 136.337 80.0218 135.946 79.606C135.555 79.1906 135.256 78.6925 135.046 78.1085C134.84 77.5279 134.735 76.884 134.735 76.1765C134.735 75.4686 134.84 74.8248 135.053 74.2442C135.263 73.6603 135.565 73.1622 135.962 72.7467C136.357 72.3309 136.833 72.0104 137.393 71.7851C137.953 71.56 138.576 71.4457 139.266 71.4457C139.975 71.4457 140.611 71.56 141.174 71.7851C141.737 72.0104 142.214 72.3309 142.605 72.7467C142.996 73.1622 143.295 73.6603 143.505 74.2442C143.712 74.8248 143.817 75.4686 143.817 76.1765ZM150.421 79.1367C150.85 79.1367 151.299 79.0954 151.763 79.0098C152.231 78.9239 152.701 78.8004 153.178 78.6417V80.39C152.895 80.5135 152.457 80.6309 151.865 80.7421C151.277 80.8531 150.663 80.9069 150.03 80.9069C149.391 80.9069 148.784 80.8244 148.208 80.6596C147.636 80.4976 147.133 80.2313 146.701 79.8662C146.272 79.5014 145.931 79.0254 145.677 78.4448C145.426 77.8612 145.298 77.1568 145.298 76.3254C145.298 75.5069 145.416 74.793 145.655 74.1776C145.89 73.5651 146.208 73.0575 146.605 72.6546C147.003 72.2516 147.458 71.9501 147.973 71.7472C148.485 71.5472 149.016 71.4457 149.563 71.4457C150.135 71.4457 150.663 71.5313 151.146 71.7058C151.626 71.8771 152.046 72.1501 152.396 72.5213C152.749 72.8925 153.022 73.3685 153.216 73.9522C153.413 74.5392 153.512 75.2278 153.512 76.0273C153.506 76.3349 153.496 76.5984 153.484 76.814H147.563C147.594 77.2328 147.687 77.5881 147.842 77.8865C147.998 78.1815 148.198 78.4228 148.453 78.6068C148.704 78.7906 148.997 78.9273 149.331 79.0098C149.668 79.0954 150.03 79.1367 150.421 79.1367ZM149.537 73.1592C149.257 73.1592 149.01 73.2098 148.79 73.3113C148.574 73.416 148.386 73.5526 148.227 73.7303C148.068 73.9079 147.944 74.1139 147.852 74.3487C147.757 74.5835 147.696 74.8343 147.664 75.1008H151.213C151.213 74.8343 151.178 74.5835 151.105 74.3487C151.035 74.1139 150.93 73.9079 150.79 73.7303C150.65 73.5526 150.475 73.416 150.269 73.3113C150.059 73.2098 149.817 73.1592 149.537 73.1592ZM155.538 71.6741H157.751V75.5861H157.799L160.909 71.6741H163.554L159.866 76.1159L163.751 80.6786H161.087L157.789 76.7473H157.751V80.6786H155.538V71.6741ZM166.912 73.5398H164.034V71.6741H172V73.5398H169.119V80.6786H166.912V73.5398Z" fill="#1F5385"/>
<path fill-rule="evenodd" clip-rule="evenodd" d="M66 37H81V8L71.7537 13.4191L66 37Z" fill="#205184"/>
<path fill-rule="evenodd" clip-rule="evenodd" d="M103 37H84V0L95.7126 6.91226L103 37Z" fill="#205184"/>
<path fill-rule="evenodd" clip-rule="evenodd" d="M76.5881 52L63 40H110L76.5881 52Z" fill="#205184"/>
<path fill-rule="evenodd" clip-rule="evenodd" d="M13 60H85.9999H159L158.67 59.8546C133.352 59.2391 109.675 58.9689 85.9999 59.0028C62.3247 58.9689 38.6478 59.2391 13.3301 59.8546L13 60Z" fill="#205184"/>
</svg>
