<svg width="188" height="59" viewBox="0 0 188 59" fill="none" xmlns="http://www.w3.org/2000/svg">
<path fill-rule="evenodd" clip-rule="evenodd" d="M188 13H0V59H188V13ZM186.257 14.7578V57.2427H1.7432V14.7578H186.257Z" fill="#033B75"/>
<path fill-rule="evenodd" clip-rule="evenodd" d="M9 48.1075V43.5177C10.1063 44.4818 11.6062 45.2924 13.4607 45.9856C15.3566 46.6804 17.2506 47.0271 19.1449 47.0271C22.7771 47.0271 25.5394 45.5238 25.5394 43.0163C25.5394 41.9363 24.987 41.0884 24.3152 40.5093C23.9992 40.2394 23.527 39.9696 22.8951 39.6997C21.6311 39.1212 20.8812 38.9276 19.1047 38.4264L18.5524 38.2722C17.0126 37.8482 15.7905 37.4628 14.9606 37.154C14.132 36.8451 13.2243 36.3822 12.1978 35.8037C10.1838 34.5701 9.3563 32.8343 9.3563 30.3663C9.3563 25.892 13.184 23 19.3813 23C22.6975 23 25.6573 23.7329 28.2235 25.2367V29.479C25.4209 27.8199 22.4993 26.9715 19.4609 26.9715C15.6706 26.9715 13.816 28.3985 13.816 30.4048C13.816 31.5614 14.4862 32.1784 15.4343 32.8343C15.9483 33.1426 17.2108 33.5291 17.8826 33.798L21.0389 34.6859C23.1315 35.3029 24.3551 35.7658 26.0913 36.6911C28.5396 37.964 29.8413 39.8919 30 42.939C30 45.4465 28.9734 47.4127 26.9597 48.8407C24.9471 50.2669 22.4209 51 19.3813 51C15.1585 51 11.7245 50.0355 9 48.1075Z" fill="#033B75"/>
<path fill-rule="evenodd" clip-rule="evenodd" d="M35 50H39V23H35V50Z" fill="#033B75"/>
<path fill-rule="evenodd" clip-rule="evenodd" d="M46 50V23H49.6855L64.8516 42.5567V23H69V50H65.4276L50.1459 30.3664V50H46Z" fill="#033B75"/>
<path fill-rule="evenodd" clip-rule="evenodd" d="M74 50V23H93.4907V26.8956H78.3042V33.6459H90.6727V37.5418H78.3042V46.1044H94V50H74Z" fill="#033B75"/>
<path fill-rule="evenodd" clip-rule="evenodd" d="M103.273 34.8416H111.119C114.223 34.8416 116.049 33.414 116.049 30.8305C116.049 28.3611 114.223 26.8956 111.119 26.8956H103.273V34.8416ZM99 50V23H111.391C114.146 23 116.36 23.6944 117.952 25.1222C119.545 26.5488 120.36 28.4005 120.36 30.6757C120.36 34.3786 118.185 37.2335 114.457 38.1199L123 50H117.836L109.643 38.5829H103.273V50H99Z" fill="#033B75"/>
<path fill-rule="evenodd" clip-rule="evenodd" d="M128.043 47.066C125.36 44.4045 124 41.0491 124 36.9999C124 32.95 125.36 29.5947 128.083 26.9715C130.804 24.3109 134.226 23 138.308 23C141.612 23 144.412 23.7707 146.705 25.314V29.5178C144.217 27.8199 141.496 26.9715 138.58 26.9715C135.625 26.9715 133.176 27.8972 131.271 29.7871C129.365 31.6771 128.394 34.0684 128.394 37.0377C128.394 40.0075 129.326 42.4382 131.192 44.2893C133.097 46.1023 135.392 47.0271 138.153 47.0271C140.913 47.0271 143.129 46.256 144.723 44.7522V34.9173H149V46.4874C146.784 49.1101 142.702 51 138.153 51C134.147 51 130.764 49.6887 128.043 47.066Z" fill="#033B75"/>
<path fill-rule="evenodd" clip-rule="evenodd" d="M160.97 39.6069H170.953L165.962 28.3311L160.97 39.6069ZM152 50L163.934 23H168.068L180 50H175.4L172.436 43.3261H159.488L156.563 50H152Z" fill="#033B75"/>
<path fill-rule="evenodd" clip-rule="evenodd" d="M0 0V15H188V0H0Z" fill="#033B75"/>
<path fill-rule="evenodd" clip-rule="evenodd" d="M16.102 10.6373H14.7252V5.88096C14.638 6.0496 14.5037 6.28288 14.3245 6.58353L11.496 10.6373H10V4.15163H11.3977V8.81223C11.4465 8.70224 11.5496 8.51414 11.7066 8.24364L14.5729 4.15163H16.102V10.6373ZM24.0722 10.6373H22.545V7.79834H19.6179V10.6373H18.0887V4.15163H19.6179V6.69804H22.545V4.15163H24.0722V10.6373ZM26.0543 10.6373V4.15163H29.2633C29.9846 4.15163 30.5554 4.29193 30.9763 4.57497C31.3953 4.85813 31.6057 5.24559 31.6057 5.73369C31.6057 6.5621 31.1666 7.06546 30.287 7.24282C31.3327 7.36866 31.854 7.8675 31.854 8.7369C31.854 9.2728 31.635 9.72507 31.1914 10.0899C30.7503 10.4554 30.2016 10.6373 29.5455 10.6373H26.0543ZM27.5771 5.18892V6.80623H28.9231C29.6843 6.80623 30.0628 6.52069 30.0628 5.95013C30.0628 5.44437 29.7311 5.18892 29.0666 5.18892H27.5771ZM27.5771 7.8247V9.59306H29.1382C29.9175 9.59306 30.3071 9.2879 30.3071 8.68087C30.3071 8.10967 29.8836 7.8247 29.0391 7.8247H27.5771ZM39.1614 7.79456H34.584C34.5998 8.3933 34.792 8.85567 35.1575 9.18029C35.5223 9.50683 36.024 9.6684 36.662 9.6684C37.3807 9.6684 38.0367 9.46089 38.6369 9.04823V10.2308C38.0257 10.6026 37.2152 10.7889 36.2098 10.7889C35.222 10.7889 34.4473 10.4944 33.885 9.9062C33.3232 9.31618 33.0411 8.48841 33.0411 7.42023C33.0411 6.41053 33.3501 5.58903 33.9702 4.95366C34.5887 4.31771 35.3563 4 36.2749 4C37.1949 4 37.9052 4.2856 38.4089 4.85361C38.9106 5.42491 39.1614 6.21627 39.1614 7.23017V7.79456ZM37.6921 6.75413C37.6876 6.22695 37.5599 5.81615 37.3051 5.52167C37.0516 5.22991 36.7024 5.08328 36.2566 5.08328C35.8175 5.08328 35.448 5.23682 35.1438 5.54565C34.8396 5.85262 34.6532 6.2571 34.584 6.75413H37.6921ZM45.4224 10.339C44.8855 10.6391 44.247 10.7889 43.5127 10.7889C42.5157 10.7889 41.7124 10.4881 41.0986 9.88674C40.4873 9.28609 40.1804 8.50526 40.1804 7.54543C40.1804 6.47789 40.5095 5.61918 41.1676 4.97068C41.8263 4.32404 42.7066 4 43.8079 4C44.4216 4 44.9611 4.10388 45.4296 4.30899V5.67782C44.9611 5.34054 44.4621 5.17206 43.9335 5.17206C43.2912 5.17206 42.762 5.38153 42.3522 5.80105C41.9404 6.22243 41.7345 6.77157 41.7345 7.45037C41.7345 8.12296 41.9294 8.65253 42.3169 9.04191C42.7041 9.42878 43.2214 9.62321 43.8729 9.62321C44.4216 9.62321 44.9371 9.43511 45.4224 9.06136V10.339ZM51.5088 5.32289H49.5944V10.6373H48.0653V5.32289H46.1365V4.15163H51.5088V5.32289ZM58.8111 10.6373H57.4343V5.88096C57.347 6.0496 57.2128 6.28288 57.0336 6.58353L54.2051 10.6373H52.709V4.15163H54.1066V8.81223C54.1556 8.70224 54.2585 8.51414 54.4155 8.24364L57.2818 4.15163H58.8111V10.6373ZM67.8114 13H66.5395V10.6373H60.7977V4.15163H62.327V9.51496H65.2538V4.15163H66.7811V9.51496H67.8114V13ZM75.2705 10.6373H73.8937V5.88096C73.8065 6.0496 73.6722 6.28288 73.4931 6.58353L70.6645 10.6373H69.1685V4.15163H70.5662V8.81223C70.615 8.70224 70.7179 8.51414 70.875 8.24364L73.7412 4.15163H75.2705V10.6373ZM80.2355 10.7889C79.2009 10.7889 78.3727 10.4856 77.7544 9.88042C77.134 9.27535 76.8253 8.47076 76.8253 7.46994C76.8253 6.38039 77.1478 5.53055 77.7922 4.91661C78.4373 4.30522 79.3064 4 80.4012 4C81.4514 4 82.2692 4.29629 82.8536 4.89263C83.4401 5.48717 83.7332 6.31313 83.7332 7.36866C83.7332 8.40399 83.4179 9.23197 82.7865 9.85468C82.1526 10.4773 81.3036 10.7889 80.2355 10.7889ZM80.3092 5.17206C79.7137 5.17206 79.2439 5.37079 78.8985 5.77272C78.5539 6.17464 78.3792 6.72638 78.3792 7.43347C78.3792 8.11222 78.5558 8.64812 78.9057 9.03755C79.2549 9.42878 79.7227 9.62321 80.3092 9.62321C80.9074 9.62321 81.3687 9.43075 81.6893 9.04823C82.0111 8.66322 82.1727 8.11663 82.1727 7.40694C82.1727 6.69368 82.0111 6.14258 81.6893 5.75331C81.3687 5.36447 80.9074 5.17206 80.3092 5.17206ZM91.2642 10.6373H89.7369V7.79834H86.8101V10.6373H85.2808V4.15163H86.8101V6.69804H89.7369V4.15163H91.2642V10.6373ZM99.2297 10.6373H97.7025V7.79834H94.7756V10.6373H93.2463V4.15163H94.7756V6.69804H97.7025V4.15163H99.2297V10.6373ZM106.369 10.6373H104.893V9.62321H104.867C104.403 10.4013 103.724 10.7889 102.826 10.7889C102.166 10.7889 101.648 10.6158 101.274 10.2698C100.9 9.92385 100.715 9.46525 100.715 8.89469C100.715 7.67127 101.445 6.95786 102.905 6.75413L104.9 6.48166C104.9 5.55634 104.446 5.09397 103.534 5.09397C102.735 5.09397 102.013 5.36191 101.371 5.8942V4.60767C102.078 4.20139 102.896 4 103.823 4C105.521 4 106.369 4.80645 106.369 6.41941V10.6373ZM104.9 7.45037L103.489 7.64102C103.053 7.69706 102.724 7.79834 102.502 7.94799C102.28 8.09898 102.17 8.3606 102.17 8.7369C102.17 9.01176 102.273 9.23633 102.475 9.41113C102.679 9.58673 102.952 9.67531 103.292 9.67531C103.756 9.67531 104.141 9.51757 104.443 9.20166C104.748 8.88853 104.9 8.49277 104.9 8.01471V7.45037ZM113.403 10.6373H111.887V8.07064H111.107C110.731 8.07064 110.389 8.39707 110.084 9.04823L109.282 10.6373H107.558L108.62 8.71101C108.922 8.2135 109.285 7.88515 109.708 7.72284C109.175 7.65607 108.767 7.47175 108.485 7.16929C108.203 6.86668 108.062 6.48858 108.062 6.03253C108.062 5.45506 108.302 4.99646 108.781 4.65738C109.26 4.32026 109.903 4.15163 110.713 4.15163H113.403V10.6373ZM111.887 7.05914V5.2147H110.836C110.015 5.2147 109.605 5.5179 109.605 6.12057C109.605 6.74584 110.008 7.05914 110.819 7.05914H111.887ZM125.17 10.6373H123.236L120.625 7.47627H120.598V10.6373H119.068V4.15163H120.598V7.13463H120.625L123.091 4.15163H124.953L122.159 7.24282L125.17 10.6373ZM128.857 10.7889C127.822 10.7889 126.994 10.4856 126.376 9.88042C125.755 9.27535 125.447 8.47076 125.447 7.46994C125.447 6.38039 125.769 5.53055 126.414 4.91661C127.059 4.30522 127.928 4 129.022 4C130.073 4 130.891 4.29629 131.475 4.89263C132.061 5.48717 132.355 6.31313 132.355 7.36866C132.355 8.40399 132.039 9.23197 131.408 9.85468C130.774 10.4773 129.925 10.7889 128.857 10.7889ZM128.931 5.17206C128.335 5.17206 127.865 5.37079 127.52 5.77272C127.175 6.17464 127.001 6.72638 127.001 7.43347C127.001 8.11222 127.177 8.64812 127.527 9.03755C127.876 9.42878 128.344 9.62321 128.931 9.62321C129.529 9.62321 129.99 9.43075 130.311 9.04823C130.633 8.66322 130.794 8.11663 130.794 7.40694C130.794 6.69368 130.633 6.14258 130.311 5.75331C129.99 5.36447 129.529 5.17206 128.931 5.17206ZM141.81 10.6373H140.351V5.44437C140.264 5.70599 140.132 6.09043 139.953 6.60309L138.437 10.6373H137.084L135.543 6.58985C135.461 6.36965 135.326 5.98479 135.143 5.43108V10.6373H133.902V4.15163H135.884L137.427 8.15565C137.535 8.44497 137.675 8.8495 137.846 9.36398L138.266 8.17883L139.776 4.15163H141.81V10.6373ZM149.773 10.6373H148.245V5.27329H145.318V10.6373H143.789V4.15163H149.773V10.6373ZM156.912 10.6373H155.436V9.62321H155.409C154.946 10.4013 154.267 10.7889 153.369 10.7889C152.709 10.7889 152.191 10.6158 151.817 10.2698C151.443 9.92385 151.258 9.46525 151.258 8.89469C151.258 7.67127 151.988 6.95786 153.448 6.75413L155.443 6.48166C155.443 5.55634 154.989 5.09397 154.077 5.09397C153.277 5.09397 152.556 5.36191 151.914 5.8942V4.60767C152.621 4.20139 153.439 4 154.366 4C156.064 4 156.912 4.80645 156.912 6.41941V10.6373ZM155.443 7.45037L154.032 7.64102C153.595 7.69706 153.266 7.79834 153.045 7.94799C152.823 8.09898 152.713 8.3606 152.713 8.7369C152.713 9.01176 152.816 9.23633 153.017 9.41113C153.221 9.58673 153.494 9.67531 153.835 9.67531C154.298 9.67531 154.684 9.51757 154.986 9.20166C155.291 8.88853 155.443 8.49277 155.443 8.01471V7.45037ZM164.752 10.6373H163.224V7.79834H160.298V10.6373H158.768V4.15163H160.298V6.69804H163.224V4.15163H164.752V10.6373ZM172.836 10.6373H171.459V5.88096C171.372 6.0496 171.238 6.28288 171.058 6.58353L168.23 10.6373H166.734V4.15163H168.131V8.81223C168.18 8.70224 168.283 8.51414 168.44 8.24364L171.307 4.15163H172.836V10.6373ZM180 10.6373H178.484V8.07064H177.704C177.329 8.07064 176.986 8.39707 176.682 9.04823L175.879 10.6373H174.155L175.217 8.71101C175.519 8.2135 175.882 7.88515 176.305 7.72284C175.772 7.65607 175.365 7.47175 175.082 7.16929C174.8 6.86668 174.659 6.48858 174.659 6.03253C174.659 5.45506 174.899 4.99646 175.378 4.65738C175.857 4.32026 176.5 4.15163 177.31 4.15163H180V10.6373ZM178.484 7.05914V5.2147H177.433C176.612 5.2147 176.202 5.5179 176.202 6.12057C176.202 6.74584 176.605 7.05914 177.416 7.05914H178.484Z" fill="#FEFEFE"/>
</svg>
