<svg width="183" height="104" viewBox="0 0 183 104" fill="none" xmlns="http://www.w3.org/2000/svg">
<path fill-rule="evenodd" clip-rule="evenodd" d="M104.523 1.34198C105.823 4.23678 106.211 9.96867 103.548 11.6277C103.431 11.3164 103.483 10.8358 103.165 10.7243C102.533 10.7451 102.156 11.1576 101.738 11.4888C100.817 11.2195 100.637 12.2261 99.997 12.4618C98.8109 11.7829 100.213 9.33133 99.2658 8.67405C98.6653 8.25737 98.2185 8.97625 97.9777 9.33436C97.2599 8.53119 96.3149 7.77644 96.3411 6.34599C97.5739 5.79008 99.002 6.98813 100.484 7.11043C101.29 7.17683 102.471 6.7934 102.539 5.99843C102.617 5.08158 101.17 4.52205 100.659 5.23399C100.97 3.23894 102.659 2.01919 104.523 1.34198ZM67.1932 2.57138C66.2715 2.14746 66.7582 0.445027 67.2976 0C67.7677 0.493624 67.4307 2.04668 67.1932 2.57138ZM64.6516 0.55581C63.1686 0.941031 61.2272 3.65679 60.0904 6.81088C59.1241 9.49167 65.1335 11.737 62.8758 14.8727C62.9384 12.3336 59.478 9.95236 59.4638 7.81838C59.4563 6.71224 60.1415 5.6407 60.4037 4.55195C60.6083 3.70294 63.362 -1.20105 64.6516 0.55581ZM73.4603 8.37457C73.0432 8.37388 72.881 8.11851 72.6245 7.95762C71.5605 5.61383 70.0014 3.76485 68.5509 1.80694C68.5793 1.80029 68.5857 1.77224 68.6205 1.77224C68.6489 1.76559 68.6552 1.73724 68.6903 1.73755C68.7133 1.73755 68.7366 1.73755 68.76 1.73755C69.9094 2.53306 70.637 3.89653 71.7194 4.93424C72.5872 5.76662 73.7656 6.56997 73.4603 8.37457ZM90.9384 4.79531C91.9696 5.59749 90.6123 6.64399 89.7546 6.18537C89.5339 6.31578 89.2062 6.51358 89.3021 6.84558C90.2287 6.37189 93.4852 7.78672 95.4633 9.98226C96.3363 10.9517 102.168 15.4421 102.349 15.974C103.269 16.8938 101.03 16.7875 99.8942 15.5453C98.587 14.1155 95.9519 11.9371 92.3275 11.1105C90.6804 10.7349 90.3318 15.997 88.3075 16.3772C87.925 16.5139 85.8408 11.3216 85.1477 11.545C83.0689 12.2149 79.9818 13.4014 78.2258 15.866C77.2056 17.298 75.9109 16.9227 76.545 15.3772C77.5875 12.8369 84.1186 8.76193 78.8595 10.2074C78.2215 10.4684 76.1557 10.7337 77.0206 9.27217C78.5842 8.3208 80.0432 8.67825 81.6423 7.12344C80.4976 6.65816 75.9993 6.91991 75.3235 7.87129C74.994 7.9183 74.687 7.89453 74.4349 7.74895C74.3385 7.4274 74.5366 7.17565 74.6092 6.91511C75.0534 6.71007 75.5361 6.77284 75.9669 6.56756C76.7102 6.21341 79.9712 6.40152 80.9447 6.30798C81.975 6.20893 82.9827 5.54196 84.0795 5.55975C87.8916 6.10528 89.5825 4.12444 90.9384 4.79531ZM67.9244 9.66012C66.6872 9.46235 66.5002 10.5436 65.6262 12.2662C65.9844 12.7465 67.0541 12.2158 67.7502 12.4054C66.7494 13.3064 65.3152 13.7746 64.1639 14.5251C63.9353 11.5975 65.1537 8.43793 62.9106 5.52506C62.9209 5.45407 63.0047 5.4568 63.015 5.3862C64.9765 6.26622 66.2131 7.87001 67.8198 9.10431C67.6282 9.32946 68.0106 9.45687 67.9244 9.66012ZM102.707 11.5018C102.089 11.9196 100.977 11.8589 100.896 12.9612C100.19 12.4936 99.159 12.0788 98.633 11.4324C98.0887 10.7639 99.6942 10.0278 100.409 10.1468C100.617 10.1812 100.609 10.3688 100.792 10.529C101.322 10.9928 102.342 11.0033 102.707 11.5018ZM89.476 14.9071C89.6007 14.9593 89.657 15.4255 89.476 15.4632C89.4376 15.209 89.3826 15.1504 89.476 14.9071ZM101.836 18.9036C101.974 19.1716 102.112 19.4388 102.115 19.8416C102.211 19.9657 102.443 19.954 102.498 20.1197C102.373 20.6278 102.399 21.3928 102.672 21.7878C102.466 22.1715 102.602 22.3566 102.567 22.7258C101.597 22.5969 99.7698 20.8564 99.7123 21.8919C98.4918 21.7678 98.3777 23.0226 97.484 23.5947C96.8173 24.021 96.2832 23.8339 95.2905 24.0464C95.4606 25.7456 97.0242 27.0831 96.579 29.0501C95.9902 27.9813 95.3547 26.9593 94.6989 25.9575C94.4575 25.9599 94.4466 26.1921 94.1764 26.1658C94.1423 26.1191 94.0836 26.0964 94.0372 26.0617C94.2854 25.4335 94.0975 24.9802 93.6195 24.7414C94.5531 23.8079 94.0564 21.2624 95.43 20.8841C94.6904 21.8189 94.8462 23.2526 96.3352 23.3514C97.7518 22.7545 97.8964 20.0629 95.5344 21.0231C96.1425 19.5548 99.6921 20.9421 98.5982 20.78C100.523 22.5658 100.572 19.3375 101.836 18.9036ZM69.1081 19.0772C68.8084 20.315 69.4179 21.3319 69.4563 22.6911C69.4935 24.0144 69.4255 25.3353 69.5954 26.4092C69.8701 28.1455 67.9616 31.6432 69.5954 32.5251C69.9887 32.7373 70.3656 32.5592 70.64 32.8379C71.3748 33.5839 70.4306 36.6167 70.9882 36.973C71.4245 37.0668 71.6011 36.6058 71.8933 36.8687C71.657 37.1975 71.1803 37.8944 70.6748 37.911C70.2192 37.9261 70.0934 37.1257 69.665 37.0771C69.3661 37.0432 69.037 37.2624 68.76 37.2163C68.118 37.1091 67.9825 36.3642 67.6458 36.0693C67.5638 33.8279 68.4398 32.1589 68.0983 29.8842C67.8975 28.5456 67.8829 27.1335 67.7153 25.8533C67.6385 25.2668 67.4948 24.3078 66.9842 24.1505C67.5206 22.246 67.6182 19.8334 69.1081 19.0772ZM61.7617 20.2238C60.2519 20.8518 56.4478 21.7826 53.4808 24.0578C51.7589 25.3778 50.2173 27.4146 49.4577 29.0881C49.3037 29.4275 49.3709 28.4393 49.0699 28.7321C50.8553 24.1041 54.5072 21.0855 61.7617 20.2238ZM80.9807 23.8378C81.1334 23.961 81.5603 23.9625 81.7466 24.1505C81.8659 25.1741 81.7714 26.8431 81.5028 27.695C80.9825 27.0329 81.1114 25.7229 80.5281 25.1236C80.5859 26.4582 80.4392 27.4372 80.0756 28.3898C79.7196 28.0154 79.6227 27.3823 79.0658 27.2083C78.5896 26.3159 79.7325 25.4265 79.24 24.5328C79.0202 24.4987 79.0461 24.7104 78.8567 24.7063C77.7148 23.7704 76.2373 24.1098 75.1661 22.3436C74.232 23.8293 76.6294 24.2173 77.2901 25.0192C75.9364 24.6358 74.2662 23.9488 74.6092 22.2047C74.2705 22.2235 74.0472 22.5109 73.669 22.3783C73.9367 21.4819 75.3619 21.5728 75.4796 20.6408C76.0946 19.991 77.3987 20.5367 78.3694 20.328C79.6572 21.0816 80.5209 22.2582 80.9807 23.8378ZM75.8625 21.2664C75.8513 22.8189 77.8413 23.5259 79.031 22.8994C80.0953 21.0267 76.7694 20.3612 75.8625 21.2664ZM96.3699 21.1275C96.4159 21.347 96.2725 21.3778 96.2307 21.5098C96.3239 21.6021 96.4437 21.6676 96.4047 21.8919C96.298 22.0384 95.9425 22.0082 95.7431 21.9613C95.4061 21.5118 95.8738 20.7434 96.3699 21.1275ZM78.3346 22.4477C78.0708 22.4447 78.1322 22.1169 77.9865 21.996C77.8249 21.997 77.897 22.2312 77.7774 22.2742C76.9131 21.2546 79.1689 21.2012 78.3346 22.4477ZM101.036 22.7953C101.004 22.8107 100.973 22.8258 100.966 22.8647C100.699 22.7373 100.409 22.6325 100.235 22.413C100.335 21.6622 101.038 22.3961 101.036 22.7953ZM74.4492 21.7579C74.523 22.0695 74.811 22.3427 74.7626 22.6612C74.3784 22.5353 73.5244 22.6847 73.0912 22.8351C73.3756 22.3288 73.8421 21.8267 74.4492 21.7579ZM61.1697 22.6216C61.7087 23.6896 55.6313 25.4572 58.6513 26.3101C60.2119 26.7513 60.8197 27.7962 60.9612 28.6863C61.8594 34.3281 59.3028 32.2965 61.6504 40.49C61.5689 40.49 62.0509 41.8501 61.9695 41.8501C59.1168 34.1452 59.9981 30.3063 52.9704 29.9477C50.6687 29.8299 50.957 28.5021 52.0085 26.9064C54.1451 23.6641 59.5385 22.6649 61.1697 22.6216ZM71.5518 23.3705C72.0881 23.7315 71.6677 24.3018 71.802 24.6705C72.3308 26.3042 73.0443 27.7534 74.337 28.583C76.0582 27.9909 75.5346 29.6627 74.163 29.5557C71.7675 28.9036 70.3139 25.498 71.5518 23.3705ZM73.3075 15.3727C72.9933 16.1175 73.4101 19.9397 73.7949 20.5505C74.0962 20.8869 73.9564 21.6682 74.9598 21.8143C73.9071 21.702 73.588 22.2699 73.1708 22.792C72.9433 22.7409 73.0526 22.6117 72.8547 22.5311C72.3153 22.8792 72.161 23.6111 71.8359 24.1726C71.6861 24.8199 71.4753 25.4063 71.2768 26.0049C70.5568 25.5587 71.4404 24.3866 71.3116 23.746C71.3342 23.7487 71.3567 23.7518 71.3778 23.7554C71.6422 21.9726 72.5788 20.4165 71.671 18.7088C71.7748 17.8595 71.4617 17.4798 71.1119 17.2768C69.0597 17.9737 66.5211 20.3373 65.2917 18.4607C66.7158 17.7457 71.9266 14.8072 73.3278 15.084C73.3067 15.1816 73.2888 15.2784 73.2749 15.3738L73.3075 15.3727ZM49.8192 34.1929C47.8599 33.4991 48.6213 30.37 49.1229 28.5984C49.3431 28.6566 49.3349 28.9429 49.4363 29.1195C48.8382 30.8984 49.1885 32.8919 49.8192 34.1929ZM80.1675 27.3847C80.1775 28.5767 79.7053 29.5872 79.1926 30.3734C79.1118 30.031 79.4648 28.9643 79.6451 28.7052C79.9213 28.3669 79.6854 27.5176 80.1675 27.3847ZM106.084 33.1156C105.104 33.8961 104.72 36.0083 102.916 35.4093C104.551 34.4499 103.598 33.7506 104.173 32.8626C103.07 32.0928 101.903 33.087 101.593 33.9499C100.992 33.6253 101.099 32.312 101.662 32.0387C103.404 32.1727 107.833 30.2351 106.084 33.1156ZM77.5339 31.6565C77.6026 33.135 75.8083 33.7052 74.6809 34.0887C73.3617 33.57 70.8167 33.7068 71.9263 32.3512C75.2282 33.1658 77.2637 31.3534 77.5339 31.6565ZM83.2438 30.4053C83.1276 30.7607 83.5998 32.0502 83.8357 32.3862C83.549 32.6558 83.3179 32.9813 82.7564 32.9768C82.6351 32.7809 82.4678 32.6302 82.2174 32.5629C81.8728 33.4746 80.9447 33.804 80.5947 34.7101C80.1712 33.8333 81.0775 32.6154 81.6187 32.0647L81.5727 32.0384C81.6045 32.0121 81.9723 31.7054 81.9763 31.7263C82.4561 31.3661 82.9271 30.9974 83.0698 30.3012C83.2071 30.2565 83.1539 30.4024 83.2438 30.4053ZM49.3362 28.7397C49.5442 30.2324 49.409 32.8107 49.8099 34.4668C55.0553 48.5469 70.8844 51.7686 77.19 65.5039C67.9625 56.4894 47.7891 42.0529 48.7093 31.867C48.6842 31.0765 48.7562 29.6034 49.197 28.8439C49.2245 28.7965 49.2414 28.7373 49.3362 28.7397ZM82.8608 34.6796C83.5732 34.8275 84.0085 35.5934 84.7061 35.7915C86.0683 36.1777 87.0381 36.0331 87.4916 37.2163C87.7896 37.9931 87.6834 38.6969 87.805 39.718C87.8147 39.7741 87.772 39.778 87.7702 39.8224C87.7469 39.8224 87.7236 39.8224 87.7004 39.8224C86.6809 39.1718 86.948 36.5789 84.8455 37.7027C84.187 36.7544 82.0842 36.2945 82.8608 34.6796ZM92.7489 34.8185C92.2791 35.3456 91.4432 35.5074 91.1127 36.1738C91.1229 36.302 91.2657 36.2987 91.217 36.4865C89.0898 36.6891 87.6205 34.958 85.4373 35.1312C86.1007 34.5899 87.647 34.9818 88.1184 35.4093C89.9447 36.0889 91.5964 35.2535 92.7489 34.8185ZM74.8428 36.392C76.0891 35.9799 77.2534 37.1942 81.4883 37.8029C81.4617 38.2718 75.407 37.3289 74.3406 37.2721C73.1666 36.1659 74.4329 34.5205 74.8232 33.4206C75.587 33.7413 74.2456 35.9044 74.8428 36.392ZM62.0827 42.1236C62.6746 43.4714 64.2904 44.3137 65.8072 43.4016C64.746 43.7948 62.8286 43.5055 62.0827 42.1236ZM88.8147 47.0152C88.9061 47.1672 88.8695 47.447 88.9539 47.6061C88.7246 47.6949 88.7802 47.1198 88.8147 47.0152ZM144 58.4132C142.307 58.485 140.557 59.0572 138.743 58.5868C137.707 58.3184 136.666 57.7662 135.853 57.162C134.936 56.4809 133.66 55.301 132.615 55.7025C133.136 57.3601 134.925 57.9377 135.539 59.386C133.606 59.8956 131.654 59.5475 130.7 58.3782C128.369 55.5221 126.34 52.2233 123.284 49.7953C122.266 48.9868 121.192 48.0285 120.081 47.4322C120.265 47.178 120.508 47.0799 120.777 47.05C124.118 46.681 126.091 49.7618 128.75 50.3862C130.936 51.1461 132.407 52.7378 134.495 53.722C137.729 55.2467 141.336 56.3913 144 58.4132ZM41.846 47.1892C41.8757 47.1828 41.879 47.2027 41.8812 47.2239C42.1167 47.348 41.8306 47.748 41.7764 47.9189C41.8684 49.2832 41.4376 50.5094 41.6024 51.9845C42.2613 57.8864 46.5165 62.1407 44.7706 68.9767C44.7223 69.5608 44.7422 70.0774 44.5967 70.5059C44.6246 65.2266 38.4967 57.3876 40.3489 51.2547C40.5253 50.0046 41.3575 48.4512 41.7416 47.2933C41.7613 47.2432 41.7961 47.2085 41.846 47.1892ZM124.889 56.3233C126.164 57.832 126.254 60.6301 127.502 61.8607C127.365 61.7346 127.161 61.5244 126.902 61.2497C127.042 61.4487 127.182 61.6528 127.319 61.8644C122.734 61.4433 118.746 57.4301 114.761 55.3914C113.336 54.6719 111.293 54.3986 107.735 51.8912C107.948 48.4391 104.955 49.0946 104.978 49.0946C105.423 43.5692 110.872 53.9964 115.321 53.9971C120.008 53.998 121.168 57.7444 124.135 58.5025C120.18 54.331 117.01 48.0463 113.785 48.1674C110.4 46.0047 113.639 46.2998 110.137 43.5957C113.53 43.5638 125.125 56.5174 124.889 56.3233ZM102.011 51.3242C111.542 61.2799 104.552 70.7993 99.6775 72C103.515 67.7816 108.073 61.417 102.011 51.3242ZM109.009 58.5868C110.361 59.2794 109.823 61.1869 109.949 62.5482C110.009 63.1976 110.422 63.6856 110.192 64.4247C109.689 66.0435 108.255 67.2014 107.651 68.6986C107.514 67.0888 109.035 66.0879 109.183 64.5288C109.242 63.9084 108.832 63.4244 108.8 62.7913C108.766 62.1409 109.207 61.4429 109.252 60.6371C109.297 59.8491 109.003 59.2263 108.939 58.5868C108.962 58.5868 108.985 58.5868 109.009 58.5868ZM45.6413 37.6333C47.2761 40.4214 44.3242 42.8748 50.9676 52.0126C54.7338 55.5773 59.2169 59.1822 62.5567 63.3721C63.7504 65.1335 67.1076 67.5912 69.7879 68.9168C66.8051 68.2128 64.9332 66.3452 62.3652 64.9835C60.6034 62.7183 56.2149 58.9301 51.9849 56.1071C50.4802 55.0801 49.298 53.7585 48.3615 52.1844C48.3618 52.2103 48.3603 52.2363 48.357 52.2626C47.7513 51.4985 47.1626 50.7167 46.6804 49.8291C46.7348 50.9292 46.7745 52.0424 46.8749 53.1375C47.2161 56.8592 47.8399 60.1338 49.3815 62.624C46.9766 60.3995 45.1515 56.6905 45.0992 51.852C45.0414 46.498 44.4966 43.0448 45.6413 37.6333ZM65.9929 46.0848C68.2602 47.2701 69.5797 49.5549 71.4931 51.2527C71.4931 51.2527 73.6049 52.5854 74.1902 53.3157C74.776 54.0463 77.5085 56.5776 78.2403 57.7463C80.9897 62.137 86.3642 62.586 83.2764 56.3509C82.8499 55.4897 83.4854 55.6368 83.8237 56.3934C84.2227 57.2855 85.1448 58.1603 85.6569 58.5252C86.6814 59.2558 88.3898 61.4972 88.3898 61.4972C89.5021 63.6883 89.3073 65.2256 91.4681 63.2931C94.3226 60.7403 94.2654 58.9548 96.0114 59.2187C97.5621 60.0777 98.1595 62.6165 98.5393 65.7344C95.8115 62.2554 96.7181 61.0888 93.2201 63.8353C92.4609 64.435 92.1696 64.8374 91.4102 65.5858C89.7894 67.1836 89.7519 66.836 88.5277 65.3074C87.4232 63.9286 86.0531 62.9739 84.3395 62.5688C80.5103 61.7578 79.5011 61.9589 76.9715 59.0137C74.949 56.6584 74.1183 54.709 71.6552 52.6354C69.1701 50.5435 68.9146 49.4034 65.9929 46.0848ZM62.949 15.3306C63.7679 20.918 65.8311 16.8306 65.4644 26.3086L66.031 32.4605L66.1847 34.714C66.8843 38.3811 68.9163 39.7532 72.4142 41.0632C77.4519 44.4152 81.9672 47.5681 87.9635 42.9436C88.4118 42.5946 88.6078 40.9875 87.8794 40.1355C89.1436 40.1796 90.1839 39.6645 91.0001 38.5906C90.0112 40.8332 89.6321 41.4947 90.1286 42.5227C91.7924 45.9688 95.3417 45.7793 97.8371 44.1543C98.9712 43.4158 99.4876 42.3808 100.213 41.2556C99.7919 43.3576 98.9697 43.9755 97.5482 44.9456C95.8242 46.1222 96.2922 47.0282 96.2074 49.1848C95.964 51.8595 95.4252 51.5093 93.958 49.7283C93.3491 48.9892 92.7244 48.488 91.6738 48.0046C90.3645 47.4023 91.1299 47.4416 90.1204 48.5749C88.3586 50.5534 85.6726 49.3512 84.7723 48.0041C82.479 50.2122 81.1038 49.1567 80.1355 51.4411C79.6857 52.5026 78.4817 51.5651 78.2019 49.4547C77.5875 44.824 74.3963 44.9966 71.7838 43.3487C69.4615 41.8839 67.0486 40.9724 65.0914 38.0426C63.4355 35.5633 65.2079 31.1158 64.2392 26.3739C63.7528 23.9915 64.7799 22.459 63.6433 19.8975C62.8734 18.1624 62.3613 16.1147 62.949 15.3306ZM91.0779 45.4169C89.48 46.1732 87.4598 45.8067 85.7854 45.8339C87.1763 44.8433 89.6009 44.387 91.0779 45.4169ZM101.877 39.5386C102.376 39.2219 102.846 38.6764 103.274 37.8004C103.818 36.688 103.546 36.6786 104.836 36.7571C106.295 36.8455 106.211 36.9594 106.966 35.6206C107.352 34.938 107.737 34.1092 107.737 33.5248C107.737 32.3561 107.552 30.0334 107.352 28.5498C106.836 24.7043 105.779 29.0609 105.08 28.1503C104.518 27.4191 105.134 26.2407 104.913 25.0259C104.628 23.464 103.985 22.2216 104.536 22.5253C105.422 23.0135 105.314 22.4623 105.482 21.971C105.236 21.5157 104.99 21.0601 104.745 20.6049C105.62 19.9862 105.65 19.3027 104.835 18.5539C105.12 16.9873 105.625 17.1162 106.569 18.4471C107.112 19.213 107.263 20.6625 107.247 21.7718C107.233 22.7258 107.432 23.602 106.92 24.5104C106.552 25.1641 105.646 25.7845 107.196 25.4328C107.97 25.2574 108.672 25.1755 109.146 23.5298C109.127 22.7473 108.63 22.6177 108.808 21.4055C108.987 20.1822 109.821 20.8383 110.07 21.3209C110.902 22.935 110.941 25.1563 109.848 28.2473C109.414 29.4763 109.608 33.8973 108.504 35.4461C106.757 37.8983 106.913 40.5337 105.505 41.89C103.378 41.6475 102.931 41.7834 101.95 40.8981C100.777 39.8393 100.871 40.1777 101.877 39.5386ZM76.0307 39.6691C75.8177 41.0745 76.9319 41.3845 79.299 41.6695C81.4804 41.851 84.1525 41.4292 85.5262 40.3861C85.5262 40.3861 84.1512 40.7644 83.4198 40.7644C81.6211 40.7644 80.0931 41.0962 78.4725 40.6898C77.5085 40.448 76.7313 40.2729 76.0307 39.6691ZM100.476 37.4445C101.077 38.7332 100.096 39.3436 97.9049 40.2826C95.8629 41.0699 93.1939 40.903 91.8078 39.8423C92.839 39.7554 95.7743 40.6638 98.4212 39.1099C99.278 38.6072 99.9744 38.2207 100.476 37.4445ZM101.076 32.3869C100.504 30.0249 100.954 29.0301 101.661 26.6785C102.081 23.8061 102.581 21.8545 101.812 19.0684C101.326 21.1133 100.72 20.6453 100.054 21.1344C100.164 21.565 100.274 21.9952 100.385 22.4254C100.179 23.3439 99.4788 23.7532 98.5538 24.7315C99.5454 24.0011 99.9456 24.4027 100.666 23.2868C100.998 22.7723 101.775 22.6823 101.672 23.7849C101.178 29.0428 99.2964 29.239 101.076 32.3869Z" fill="#313130"/>
<path fill-rule="evenodd" clip-rule="evenodd" d="M11.8866 79.8058C11.8866 80.2716 11.6572 80.5061 11.1983 80.5061H6.90269V89.054C6.90269 89.5229 6.67596 89.7571 6.21978 89.7571H5.64719C5.19101 89.7571 4.96456 89.5229 4.96456 89.054V80.5061H0.68867C0.229764 80.5061 0 80.2716 0 79.8058V79.5862C0 79.1231 0.229764 78.892 0.68867 78.892H11.1983C11.6572 78.892 11.8866 79.1231 11.8866 79.5862V79.8058ZM27.3012 88.7476C27.3181 88.8316 27.3266 88.921 27.3266 89.0108C27.3266 89.3059 27.2304 89.5461 27.0376 89.7282C26.845 89.9106 26.604 90 26.3123 90C26.0091 90 25.737 89.8149 25.4934 89.4417L23.7705 86.8934H15.5817L13.8616 89.4534C13.8078 89.5605 13.754 89.6386 13.7059 89.6819C13.5841 89.8006 13.4368 89.8612 13.264 89.8612C12.8927 89.8612 12.6206 89.7253 12.4422 89.4534C12.3658 89.335 12.3258 89.2219 12.3258 89.1149C12.3258 89.0426 12.3374 88.9819 12.36 88.9356L18.4945 79.3547C18.7609 78.9438 19.1548 78.7472 19.6817 78.7704C20.3051 78.7935 20.6793 78.9874 20.8011 79.3547L27.3012 88.7476ZM22.6201 85.2619L19.6763 80.8299L16.7178 85.2619H22.6201ZM41.9759 80.0259C41.9759 79.5226 41.8514 79.1812 41.5963 79.0019C41.4122 78.8717 41.1116 78.805 40.6896 78.805C40.6243 78.805 40.4828 78.892 40.2673 79.0595C40.2619 79.0654 40.1627 79.1494 39.9698 79.3142L30.7469 87.1797V79.5602C30.7469 79.0913 30.5171 78.8572 30.0555 78.8572H29.4829C29.0297 78.8572 28.803 79.0913 28.803 79.5602V89.0137C28.803 89.2565 28.9702 89.4766 29.3016 89.6732C29.4518 89.763 29.6162 89.8093 29.8004 89.8093C30.0157 89.8093 30.2819 89.7137 30.6052 89.5198C30.7581 89.4303 30.8942 89.335 31.0103 89.2334L40.0352 81.4608V89.034C40.0352 89.4967 40.2646 89.7313 40.7234 89.7313H41.2876C41.7465 89.7313 41.9759 89.4998 41.9759 89.034V80.0259ZM38.5416 78.1658C38.5416 78.6256 38.3123 78.8572 37.8503 78.8572H32.9457C32.4867 78.8572 32.257 78.6256 32.257 78.1658V77.6914C32.257 77.2316 32.4867 77 32.9457 77H37.8503C38.3123 77 38.5416 77.2316 38.5416 77.6914V78.1658ZM54.4294 79.5947C54.4294 79.1262 54.1999 78.892 53.7407 78.892H49.5558C48.3402 78.892 47.5239 78.9352 47.1161 79.0192C45.2119 79.4154 44.2599 80.3237 44.2599 81.7472V89.0627C44.2599 89.5257 44.4867 89.7571 44.9398 89.7571H45.5124C45.974 89.7571 46.2037 89.5257 46.2037 89.0627V81.7472C46.2037 81.1657 46.6542 80.7895 47.5551 80.6187C47.9152 80.5524 48.5781 80.5176 49.5386 80.5176H53.7407C54.1999 80.5176 54.4294 80.2833 54.4294 79.8148V79.5947ZM67.846 84.3014L67.829 84.5298C67.7952 84.9724 67.5684 85.1924 67.1461 85.1924H57.8041V86.9773C57.8041 87.7436 58.6342 88.1257 60.2948 88.1257H67.1461C67.6023 88.1257 67.829 88.3599 67.829 88.8316V89.0514C67.829 89.5229 67.6023 89.7571 67.1461 89.7571H60.2068C59.9916 89.7571 59.7222 89.7398 59.4021 89.705C57.0447 89.4562 55.8659 88.571 55.8659 87.0436V81.6633C55.8659 80.645 56.444 79.8898 57.6 79.3922C58.3764 79.0595 59.3002 78.892 60.374 78.892H62.2668C62.7203 78.892 62.947 79.1231 62.947 79.5862V79.8058C62.947 80.2716 62.7203 80.5061 62.2668 80.5061H60.3003L59.7591 80.5407C58.4416 80.6246 57.7841 80.9978 57.7841 81.6601V83.5607H67.1546C67.6477 83.5607 67.8771 83.8066 67.846 84.3014ZM83.0733 83.0055C83.0733 84.0845 82.5404 84.8653 81.478 85.3513C80.7045 85.7072 79.7126 85.8866 78.5054 85.8866H71.7675V89.054C71.7675 89.5229 71.5381 89.7571 71.0789 89.7571H70.5093C70.0562 89.7571 69.8294 89.5229 69.8294 89.054V79.5862C69.8294 79.1231 70.0562 78.892 70.5093 78.892H78.5991C79.6391 78.892 80.5627 79.0451 81.3702 79.3488C82.5065 79.7799 83.0733 80.4336 83.0733 81.316V83.0055ZM81.1521 82.9329V81.4463C81.1521 80.8184 80.3078 80.5061 78.6161 80.5061H71.7675V84.2551H78.6246C79.4181 84.2551 80.0046 84.1798 80.387 84.0264C80.897 83.8212 81.1521 83.4567 81.1521 82.9329ZM91.9423 85.4468C91.9423 85.9125 91.7128 86.1471 91.2536 86.1471H85.5157C85.0568 86.1471 84.8274 85.9125 84.8274 85.4468V84.9696C84.8274 84.5038 85.0568 84.2724 85.5157 84.2724H91.2536C91.7128 84.2724 91.9423 84.5038 91.9423 84.9696V85.4468ZM105.696 79.8058C105.696 80.2716 105.466 80.5061 105.008 80.5061H98.0968C96.4193 80.5061 95.5806 80.8475 95.5806 81.5329V86.9134C95.5806 87.4285 95.9515 87.7872 96.694 87.9895C97.0199 88.0794 97.5779 88.1257 98.3716 88.1257H104.965C105.418 88.1257 105.645 88.3599 105.645 88.8316V89.0514C105.645 89.5229 105.418 89.7571 104.965 89.7571H98.3742C97.5779 89.7571 97.0142 89.7339 96.6883 89.6905C96.1187 89.6096 95.5918 89.4389 95.1045 89.1729C94.1298 88.6405 93.6422 87.9001 93.6422 86.951V81.5444C93.6422 80.8675 93.9511 80.2833 94.5717 79.7972C95.0987 79.3865 95.7164 79.1176 96.4304 78.9932C96.8243 78.9265 97.3685 78.892 98.0683 78.892H105.008C105.466 78.892 105.696 79.1231 105.696 79.5862V79.8058ZM120.98 80.0259C120.98 79.5226 120.855 79.1812 120.6 78.9988C120.416 78.8688 120.116 78.805 119.694 78.805C119.628 78.805 119.487 78.8889 119.271 79.0595C119.266 79.0654 119.167 79.1494 118.974 79.3142L109.751 87.1797V79.5688C109.751 79.1 109.521 78.8657 109.059 78.8657H108.487C108.034 78.8657 107.807 79.1 107.807 79.5688V89.0137C107.807 89.2565 107.974 89.4766 108.306 89.6732C108.456 89.763 108.62 89.8093 108.804 89.8093C109.02 89.8093 109.286 89.7137 109.609 89.5198C109.762 89.4303 109.898 89.335 110.014 89.2334L119.039 81.4608V89.034C119.039 89.4967 119.269 89.7313 119.727 89.7313H120.292C120.75 89.7313 120.98 89.4998 120.98 89.034V80.0259ZM136.627 86.3119V86.9887C136.627 88.2442 135.955 89.0976 134.609 89.543C134.453 89.5923 134.232 89.63 133.946 89.6531L133.164 89.7222C132.866 89.7454 132.6 89.7571 132.368 89.7571H124.131C123.677 89.7571 123.451 89.5229 123.451 89.054V81.6487C123.451 80.6536 124.052 79.8956 125.253 79.375C126.021 79.0422 126.945 78.8743 128.024 78.8743H129.917C130.37 78.8743 130.597 79.1059 130.597 79.5688V79.7885C130.597 80.2542 130.37 80.4885 129.917 80.4885H127.953L127.415 80.5234C126.097 80.6074 125.44 80.9832 125.44 81.646V83.5607H132.246C133.955 83.5607 135.187 83.9369 135.947 84.6859C136.4 85.1375 136.627 85.6783 136.627 86.3119ZM134.688 86.3495C134.688 85.577 133.884 85.1924 132.277 85.1924H125.389V88.1257H132.147C133.68 88.1257 134.527 87.8275 134.688 87.2288V86.3495ZM152.035 80.0259C152.035 79.5226 151.911 79.1812 151.655 78.9988C151.471 78.8688 151.171 78.805 150.749 78.805C150.684 78.805 150.542 78.8889 150.327 79.0595C150.321 79.0654 150.222 79.1494 150.029 79.3142L140.806 87.1797V79.5688C140.806 79.1 140.576 78.8657 140.115 78.8657H139.542C139.089 78.8657 138.862 79.1 138.862 79.5688V89.0137C138.862 89.2565 139.029 89.4766 139.361 89.6732C139.511 89.763 139.675 89.8093 139.859 89.8093C140.075 89.8093 140.341 89.7137 140.664 89.5198C140.817 89.4303 140.953 89.335 141.069 89.2334L150.094 81.4608V89.034C150.094 89.4967 150.324 89.7313 150.783 89.7313H151.347C151.806 89.7313 152.035 89.4998 152.035 89.034V80.0259ZM167.563 83.0055C167.563 84.0845 167.03 84.8653 165.968 85.3513C165.194 85.7072 164.202 85.8866 162.995 85.8866H156.257V89.054C156.257 89.5229 156.028 89.7571 155.569 89.7571H154.999C154.546 89.7571 154.319 89.5229 154.319 89.054V79.5862C154.319 79.1231 154.546 78.892 154.999 78.892H163.089C164.129 78.892 165.052 79.0451 165.86 79.3488C166.996 79.7799 167.563 80.4336 167.563 81.316V83.0055ZM165.642 82.9329V81.4463C165.642 80.8184 164.798 80.5061 163.106 80.5061H156.257V84.2551H163.114C163.908 84.2551 164.494 84.1798 164.877 84.0264C165.387 83.8212 165.642 83.4567 165.642 82.9329ZM183 85.6465C183 84.5675 182.467 83.7835 181.405 83.2974C180.631 82.9419 179.639 82.7622 178.435 82.7622H171.703V79.5947C171.703 79.1262 171.473 78.892 171.012 78.892H170.439C169.986 78.892 169.759 79.1262 169.759 79.5947V89.0627C169.759 89.5257 169.986 89.7571 170.439 89.7571H178.526C179.35 89.7571 179.835 89.7513 179.977 89.7398C180.475 89.6991 180.917 89.5892 181.297 89.4099C181.858 89.1439 182.255 88.8865 182.493 88.6378C182.83 88.2878 183 87.8538 183 87.3331V85.6465ZM181.073 85.7158V87.1998C181.073 87.8275 180.229 88.1429 178.543 88.1429H171.703V84.394H178.551C179.342 84.394 179.929 84.4691 180.311 84.6224C180.818 84.8248 181.073 85.1924 181.073 85.7158Z" fill="#313130"/>
<path fill-rule="evenodd" clip-rule="evenodd" d="M34.0142 97.4347C34.2389 97.4347 34.3524 97.5604 34.3524 97.814C34.3524 98.0725 34.2389 98.203 34.0142 98.203H32.2439H31.5047C30.4551 98.203 29.9315 98.4782 29.9315 99.0315V100.3V101.065V103.51C29.9315 103.778 29.7785 103.913 29.475 103.913C29.1575 103.913 29 103.778 29 103.51V102.256V99.0483V98.9493C29 98.0145 29.6951 97.512 31.0831 97.4421H31.1363H31.1572C31.1989 97.4421 31.2406 97.4396 31.2823 97.4372C31.3263 97.4347 31.3704 97.4347 31.4144 97.4347H31.4283H32.2439H34.0142ZM42.0776 99.0338C42.0776 98.5387 41.6026 98.2899 40.655 98.2899H36.5861V100.812H40.5994C41.5841 100.812 42.0776 100.551 42.0776 100.031V99.0338ZM43.0091 100.08C43.0091 101.08 42.175 101.58 40.5067 101.58H36.5861V103.594C36.5861 103.865 36.4309 104 36.1181 104C35.8099 104 35.6547 103.865 35.6547 103.597V97.8406C35.6547 97.628 35.7543 97.5217 35.9536 97.5217H40.553C42.1912 97.5217 43.0091 97.9976 43.0091 98.9493V100.08ZM51.5686 100.802V102.3C51.5686 103.365 50.7645 103.899 49.1564 103.899H48.0836C47.8218 103.899 47.6897 103.768 47.6897 103.51C47.6897 103.256 47.8218 103.13 48.0836 103.13H48.9826C49.5503 103.13 49.9743 103.051 50.257 102.894C50.5374 102.734 50.6787 102.507 50.6787 102.21V101.87H46.8046C45.0806 101.87 44.2141 101.343 44.2001 100.292V100.278V100.094V97.9107C44.2001 97.6522 44.3577 97.5217 44.6705 97.5217C44.9787 97.5217 45.1316 97.6522 45.1316 97.9107V100.101V100.266C45.1316 100.824 45.6391 101.102 46.6517 101.102H50.6787V100.812V97.9107C50.6787 97.6522 50.827 97.5217 51.1236 97.5217C51.4202 97.5217 51.5686 97.6522 51.5686 97.9107V100.802ZM60.6144 103.56C60.6144 103.824 60.4638 103.957 60.1626 103.957C59.8428 103.957 59.6829 103.824 59.6829 103.56V99.3285C59.6829 98.616 59.0318 98.2609 57.7273 98.2609H56.0614C54.8611 98.2609 54.261 98.6184 54.261 99.3357V103.56C54.261 103.824 54.1034 103.957 53.7882 103.957C53.4824 103.957 53.3294 103.824 53.3294 103.56V99.2609C53.3294 98.0822 54.2887 97.4927 56.205 97.4927H57.5883C59.6065 97.4927 60.6144 98.0822 60.6144 99.2609V103.56ZM69.6372 103.56C69.6372 103.824 69.4866 103.957 69.1854 103.957C68.8656 103.957 68.7057 103.824 68.7057 103.56V99.3285C68.7057 98.616 68.0546 98.2609 66.7501 98.2609H65.0841C63.8839 98.2609 63.2837 98.6184 63.2837 99.3357V103.56C63.2837 103.824 63.1262 103.957 62.811 103.957C62.5051 103.957 62.3522 103.824 62.3522 103.56V99.2609C62.3522 98.0822 63.3115 97.4927 65.2278 97.4927H66.611C68.6293 97.4927 69.6372 98.0822 69.6372 99.2609V103.56ZM73.2032 101.435H76.936L75.0823 98.3696L73.2032 101.435ZM77.4458 102.203H72.7212L71.6948 103.795C71.6508 103.86 71.5975 103.908 71.5326 103.94C71.47 103.971 71.4075 103.986 71.3449 103.986C71.2267 103.986 71.1202 103.944 71.0228 103.865C70.9255 103.785 70.8791 103.684 70.8791 103.56C70.8791 103.481 70.9024 103.401 70.9533 103.321L74.4892 97.8092C74.5657 97.6933 74.6537 97.6063 74.7557 97.5483C74.8576 97.4927 74.9619 97.4637 75.0708 97.4637C75.1819 97.4637 75.2886 97.4927 75.3905 97.5483C75.4925 97.6038 75.5805 97.6908 75.657 97.8092L79.2068 103.302C79.2393 103.348 79.2601 103.391 79.2717 103.435C79.2833 103.476 79.2878 103.517 79.2878 103.556C79.2878 103.676 79.2415 103.775 79.1511 103.848C79.0585 103.92 78.9519 103.957 78.836 103.957C78.7689 103.957 78.7016 103.942 78.6367 103.911C78.5719 103.882 78.514 103.831 78.463 103.761L77.4458 102.203ZM85.5486 100.688L90.1087 103.193C90.1875 103.237 90.2431 103.287 90.2802 103.35C90.3149 103.413 90.3335 103.478 90.3335 103.544C90.3335 103.652 90.2964 103.746 90.2222 103.831C90.1481 103.915 90.0531 103.957 89.9396 103.957C89.8631 103.957 89.7889 103.935 89.7171 103.894L84.842 101.159V103.599C84.842 103.867 84.696 104 84.404 104C84.1028 104 83.9521 103.865 83.9521 103.597V97.8889C83.9521 97.6256 84.1051 97.4927 84.4109 97.4927C84.6983 97.4927 84.842 97.6256 84.842 97.8889V100.261L89.4923 97.541C89.5317 97.5193 89.5734 97.5024 89.6152 97.4927C89.6545 97.4831 89.694 97.4783 89.7287 97.4783C89.8515 97.4783 89.9558 97.5217 90.0415 97.6087C90.1272 97.698 90.1713 97.7947 90.1713 97.9034C90.1713 97.9662 90.1551 98.0242 90.1226 98.0822C90.0925 98.1401 90.0369 98.1884 89.9604 98.2319L85.5486 100.688ZM98.0077 99.2464C98.0077 98.6088 97.5118 98.2899 96.5201 98.2899H94.3073C93.2531 98.2899 92.7247 98.6088 92.7247 99.2464V102.261C92.7247 102.879 93.2531 103.188 94.3073 103.188H96.4575C97.491 103.188 98.0077 102.879 98.0077 102.261V99.2464ZM98.9391 102.271C98.9391 103.394 98.0354 103.957 96.2258 103.957H94.5088C92.6992 103.957 91.7932 103.399 91.7932 102.285V99.2126C91.7932 98.0845 92.6992 97.5217 94.5088 97.5217H96.2258C98.0354 97.5217 98.9391 98.0845 98.9391 99.2126V102.271ZM110.689 103.597C110.689 103.865 110.525 104 110.198 104C109.904 104 109.758 103.865 109.758 103.597V98.9879L106.338 103.667C106.18 103.889 105.972 104 105.719 104C105.573 104 105.448 103.971 105.344 103.915C105.239 103.858 105.149 103.775 105.073 103.667L101.597 99.0025V103.597C101.597 103.865 101.446 104 101.143 104C100.825 104 100.665 103.865 100.665 103.597V98.1087C100.665 97.7464 100.839 97.5653 101.187 97.5653C101.439 97.5653 101.648 97.6764 101.815 97.8985L105.726 103.058L109.561 97.8406C109.626 97.7464 109.709 97.6764 109.811 97.6328C109.913 97.587 110.024 97.5653 110.147 97.5653C110.508 97.5653 110.689 97.7537 110.689 98.1304V103.597ZM119.7 103.56C119.7 103.824 119.55 103.957 119.249 103.957C118.929 103.957 118.769 103.824 118.769 103.56V99.3285C118.769 98.616 118.118 98.2609 116.813 98.2609H115.147C113.947 98.2609 113.347 98.6184 113.347 99.3357V103.56C113.347 103.824 113.189 103.957 112.874 103.957C112.568 103.957 112.415 103.824 112.415 103.56V99.2609C112.415 98.0822 113.375 97.4927 115.291 97.4927H116.674C118.692 97.4927 119.7 98.0822 119.7 99.2609V103.56ZM123.266 101.435H126.999L125.146 98.3696L123.266 101.435ZM127.509 102.203H122.784L121.758 103.795C121.714 103.86 121.661 103.908 121.596 103.94C121.533 103.971 121.471 103.986 121.408 103.986C121.29 103.986 121.183 103.944 121.086 103.865C120.989 103.785 120.942 103.684 120.942 103.56C120.942 103.481 120.966 103.401 121.016 103.321L124.552 97.8092C124.629 97.6933 124.717 97.6063 124.819 97.5483C124.921 97.4927 125.025 97.4637 125.134 97.4637C125.245 97.4637 125.352 97.4927 125.454 97.5483C125.556 97.6038 125.644 97.6908 125.72 97.8092L129.27 103.302C129.302 103.348 129.323 103.391 129.335 103.435C129.346 103.476 129.351 103.517 129.351 103.556C129.351 103.676 129.305 103.775 129.214 103.848C129.122 103.92 129.015 103.957 128.899 103.957C128.832 103.957 128.765 103.942 128.7 103.911C128.635 103.882 128.577 103.831 128.526 103.761L127.509 102.203ZM138.047 103.597C138.047 103.865 137.89 104 137.574 104C137.269 104 137.116 103.865 137.116 103.597V101.159H131.596V103.597C131.596 103.865 131.441 104 131.128 104C130.82 104 130.665 103.865 130.665 103.597V97.8889C130.665 97.6256 130.822 97.4927 131.14 97.4927C131.443 97.4927 131.596 97.6256 131.596 97.8889V100.391H137.116V97.8889C137.116 97.6256 137.266 97.4927 137.568 97.4927C137.887 97.4927 138.047 97.6256 138.047 97.8889V103.597ZM139.882 97.7875C139.882 97.5242 140.035 97.3913 140.339 97.3913C140.656 97.3913 140.814 97.5242 140.814 97.7875V102.575L146.148 97.5822C146.213 97.5217 146.289 97.4758 146.375 97.4493C146.46 97.4203 146.546 97.4059 146.63 97.4059C146.778 97.4059 146.912 97.4518 147.031 97.5435C147.149 97.6353 147.209 97.7803 147.209 97.9783V103.495C147.209 103.763 147.054 103.899 146.741 103.899C146.433 103.899 146.277 103.763 146.277 103.495V98.6378L140.902 103.715C140.832 103.78 140.758 103.829 140.682 103.855C140.605 103.884 140.526 103.899 140.448 103.899C140.299 103.899 140.167 103.848 140.054 103.746C139.94 103.645 139.882 103.488 139.882 103.275V97.7875ZM148.673 97.7875C148.673 97.5242 148.826 97.3913 149.13 97.3913C149.447 97.3913 149.605 97.5242 149.605 97.7875V102.575L154.939 97.5822C155.004 97.5217 155.08 97.4758 155.166 97.4493C155.252 97.4203 155.337 97.4059 155.421 97.4059C155.569 97.4059 155.703 97.4518 155.822 97.5435C155.94 97.6353 156 97.7803 156 97.9783V103.495C156 103.763 155.845 103.899 155.532 103.899C155.224 103.899 155.068 103.763 155.068 103.495V98.6378L149.693 103.715C149.623 103.78 149.549 103.829 149.473 103.855C149.396 103.884 149.318 103.899 149.239 103.899C149.09 103.899 148.958 103.848 148.845 103.746C148.731 103.645 148.673 103.488 148.673 103.275V97.7875ZM150.506 96.5314C150.453 96.4758 150.425 96.4106 150.425 96.3406C150.425 96.2608 150.462 96.1835 150.534 96.1111C150.606 96.0362 150.682 96 150.759 96C150.849 96 150.916 96.0362 150.956 96.1063C151.377 96.7125 151.753 97.0145 152.08 97.0145C152.242 97.0145 152.413 96.9421 152.594 96.7971C152.772 96.6522 152.965 96.4227 153.169 96.1136C153.217 96.0387 153.289 96 153.379 96C153.456 96 153.53 96.0362 153.599 96.1111C153.671 96.1835 153.706 96.2633 153.706 96.3478C153.706 96.3889 153.701 96.4251 153.69 96.4493C153.678 96.4758 153.664 96.5 153.651 96.5241C153.361 96.8937 153.092 97.1739 152.842 97.3648C152.592 97.5556 152.339 97.6522 152.08 97.6522C151.829 97.6522 151.577 97.5604 151.324 97.3792C151.069 97.1981 150.798 96.9155 150.506 96.5314Z" fill="#313130"/>
</svg>
