<svg width="120" height="120" viewBox="0 0 120 120" fill="none" xmlns="http://www.w3.org/2000/svg">
<path fill-rule="evenodd" clip-rule="evenodd" d="M0 120H120V0H0V120Z" fill="#148BA0"/>
<path fill-rule="evenodd" clip-rule="evenodd" d="M60.7415 61.0169L58.9832 59.2586L108.073 10.1694L109.831 11.9277L60.7415 61.0169Z" fill="#FEFEFE"/>
<path fill-rule="evenodd" clip-rule="evenodd" d="M9.15259 85.4238H18.3051V87.0377H14.5995V96.6103H12.8423V87.0377H9.15259V85.4238Z" fill="#FEFEFE"/>
<path fill-rule="evenodd" clip-rule="evenodd" d="M20.3389 96.6103H22.3728V85.4238H20.3389V96.6103Z" fill="#FEFEFE"/>
<path fill-rule="evenodd" clip-rule="evenodd" d="M24.4067 96.6103V85.4238H26.0968L29.522 90.4574L32.9163 85.4238H34.5762V96.6103H32.9163V88.1083L29.9739 92.3279H29.0082L26.0667 88.1083V96.6103H24.4067Z" fill="#FEFEFE"/>
<path fill-rule="evenodd" clip-rule="evenodd" d="M37.6272 96.6103V85.4238H45.5556V87.0377H39.3788V89.8345H44.4096V91.4484H39.3788V94.9964H45.7628V96.6103H37.6272Z" fill="#FEFEFE"/>
<path fill-rule="evenodd" clip-rule="evenodd" d="M11.8433 109.276C10.7274 108.213 10.1694 106.872 10.1694 105.254C10.1694 103.637 10.7274 102.296 11.8433 101.248C12.9593 100.185 14.363 99.6611 16.0528 99.6611C17.2014 99.6611 18.206 99.9077 19.0827 100.385V102.096C18.1743 101.525 17.1696 101.248 16.0695 101.248C14.9051 101.248 13.9163 101.634 13.1349 102.389C12.3536 103.144 11.9705 104.099 11.9705 105.254C11.9705 106.41 12.3695 107.38 13.1508 108.136C13.948 108.89 14.9368 109.261 16.1331 109.261C17.3921 109.261 18.4603 108.937 19.322 108.274V109.985C18.3967 110.555 17.3126 110.848 16.0528 110.848C14.3789 110.848 12.9751 110.324 11.8433 109.276Z" fill="#FEFEFE"/>
<path fill-rule="evenodd" clip-rule="evenodd" d="M25.9243 109.261C27.0036 109.261 27.9114 108.875 28.6468 108.121C29.3823 107.35 29.7573 106.395 29.7573 105.254C29.7573 104.115 29.3823 103.159 28.6468 102.404C27.9114 101.634 27.0036 101.248 25.9243 101.248C24.845 101.248 23.9372 101.634 23.2026 102.404C22.4663 103.159 22.1068 104.115 22.1068 105.254C22.1068 106.395 22.4663 107.35 23.2026 108.121C23.9372 108.875 24.845 109.261 25.9243 109.261ZM25.9243 110.848C24.3131 110.848 22.9826 110.308 21.9189 109.245C20.8707 108.167 20.3389 106.841 20.3389 105.254C20.3389 103.668 20.8707 102.343 21.9189 101.279C22.9826 100.2 24.3131 99.6611 25.9243 99.6611C27.5355 99.6611 28.866 100.2 29.9297 101.279C30.9934 102.343 31.5253 103.668 31.5253 105.254C31.5253 106.841 30.9934 108.167 29.9297 109.245C28.866 110.308 27.5355 110.848 25.9243 110.848Z" fill="#FEFEFE"/>
<path fill-rule="evenodd" clip-rule="evenodd" d="M33.5593 110.848V99.6611H35.0264L41.0621 107.763V99.6611H42.7119V110.848H41.2914L35.2091 102.714V110.848H33.5593Z" fill="#FEFEFE"/>
<path fill-rule="evenodd" clip-rule="evenodd" d="M44.7458 109.692V107.859C45.1743 108.244 45.7551 108.568 46.4739 108.845C47.2079 109.123 47.942 109.261 48.6761 109.261C50.0824 109.261 51.1534 108.66 51.1534 107.659C51.1534 107.227 50.9392 106.888 50.6793 106.657C50.5565 106.549 50.3736 106.441 50.1289 106.334C49.6396 106.102 49.3492 106.026 48.6608 105.825L48.4466 105.763C47.8506 105.594 47.3764 105.439 47.0547 105.317C46.7338 105.193 46.3825 105.009 45.9845 104.777C45.2047 104.283 44.8839 103.591 44.8839 102.604C44.8839 100.817 46.3672 99.6611 48.7675 99.6611C50.0519 99.6611 51.1991 99.9538 52.1931 100.555V102.25C51.1068 101.588 49.9757 101.248 48.7988 101.248C47.3307 101.248 46.6119 101.819 46.6119 102.62C46.6119 103.082 46.8718 103.329 47.2384 103.591C47.4374 103.714 47.9268 103.868 48.1867 103.975L49.4101 104.33C50.2204 104.577 50.6945 104.761 51.3676 105.132C52.3159 105.64 52.8205 106.41 52.8814 107.628C52.8814 108.629 52.4835 109.415 51.7037 109.985C50.924 110.556 49.9452 110.848 48.7675 110.848C47.1317 110.848 45.8016 110.463 44.7458 109.692Z" fill="#FEFEFE"/>
<path fill-rule="evenodd" clip-rule="evenodd" d="M54.9153 99.6611H56.6306V106.062C56.6306 108.117 57.7529 109.231 59.4838 109.231C61.2147 109.231 62.3525 108.117 62.3525 106.062V99.6611H64.0678V106C64.0678 107.537 63.6474 108.729 62.7893 109.577C61.9321 110.424 60.84 110.848 59.4838 110.848C58.1276 110.848 57.0364 110.424 56.1783 109.592C55.3366 108.745 54.9153 107.553 54.9153 106V99.6611Z" fill="#FEFEFE"/>
<path fill-rule="evenodd" clip-rule="evenodd" d="M66.1018 110.848V99.6611H67.7379V109.234H73.2205V110.848H66.1018Z" fill="#FEFEFE"/>
<path fill-rule="evenodd" clip-rule="evenodd" d="M72.2034 99.6611H81.3559V101.275H77.6503V110.848H75.893V101.275H72.2034V99.6611Z" fill="#FEFEFE"/>
<path fill-rule="evenodd" clip-rule="evenodd" d="M83.3899 110.848H85.4238V99.6611H83.3899V110.848Z" fill="#FEFEFE"/>
<path fill-rule="evenodd" clip-rule="evenodd" d="M87.4575 110.848V99.6611H88.9246L94.9603 107.763V99.6611H96.6101V110.848H95.1895L89.1073 102.714V110.848H87.4575Z" fill="#FEFEFE"/>
<path fill-rule="evenodd" clip-rule="evenodd" d="M100.289 109.276C99.1975 108.213 98.644 106.872 98.644 105.254C98.644 103.637 99.1975 102.296 100.304 101.248C101.411 100.185 102.804 99.6611 104.464 99.6611C105.808 99.6611 106.947 99.9691 107.88 100.586V102.265C106.868 101.588 105.761 101.248 104.575 101.248C103.373 101.248 102.376 101.618 101.601 102.373C100.826 103.128 100.43 104.084 100.43 105.27C100.43 106.456 100.811 107.427 101.57 108.167C102.345 108.89 103.278 109.261 104.401 109.261C105.524 109.261 106.426 108.953 107.074 108.351V104.423H108.814V109.045C107.912 110.093 106.251 110.848 104.401 110.848C102.772 110.848 101.395 110.324 100.289 109.276Z" fill="#FEFEFE"/>
</svg>
