<svg width="341" height="108" viewBox="0 0 341 108" fill="none" xmlns="http://www.w3.org/2000/svg">
<path fill-rule="evenodd" clip-rule="evenodd" d="M340.777 24.3842H0V107.069H340.777V24.3842ZM337.617 27.5439V103.91H3.1598V27.5439H337.617Z" fill="#033B75"/>
<path fill-rule="evenodd" clip-rule="evenodd" d="M17.5103 87.0386V78.6906C19.4764 80.4441 22.1418 81.9184 25.4376 83.1792C28.8069 84.4429 32.1728 85.0736 35.5392 85.0736C41.994 85.0736 46.903 82.3393 46.903 77.7787C46.903 75.8145 45.9214 74.2722 44.7274 73.2191C44.1659 72.7282 43.3268 72.2375 42.2037 71.7465C39.9575 70.6943 38.6247 70.3423 35.4677 69.4306L34.4861 69.1503C31.7498 68.379 29.5779 67.678 28.1031 67.1164C26.6305 66.5546 25.0175 65.7127 23.1932 64.6605C19.6141 62.4169 18.1435 59.2599 18.1435 54.771C18.1435 46.6333 24.9458 41.3733 35.9593 41.3733C41.8525 41.3733 47.1125 42.7062 51.6731 45.4413V53.1572C46.6924 50.1397 41.5004 48.5966 36.1007 48.5966C29.3648 48.5966 26.0689 51.192 26.0689 54.841C26.0689 56.9446 27.26 58.0668 28.9449 59.2599C29.8583 59.8206 32.1019 60.5236 33.2958 61.0126L38.905 62.6275C42.6238 63.7497 44.7983 64.5916 47.8838 66.2745C52.2347 68.5896 54.548 72.0961 54.8301 77.6381C54.8301 82.1987 53.0057 85.7749 49.427 88.372C45.8505 90.966 41.361 92.2994 35.9593 92.2994C28.4548 92.2994 22.3521 90.5451 17.5103 87.0386Z" fill="#033B75"/>
<path fill-rule="evenodd" clip-rule="evenodd" d="M63.6055 91.387H71.3211V42.2841H63.6055V91.387Z" fill="#033B75"/>
<path fill-rule="evenodd" clip-rule="evenodd" d="M82.5497 91.387V42.2841H89.2828L116.99 77.8504V42.2841H124.569V91.387H118.042L90.1239 55.6809V91.387H82.5497Z" fill="#033B75"/>
<path fill-rule="evenodd" clip-rule="evenodd" d="M135.38 91.387V42.2841H170.311V49.3687H143.094V61.645H165.26V68.7302H143.094V84.3023H171.224V91.387H135.38Z" fill="#033B75"/>
<path fill-rule="evenodd" clip-rule="evenodd" d="M186.664 63.8195H200.836C206.442 63.8195 209.741 61.2232 209.741 56.5248C209.741 52.0339 206.442 49.3687 200.836 49.3687H186.664V63.8195ZM178.948 91.387V42.2841H201.327C206.303 42.2841 210.302 43.5469 213.178 46.1435C216.054 48.738 217.526 52.1056 217.526 56.2433C217.526 62.9776 213.598 68.1695 206.865 69.7816L222.295 91.387H212.969L198.17 70.6235H186.664V91.387H178.948Z" fill="#033B75"/>
<path fill-rule="evenodd" clip-rule="evenodd" d="M233.107 85.1442C228.267 80.3035 225.813 74.2008 225.813 66.8361C225.813 59.4703 228.267 53.3676 233.178 48.5966C238.087 43.7575 244.262 41.3733 251.626 41.3733C257.588 41.3733 262.639 42.775 266.776 45.5819V53.2278C262.287 50.1397 257.377 48.5966 252.117 48.5966C246.786 48.5966 242.368 50.2803 238.93 53.7176C235.493 57.1552 233.74 61.5044 233.74 66.905C233.74 72.3064 235.421 76.7273 238.788 80.094C242.225 83.3916 246.366 85.0736 251.346 85.0736C256.326 85.0736 260.325 83.671 263.201 80.9359V63.0484H270.916V84.092C266.918 88.8621 259.554 92.2994 251.346 92.2994C244.12 92.2994 238.016 89.9144 233.107 85.1442Z" fill="#033B75"/>
<path fill-rule="evenodd" clip-rule="evenodd" d="M292.038 72.3781H309.995L301.016 51.7546L292.038 72.3781ZM275.903 91.387L297.37 42.004H304.806L326.268 91.387H317.993L312.661 79.1804H289.372L284.111 91.387H275.903Z" fill="#033B75"/>
<path fill-rule="evenodd" clip-rule="evenodd" d="M0 0V27.6621H340.777V0H0Z" fill="#033B75"/>
<path fill-rule="evenodd" clip-rule="evenodd" d="M28.5656 19.9091H26.0654V10.9627C25.907 11.2799 25.6632 11.7187 25.3378 12.2842L20.2014 19.9091H17.4847V7.70991H20.0228V16.4763C20.1115 16.2694 20.2986 15.9156 20.5838 15.4068L25.7888 7.70991H28.5656V19.9091ZM43.039 19.9091H40.2656V14.5692H34.9503V19.9091H32.1732V7.70991H34.9503V12.4996H40.2656V7.70991H43.039V19.9091ZM46.6384 19.9091V7.70991H52.4656C53.7755 7.70991 54.8121 7.97381 55.5763 8.50621C56.3372 9.03881 56.7193 9.76761 56.7193 10.6857C56.7193 12.2439 55.9219 13.1907 54.3246 13.5243C56.2235 13.761 57.1703 14.6993 57.1703 16.3346C57.1703 17.3426 56.7726 18.1933 55.967 18.8796C55.1659 19.567 54.1695 19.9091 52.9781 19.9091H46.6384ZM49.4036 9.66101V12.7031H51.8479C53.2301 12.7031 53.9175 12.166 53.9175 11.0928C53.9175 10.1415 53.3151 9.66101 52.1084 9.66101H49.4036ZM49.4036 14.6188V17.945H52.2385C53.6536 17.945 54.3611 17.371 54.3611 16.2292C54.3611 15.1548 53.5921 14.6188 52.0585 14.6188H49.4036ZM70.4401 14.5621H62.1278C62.1564 15.6883 62.5054 16.558 63.1692 17.1686C63.8317 17.7828 64.7427 18.0867 65.9013 18.0867C67.2063 18.0867 68.3977 17.6964 69.4876 16.9202V19.1446C68.3776 19.8439 66.9059 20.1943 65.0801 20.1943C63.2863 20.1943 61.8795 19.6404 60.8584 18.534C59.8382 17.4242 59.326 15.8672 59.326 13.858C59.326 11.9588 59.887 10.4136 61.0132 9.21851C62.1363 8.02231 63.5301 7.42471 65.1983 7.42471C66.869 7.42471 68.1588 7.96191 69.0735 9.03031C69.9846 10.1049 70.4401 11.5934 70.4401 13.5005V14.5621ZM67.7718 12.6051C67.7636 11.6135 67.5317 10.8408 67.0691 10.2869C66.6088 9.73811 65.9747 9.46231 65.1651 9.46231C64.3677 9.46231 63.6968 9.75111 63.1443 10.332C62.5918 10.9094 62.2534 11.6702 62.1278 12.6051H67.7718ZM81.8096 19.3481C80.8347 19.9125 79.6751 20.1943 78.3417 20.1943C76.5312 20.1943 75.0725 19.6285 73.9579 18.4974C72.8478 17.3676 72.2905 15.8989 72.2905 14.0935C72.2905 12.0855 72.8881 10.4703 74.0832 9.25051C75.2794 8.03421 76.8779 7.42471 78.8777 7.42471C79.9923 7.42471 80.9719 7.62011 81.8226 8.00591V10.5806C80.9719 9.94621 80.0657 9.62931 79.1059 9.62931C77.9394 9.62931 76.9785 10.0233 76.2344 10.8124C75.4866 11.605 75.1127 12.6379 75.1127 13.9147C75.1127 15.1798 75.4665 16.1759 76.1703 16.9083C76.8733 17.636 77.8127 18.0017 78.9959 18.0017C79.9923 18.0017 80.9283 17.6479 81.8096 16.9449V19.3481ZM92.8621 9.91301H89.3857V19.9091H86.6089V9.91301H83.1064V7.70991H92.8621V9.91301ZM106.123 19.9091H103.623V10.9627C103.464 11.2799 103.22 11.7187 102.895 12.2842L97.7584 19.9091H95.0417V7.70991H97.5796V16.4763C97.6686 16.2694 97.8554 15.9156 98.1405 15.4068L103.346 7.70991H106.123V19.9091ZM122.467 24.3533H120.157V19.9091H109.73V7.70991H112.507V17.7981H117.822V7.70991H120.596V17.7981H122.467V24.3533ZM136.012 19.9091H133.512V10.9627C133.353 11.2799 133.11 11.7187 132.784 12.2842L127.648 19.9091H124.931V7.70991H127.469V16.4763C127.558 16.2694 127.745 15.9156 128.03 15.4068L133.235 7.70991H136.012V19.9091ZM145.028 20.1943C143.149 20.1943 141.645 19.6239 140.523 18.4855C139.396 17.3474 138.835 15.834 138.835 13.9515C138.835 11.9021 139.421 10.3036 140.591 9.14881C141.763 7.99881 143.341 7.42471 145.329 7.42471C147.236 7.42471 148.721 7.98201 149.782 9.10371C150.847 10.222 151.38 11.7756 151.38 13.761C151.38 15.7084 150.807 17.2658 149.661 18.4371C148.509 19.6083 146.968 20.1943 145.028 20.1943ZM145.162 9.62931C144.081 9.62931 143.227 10.0031 142.6 10.7591C141.974 11.5151 141.657 12.5529 141.657 13.8829C141.657 15.1596 141.978 16.1676 142.613 16.9001C143.247 17.636 144.097 18.0017 145.162 18.0017C146.248 18.0017 147.086 17.6397 147.668 16.9202C148.253 16.196 148.546 15.1679 148.546 13.833C148.546 12.4914 148.253 11.4548 147.668 10.7226C147.086 9.99121 146.248 9.62931 145.162 9.62931ZM165.056 19.9091H162.282V14.5692H156.967V19.9091H154.19V7.70991H156.967V12.4996H162.282V7.70991H165.056V19.9091ZM179.52 19.9091H176.747V14.5692H171.432V19.9091H168.655V7.70991H171.432V12.4996H176.747V7.70991H179.52V19.9091ZM192.485 19.9091H189.805V18.0017H189.757C188.915 19.4652 187.682 20.1943 186.052 20.1943C184.852 20.1943 183.913 19.8688 183.234 19.218C182.554 18.5672 182.217 17.7046 182.217 16.6314C182.217 14.3302 183.543 12.9883 186.194 12.6051L189.818 12.0926C189.818 10.3521 188.992 9.48241 187.337 9.48241C185.885 9.48241 184.575 9.98641 183.408 10.9876V8.56771C184.694 7.80351 186.178 7.42471 187.861 7.42471C190.945 7.42471 192.485 8.94161 192.485 11.9755V19.9091ZM189.818 13.9147L187.255 14.2733C186.462 14.3787 185.865 14.5692 185.463 14.8507C185.059 15.1347 184.86 15.6268 184.86 16.3346C184.86 16.8516 185.047 17.274 185.413 17.6028C185.783 17.9331 186.279 18.0997 186.898 18.0997C187.739 18.0997 188.439 17.803 188.988 17.2088C189.541 16.6198 189.818 15.8754 189.818 14.9762V13.9147ZM205.258 19.9091H202.505V15.0814H201.09C200.407 15.0814 199.784 15.6954 199.232 16.9202L197.775 19.9091H194.644L196.572 16.2859C197.121 15.3501 197.78 14.7325 198.548 14.4272C197.58 14.3016 196.84 13.9549 196.328 13.386C195.816 12.8168 195.559 12.1056 195.559 11.2478C195.559 10.1616 195.995 9.29901 196.864 8.66121C197.735 8.02711 198.902 7.70991 200.373 7.70991H205.258V19.9091ZM202.505 13.1788V9.70951H200.597C199.105 9.70951 198.361 10.2798 198.361 11.4134C198.361 12.5895 199.093 13.1788 200.565 13.1788H202.505ZM226.627 19.9091H223.114L218.373 13.9634H218.323V19.9091H215.546V7.70991H218.323V13.3208H218.373L222.85 7.70991H226.233L221.158 13.5243L226.627 19.9091ZM233.322 20.1943C231.443 20.1943 229.939 19.6239 228.816 18.4855C227.69 17.3474 227.129 15.834 227.129 13.9515C227.129 11.9021 227.715 10.3036 228.885 9.14881C230.056 7.99881 231.635 7.42471 233.622 7.42471C235.53 7.42471 237.015 7.98201 238.076 9.10371C239.141 10.222 239.673 11.7756 239.673 13.761C239.673 15.7084 239.101 17.2658 237.954 18.4371C236.803 19.6083 235.261 20.1943 233.322 20.1943ZM233.456 9.62931C232.374 9.62931 231.521 10.0031 230.894 10.7591C230.268 11.5151 229.951 12.5529 229.951 13.8829C229.951 15.1596 230.271 16.1676 230.907 16.9001C231.541 17.636 232.391 18.0017 233.456 18.0017C234.542 18.0017 235.379 17.6397 235.962 16.9202C236.546 16.196 236.84 15.1679 236.84 13.833C236.84 12.4914 236.546 11.4548 235.962 10.7226C235.379 9.99121 234.542 9.62931 233.456 9.62931ZM256.843 19.9091H254.195V10.1415C254.036 10.6336 253.796 11.3567 253.471 12.321L250.719 19.9091H248.262L245.464 12.2961C245.314 11.8819 245.07 11.158 244.736 10.1165V19.9091H242.484V7.70991H246.083L248.885 15.2413C249.08 15.7855 249.335 16.5464 249.644 17.5141L250.409 15.2849L253.15 7.70991H256.843V19.9091ZM271.303 19.9091H268.53V9.81971H263.215V19.9091H260.438V7.70991H271.303V19.9091ZM284.268 19.9091H281.588V18.0017H281.539C280.698 19.4652 279.465 20.1943 277.835 20.1943C276.635 20.1943 275.695 19.8688 275.016 19.218C274.337 18.5672 274 17.7046 274 16.6314C274 14.3302 275.326 12.9883 277.977 12.6051L281.601 12.0926C281.601 10.3521 280.775 9.48241 279.12 9.48241C277.668 9.48241 276.358 9.98641 275.191 10.9876V8.56771C276.476 7.80351 277.961 7.42471 279.644 7.42471C282.727 7.42471 284.268 8.94161 284.268 11.9755V19.9091ZM281.601 13.9147L279.038 14.2733C278.245 14.3787 277.648 14.5692 277.245 14.8507C276.842 15.1347 276.643 15.6268 276.643 16.3346C276.643 16.8516 276.83 17.274 277.196 17.6028C277.566 17.9331 278.062 18.0997 278.681 18.0997C279.522 18.0997 280.221 17.803 280.77 17.2088C281.324 16.6198 281.601 15.8754 281.601 14.9762V13.9147ZM298.504 19.9091H295.731V14.5692H290.416V19.9091H287.639V7.70991H290.416V12.4996H295.731V7.70991H298.504V19.9091ZM313.185 19.9091H310.685V10.9627C310.526 11.2799 310.282 11.7187 309.957 12.2842L304.821 19.9091H302.104V7.70991H304.642V16.4763C304.731 16.2694 304.917 15.9156 305.203 15.4068L310.408 7.70991H313.185V19.9091ZM326.194 19.9091H323.441V15.0814H322.026C321.343 15.0814 320.721 15.6954 320.168 16.9202L318.711 19.9091H315.581L317.508 16.2859C318.057 15.3501 318.716 14.7325 319.484 14.4272C318.516 14.3016 317.777 13.9549 317.264 13.386C316.752 12.8168 316.495 12.1056 316.495 11.2478C316.495 10.1616 316.931 9.29901 317.8 8.66121C318.671 8.02711 319.838 7.70991 321.31 7.70991H326.194V19.9091ZM323.441 13.1788V9.70951H321.534C320.041 9.70951 319.297 10.2798 319.297 11.4134C319.297 12.5895 320.03 13.1788 321.502 13.1788H323.441Z" fill="#FEFEFE"/>
</svg>
