<svg width="296" height="93" viewBox="0 0 296 93" fill="none" xmlns="http://www.w3.org/2000/svg">
<path fill-rule="evenodd" clip-rule="evenodd" d="M296 21H0V93H296V21ZM293.255 23.7514V90.2495H2.74461V23.7514H293.255Z" fill="white"/>
<path fill-rule="evenodd" clip-rule="evenodd" d="M15 75.4547V68.242C16.6858 69.7571 18.9713 71.0308 21.7973 72.1202C24.6863 73.212 27.5724 73.7569 30.4589 73.7569C35.9936 73.7569 40.2029 71.3945 40.2029 67.4542C40.2029 65.7571 39.3612 64.4246 38.3374 63.5147C37.8559 63.0905 37.1365 62.6666 36.1734 62.2424C34.2474 61.3333 33.1046 61.0291 30.3976 60.2414L29.556 59.9992C27.2097 59.3328 25.3474 58.7272 24.0828 58.242C22.8201 57.7566 21.4371 57.0292 19.8728 56.1201C16.8039 54.1816 15.5429 51.454 15.5429 47.5756C15.5429 40.5446 21.3756 36 30.8192 36C35.8723 36 40.3825 37.1516 44.293 39.5147V46.1813C40.0223 43.5741 35.5704 42.2409 30.9404 42.2409C25.1647 42.2409 22.3386 44.4833 22.3386 47.6361C22.3386 49.4536 23.3599 50.4231 24.8046 51.454C25.5878 51.9384 27.5116 52.5458 28.5353 52.9683L33.345 54.3636C36.5337 55.3331 38.3982 56.0605 41.0439 57.5146C44.7746 59.5148 46.7581 62.5444 47 67.3327C47 71.273 45.4357 74.3629 42.3671 76.6067C39.3004 78.8479 35.4509 80 30.8192 80C24.3844 80 19.1516 78.4843 15 75.4547Z" fill="white"/>
<path fill-rule="evenodd" clip-rule="evenodd" d="M55 80H62V37H55V80Z" fill="white"/>
<path fill-rule="evenodd" clip-rule="evenodd" d="M72 80V37H77.7686L101.507 68.1458V37H108V80H102.408L78.4892 48.7317V80H72Z" fill="white"/>
<path fill-rule="evenodd" clip-rule="evenodd" d="M118 80V37H148.211V43.2041H124.672V53.9546H143.843V60.1592H124.672V73.7958H149V80H118Z" fill="white"/>
<path fill-rule="evenodd" clip-rule="evenodd" d="M161.765 55.8588H174.188C179.103 55.8588 181.995 53.5852 181.995 49.4708C181.995 45.538 179.103 43.2041 174.188 43.2041H161.765V55.8588ZM155 80V37H174.618C178.981 37 182.487 38.1058 185.008 40.3797C187.529 42.6518 188.819 45.6008 188.819 49.2242C188.819 55.1215 185.376 59.6682 179.474 61.0799L193 80H184.824L171.851 61.8172H161.765V80H155Z" fill="white"/>
<path fill-rule="evenodd" clip-rule="evenodd" d="M202.307 73.8179C198.122 69.6356 196 64.3629 196 57.9998C196 51.6358 198.122 46.363 202.369 42.2409C206.614 38.0599 211.952 36 218.32 36C223.475 36 227.843 37.2111 231.42 39.6362V46.2423C227.538 43.5741 223.293 42.2409 218.745 42.2409C214.135 42.2409 210.315 43.6956 207.342 46.6654C204.37 49.6355 202.854 53.3932 202.854 58.0593C202.854 62.7261 204.308 66.5458 207.219 69.4546C210.191 72.3037 213.772 73.7569 218.078 73.7569C222.384 73.7569 225.842 72.5451 228.328 70.182V54.7272H235V72.9088C231.543 77.0302 225.175 80 218.078 80C211.83 80 206.552 77.9394 202.307 73.8179Z" fill="white"/>
<path fill-rule="evenodd" clip-rule="evenodd" d="M254.096 62.4481H269.784L261.94 44.4903L254.096 62.4481ZM240 79L258.754 36H265.25L284 79H276.771L272.113 68.3712H251.767L247.17 79H240Z" fill="white"/>
<path fill-rule="evenodd" clip-rule="evenodd" d="M0 24V0H296V24H0ZM22.4492 17.0621H24.6197V6.25271H22.209L17.6904 13.0727C17.4428 13.5236 17.2804 13.8371 17.2034 14.0204V6.25271H15V17.0621H17.3584L21.8175 10.3059C22.1 9.8048 22.3116 9.41599 22.4492 9.13493V17.0621ZM34.7768 17.0621H37.1844V6.25271H34.7768V10.4967H30.1624V6.25271H27.7515V17.0621H30.1624V12.3306H34.7768V17.0621ZM40.3092 6.25271V17.0621H45.8129C46.8472 17.0621 47.7122 16.759 48.4076 16.1499C49.107 15.5418 49.4523 14.788 49.4523 13.8948C49.4523 12.4458 48.6303 11.6144 46.9818 11.4047C48.3685 11.1091 49.0607 10.2702 49.0607 8.88949C49.0607 8.07598 48.729 7.43021 48.0685 6.95829C47.405 6.48654 46.5051 6.25271 45.368 6.25271H40.3092ZM42.7097 10.6771V7.98153H45.0579C46.1054 7.98153 46.6284 8.40729 46.6284 9.25021C46.6284 10.2011 46.0316 10.6771 44.8317 10.6771H42.7097ZM42.7097 15.3218V12.3745H45.0145C46.3459 12.3745 47.0135 12.8494 47.0135 13.8014C47.0135 14.8132 46.3993 15.3218 45.1708 15.3218H42.7097ZM53.756 12.3243H60.9722V11.3836C60.9722 9.69378 60.5767 8.37486 59.7858 7.42268C58.9917 6.476 57.872 6 56.4216 6C54.9734 6 53.7634 6.52952 52.7884 7.58944C51.8107 8.64839 51.3237 10.0176 51.3237 11.7004C51.3237 13.4807 51.7683 14.8603 52.654 15.8437C53.5404 16.824 54.7617 17.3148 56.319 17.3148C57.904 17.3148 59.1816 17.0043 60.1453 16.3847V14.4137C59.1991 15.1015 58.1648 15.4473 57.0319 15.4473C56.0261 15.4473 55.2352 15.178 54.6601 14.6338C54.0838 14.0928 53.7808 13.3222 53.756 12.3243ZM58.0457 8.53612C58.4473 9.02692 58.6486 9.71159 58.6557 10.5902H53.756C53.865 9.76183 54.1588 9.0877 54.6385 8.57608C55.1181 8.06136 55.7005 7.80547 56.3928 7.80547C57.0956 7.80547 57.6461 8.04984 58.0457 8.53612ZM67.8318 17.3148C68.9893 17.3148 69.996 17.0651 70.8424 16.565V14.4356C70.0773 15.0585 69.2647 15.372 68.3997 15.372C67.3725 15.372 66.557 15.048 65.9467 14.4032C65.3357 13.7542 65.0286 12.8716 65.0286 11.7506C65.0286 10.6193 65.3532 9.70406 66.0024 9.00175C66.6483 8.30255 67.4825 7.95344 68.4952 7.95344C69.3284 7.95344 70.1151 8.23424 70.8536 8.79636V6.51499C70.1151 6.17314 69.2647 6 68.2971 6C66.561 6 65.1733 6.54006 64.1348 7.61779C63.0973 8.69863 62.5785 10.1298 62.5785 11.9091C62.5785 13.5088 63.0624 14.8101 64.0261 15.8112C64.9937 16.8135 66.26 17.3148 67.8318 17.3148ZM77.4194 8.20482H80.4374V6.25271H71.9682V8.20482H75.0088V17.0621H77.4194V8.20482ZM89.7788 17.0621H91.9492V6.25271H89.5383L85.0197 13.0727C84.7722 13.5236 84.61 13.8371 84.5328 14.0204V6.25271H82.3295V17.0621H84.688L89.1471 10.3059C89.4295 9.8048 89.6412 9.41599 89.7788 9.13493V17.0621ZM104.133 21H106.138V15.1916H104.514V6.25271H102.106V15.1916H97.492V6.25271H95.0812V17.0621H104.133V21ZM115.727 17.0621H117.897V6.25271H115.486L110.968 13.0727C110.72 13.5236 110.558 13.8371 110.481 14.0204V6.25271H108.277V17.0621H110.636L115.095 10.3059C115.377 9.8048 115.589 9.41599 115.727 9.13493V17.0621ZM121.813 15.8007C122.788 16.8094 124.093 17.3148 125.724 17.3148C127.408 17.3148 128.746 16.7956 129.746 15.7578C130.741 14.7199 131.238 13.34 131.238 11.6144C131.238 9.85522 130.776 8.47862 129.852 7.48772C128.93 6.49381 127.641 6 125.985 6C124.26 6 122.889 6.5087 121.872 7.52768C120.856 8.55092 120.348 9.96731 120.348 11.7832C120.348 13.4513 120.835 14.7923 121.813 15.8007ZM123.616 8.95453C124.161 8.28465 124.902 7.95344 125.84 7.95344C126.783 7.95344 127.511 8.27411 128.016 8.92218C128.523 9.57097 128.778 10.4895 128.778 11.6782C128.778 12.8611 128.523 13.772 128.016 14.4137C127.511 15.0513 126.783 15.372 125.84 15.372C124.916 15.372 124.178 15.048 123.628 14.3959C123.076 13.7469 122.798 12.8537 122.798 11.7224C122.798 10.544 123.073 9.6244 123.616 8.95453ZM140.703 17.0621H143.111V6.25271H140.703V10.4967H136.089V6.25271H133.678V17.0621H136.089V12.3306H140.703V17.0621ZM153.26 17.0621H155.668V6.25271H153.26V10.4967H148.646V6.25271H146.235V17.0621H148.646V12.3306H153.26V17.0621ZM164.596 17.0621H166.923V10.0323C166.923 7.34409 165.586 6 162.909 6C161.448 6 160.159 6.33564 159.043 7.01278V9.15699C160.056 8.26986 161.193 7.82328 162.454 7.82328C163.891 7.82328 164.608 8.59389 164.608 10.1361L161.461 10.5902C159.16 10.9298 158.009 12.1188 158.009 14.1578C158.009 15.1088 158.302 15.8731 158.891 16.4497C159.481 17.0264 160.297 17.3148 161.338 17.3148C162.754 17.3148 163.824 16.6688 164.554 15.372H164.596V17.0621ZM162.383 12.0684L164.608 11.7506V12.6912C164.608 13.4879 164.367 14.1475 163.887 14.6694C163.41 15.1959 162.803 15.4588 162.073 15.4588C161.535 15.4588 161.105 15.3112 160.783 15.0186C160.466 14.7272 160.304 14.3529 160.304 13.8948C160.304 13.2677 160.476 12.8316 160.827 12.58C161.176 12.3306 161.695 12.1618 162.383 12.0684ZM175.621 17.0621H178.011V6.25271H173.771C172.493 6.25271 171.481 6.53377 170.725 7.09563C169.97 7.66077 169.592 8.4251 169.592 9.38755C169.592 10.1476 169.815 10.7778 170.259 11.2822C170.704 11.7862 171.346 12.0934 172.186 12.2047C171.52 12.4753 170.948 13.0225 170.471 13.8517L168.798 17.0621H171.516L172.78 14.4137C173.26 13.3285 173.8 12.7844 174.393 12.7844H175.621V17.0621ZM175.621 8.0245V11.0986H173.938C172.66 11.0986 172.024 10.5764 172.024 9.53429C172.024 8.52983 172.67 8.0245 173.965 8.0245H175.621ZM193.513 17.0621H196.563L191.815 11.4047L196.221 6.25271H193.284L189.397 11.2244H189.354V6.25271H186.943V17.0621H189.354V11.7938H189.397L193.513 17.0621ZM198.463 15.8007C199.438 16.8094 200.743 17.3148 202.375 17.3148C204.058 17.3148 205.396 16.7956 206.396 15.7578C207.391 14.7199 207.889 13.34 207.889 11.6144C207.889 9.85522 207.426 8.47862 206.502 7.48772C205.58 6.49381 204.291 6 202.635 6C200.91 6 199.539 6.5087 198.523 7.52768C197.507 8.55092 196.998 9.96731 196.998 11.7832C196.998 13.4513 197.485 14.7923 198.463 15.8007ZM200.267 8.95453C200.811 8.28465 201.552 7.95344 202.491 7.95344C203.434 7.95344 204.161 8.27411 204.666 8.92218C205.174 9.57097 205.428 10.4895 205.428 11.6782C205.428 12.8611 205.174 13.772 204.666 14.4137C204.161 15.0513 203.434 15.372 202.491 15.372C201.566 15.372 200.829 15.048 200.278 14.3959C199.726 13.7469 199.448 12.8537 199.448 11.7224C199.448 10.544 199.723 9.6244 200.267 8.95453ZM220.495 17.0621H222.794V6.25271H219.588L217.208 12.9647L216.545 14.94C216.276 14.0825 216.055 13.4083 215.885 12.9261L213.453 6.25271H210.328V17.0621H212.284V8.38514C212.573 9.30798 212.785 9.94941 212.916 10.3164L215.345 17.0621H217.477L219.867 10.3385C220.149 9.48405 220.358 8.84332 220.495 8.40729V17.0621ZM232.94 17.0621H235.347V6.25271H225.915V17.0621H228.326V8.12215H232.94V17.0621ZM244.276 17.0621H246.602V10.0323C246.602 7.34409 245.265 6 242.588 6C241.127 6 239.838 6.33564 238.723 7.01278V9.15699C239.735 8.26986 240.873 7.82328 242.133 7.82328C243.57 7.82328 244.287 8.59389 244.287 10.1361L241.141 10.5902C238.84 10.9298 237.688 12.1188 237.688 14.1578C237.688 15.1088 237.981 15.8731 238.571 16.4497C239.16 17.0264 239.976 17.3148 241.018 17.3148C242.433 17.3148 243.503 16.6688 244.234 15.372H244.276V17.0621ZM242.062 12.0684L244.287 11.7506V12.6912C244.287 13.4879 244.047 14.1475 243.566 14.6694C243.089 15.1959 242.482 15.4588 241.752 15.4588C241.215 15.4588 240.784 15.3112 240.463 15.0186C240.145 14.7272 239.983 14.3529 239.983 13.8948C239.983 13.2677 240.156 12.8316 240.506 12.58C240.855 12.3306 241.374 12.1618 242.062 12.0684ZM256.554 17.0621H258.961V6.25271H256.554V10.4967H251.94V6.25271H249.529V17.0621H251.94V12.3306H256.554V17.0621ZM269.535 17.0621H271.706V6.25271H269.295L264.776 13.0727C264.529 13.5236 264.367 13.8371 264.289 14.0204V6.25271H262.086V17.0621H264.445L268.904 10.3059C269.186 9.8048 269.398 9.41599 269.535 9.13493V17.0621ZM280.61 17.0621H283V6.25271H278.76C277.482 6.25271 276.469 6.53377 275.713 7.09563C274.958 7.66077 274.58 8.4251 274.58 9.38755C274.58 10.1476 274.803 10.7778 275.248 11.2822C275.693 11.7862 276.335 12.0934 277.175 12.2047C276.508 12.4753 275.936 13.0225 275.459 13.8517L273.786 17.0621H276.504L277.768 14.4137C278.248 13.3285 278.789 12.7844 279.381 12.7844H280.61V17.0621ZM280.61 8.0245V11.0986H278.926C277.648 11.0986 277.013 10.5764 277.013 9.53429C277.013 8.52983 277.658 8.0245 278.954 8.0245H280.61Z" fill="white"/>
</svg>
