<svg width="162" height="116" viewBox="0 0 162 116" fill="none" xmlns="http://www.w3.org/2000/svg">
<path fill-rule="evenodd" clip-rule="evenodd" d="M81.0289 80.5089V97.0063C81.0289 97.832 81.7122 98.5149 82.5471 98.5149L97.8568 98.445V95.4275H84.0652V90.2594H94.744V87.2555H84.0652V82.0175H97.8568V79H82.5471C81.7122 79 81.0289 79.683 81.0289 80.5089ZM2.99989 79V87.2555H13.1639V79H16.2001V98.445H13.1639V90.2594H2.99989V98.445H0V79H2.99989ZM137.981 84.7656L127.333 97.861C126.495 99.0567 124.567 98.4832 124.567 97.0063V79H127.603V92.7494L138.251 79.6542C139.089 78.4584 141.017 79.032 141.017 80.5089V98.445H137.981V84.7656ZM148.208 87.2555H158.887V90.2594H148.208V95.4974H162V98.445H146.69C145.855 98.445 145.172 97.7622 145.172 96.9363V80.5089C145.172 79.683 145.855 79 146.69 79H162V82.0175H148.208V87.2555ZM118.498 102V98.4731H103.805V102H100.77C100.734 100.337 100.778 98.6328 100.778 96.9643C100.778 96.131 101.453 95.4555 102.287 95.4555H103.002C103.368 95.4555 103.587 95.4716 103.727 95.2335C104.183 94.53 104.376 93.2249 104.539 92.3294L106.742 80.2445C106.879 79.4915 107.564 78.9716 108.317 79.0153L117.738 79.007C118.577 79.007 119.256 79.6793 119.256 80.5089V95.4555H120.016C120.85 95.4555 121.526 96.131 121.526 96.9643C121.526 98.0023 121.532 100.576 121.534 102H118.498ZM106.929 95.4555H116.22V82.0108H109.493L107.556 92.6339C107.382 93.5877 107.242 94.5284 106.929 95.4555ZM56.4009 95.1396C54.5679 97.2288 51.8873 98.445 49.0899 98.445C43.7421 98.445 39.4062 94.0076 39.4062 88.7162C39.4062 83.4247 43.7419 79.1348 49.0899 79.1348C51.9565 79.1348 54.6921 80.4105 56.5259 82.5884L54.2011 84.5016C52.9325 82.9948 51.0704 82.1395 49.0899 82.1395C45.4186 82.1395 42.443 85.0838 42.443 88.7162C42.443 92.3488 45.4186 95.4404 49.0899 95.4404C51.0241 95.4404 52.8428 94.6257 54.1116 93.1797L56.4009 95.1396ZM64.8574 80.2445C64.9939 79.4915 65.6788 78.9716 66.4323 79.0153L75.8532 79.007C76.6914 79.007 77.3711 79.6793 77.3711 80.5089V98.445H74.3352V81.9409H67.6083L65.4905 93.555C65.3206 94.4865 64.9815 98.5043 60.8388 98.4267L59.3352 98.4266V95.5052L60.815 95.5046C62.0808 95.4562 62.3021 94.2293 62.5067 93.1095L64.8574 80.2445ZM22.9721 80.3741C23.0408 79.6076 23.6916 79.007 24.4839 79.007L32.9779 79.0253C33.7726 78.9233 34.5166 79.4558 34.6593 80.2445L37.9679 98.445H34.8977L34.188 94.5116H23.4669L22.7409 98.445H19.6648L22.9721 80.3741ZM31.9085 82.0108H25.7466L24.0147 91.5076H33.6402L31.9085 82.0108Z" fill="#41494B"/>
<path fill-rule="evenodd" clip-rule="evenodd" d="M59.4239 10.5479C56.901 8.59305 53.4153 7.78901 50.294 7.25525V22.966C53.9114 23.0844 56.7885 24.7444 59.4239 27.0277V10.5479ZM107.323 38.2075C105.986 38.2075 104.901 39.2608 104.901 40.5631C104.901 41.8656 105.985 42.9192 107.323 42.9192C108.66 42.9192 109.744 41.8653 109.744 40.5631C109.744 39.2615 108.659 38.2075 107.323 38.2075ZM99.0701 43.4085L99.7581 44.2495L98.7855 44.9985L101.01 47.8094L103.263 44.9648L102.308 44.2311L103 43.3917L103.947 44.1007L104.815 43.0042C104.311 42.5662 103.749 41.6349 103.775 40.5631C103.775 39.0326 104.813 37.6855 106.314 37.2533H95.7068C97.2083 37.6855 98.2461 39.0326 98.2461 40.5631C98.2461 41.5157 97.8486 42.3788 97.2068 43.0035L98.1011 44.134L99.0701 43.4085ZM108.331 37.2533C109.457 37.5773 110.351 38.4324 110.706 39.522V37.2533H108.331ZM110.706 41.604C110.24 43.0358 108.872 44.0145 107.323 44.0145C106.748 44.0145 106.204 43.881 105.724 43.6449L104.832 44.7721L105.79 45.502L105.133 46.3747L104.148 45.6361L101.719 48.7035L110.659 59.9955C110.677 60.0173 110.692 60.0404 110.706 60.0636V41.604ZM110.706 60.5951C110.671 60.6557 110.624 60.7107 110.565 60.7564L107.968 62.7663H110.706V60.5951ZM106.88 62.7663L105.773 61.44C105.578 61.2059 105.614 60.8621 105.854 60.6719L106.793 59.9237L106.269 59.2783L105.31 60.0109C105.065 60.1968 104.712 60.1561 104.521 59.919L103.349 58.5124C103.153 58.2784 103.19 57.9345 103.43 57.7447L105.969 55.8597L101.011 49.5982L96.0525 55.8597L98.5908 57.7447C98.8309 57.9345 98.868 58.2784 98.6719 58.5124L97.5164 59.8986C97.3224 60.1499 96.9686 60.2064 96.7115 60.0109L95.7525 59.2783L95.2278 59.9237L96.1669 60.6719C96.4073 60.8621 96.4435 61.2059 96.2479 61.44L95.1416 62.7663H106.88ZM94.053 62.7663L91.4556 60.7567C91.3868 60.7033 91.3345 60.6369 91.2989 60.5641V62.7663H94.053ZM91.2989 60.0949C91.3159 60.0605 91.3365 60.0271 91.3618 59.9955L100.303 48.7035L97.9002 45.6691L96.9165 46.4023L96.2629 45.5336L97.2156 44.8053L96.2968 43.6449C95.8169 43.881 95.2735 44.0145 94.6987 44.0145C93.1293 44.0145 91.746 43.0094 91.2989 41.5509V60.0949ZM91.2989 39.575C91.6405 38.4613 92.5455 37.5829 93.6907 37.2533H91.2989V39.575ZM109.434 60.2359L106.654 56.726L104.585 58.2615L105.05 58.8187L106.014 58.0835C106.257 57.8982 106.608 57.9383 106.8 58.174L108.008 59.6596C108.205 59.8921 108.17 60.2359 107.931 60.4275L106.996 61.1727L107.478 61.7497L109.434 60.2359ZM94.6987 38.7467C95.7281 38.7467 96.5661 39.5604 96.5661 40.5631C96.5661 41.5663 95.7284 42.3796 94.6987 42.3796C93.6681 42.3796 92.832 41.5666 92.832 40.5631C92.832 39.5611 93.6694 38.7467 94.6987 38.7467ZM94.6987 39.8421C94.2885 39.8421 93.9577 40.1634 93.9577 40.5631C93.9577 40.9621 94.2887 41.2844 94.6987 41.2844C95.1083 41.2844 95.4398 40.9621 95.4398 40.5631C95.4398 40.1648 95.1077 39.8421 94.6987 39.8421ZM94.6987 38.2075C93.362 38.2075 92.2769 39.2615 92.2769 40.5631C92.2769 41.8649 93.3613 42.9192 94.6987 42.9192C96.0362 42.9192 97.1202 41.8656 97.1202 40.5631C97.1202 39.2608 96.0355 38.2075 94.6987 38.2075ZM95.367 56.726L92.5874 60.2359L94.5439 61.7497L95.0256 61.1727L94.0904 60.4275C93.8512 60.2359 93.8165 59.8921 94.0135 59.6596L95.2208 58.174C95.4127 57.9383 95.7637 57.8982 96.0068 58.0835L96.9717 58.8187L97.4363 58.2615L95.367 56.726ZM107.323 39.8421C106.913 39.8421 106.582 40.1644 106.582 40.5631C106.582 40.9621 106.913 41.2844 107.323 41.2844C107.732 41.2844 108.064 40.9621 108.064 40.5631C108.064 40.2162 107.715 39.8421 107.323 39.8421ZM107.323 38.7467C108.351 38.7467 109.189 39.5611 109.189 40.5631C109.189 41.5663 108.353 42.3796 107.323 42.3796C106.292 42.3796 105.455 41.5663 105.455 40.5631C105.455 39.5602 106.293 38.7467 107.323 38.7467ZM71.9952 26.6302H89.0048V1.67562C89.0048 -0.147379 91.5881 -0.638446 92.3106 1.02301L95.3623 6.6055C95.6463 7.1249 95.9764 7.57757 95.9698 8.18664C95.955 9.52605 94.7413 9.41097 94.7413 10.6827C94.7413 11.5348 95.4501 12.2246 96.3255 12.2246C97.204 12.2246 97.9148 11.539 97.9148 10.6827C97.9148 9.41097 96.7011 9.52605 96.6862 8.18664C96.6808 7.65341 96.99 7.03881 97.1901 6.53787C97.9114 4.73243 98.6314 2.92785 99.3541 1.12049C99.9243 -0.315313 102.004 -0.282308 102.557 1.12875C103.252 2.89956 103.931 4.65822 104.633 6.4162C104.835 6.92997 105.191 7.64177 105.185 8.18664C105.171 9.52605 103.957 9.41097 103.957 10.6827C103.957 11.5348 104.666 12.2246 105.541 12.2246C106.419 12.2246 107.13 11.539 107.13 10.6827C107.13 9.41097 105.917 9.52605 105.902 8.18664C105.896 7.61215 106.15 6.98311 106.476 6.43309L109.8 0.831464C110.685 -0.637778 112.992 -0.00624967 112.994 1.67562L113 63.3251C113 64.25 112.23 65 111.279 65H90.7255C89.775 65 89.0048 64.25 89.0048 63.3251V38.37H71.9952V63.3251C71.9952 64.25 71.2249 65 70.2743 65H49.7208C48.7702 65 48 64.25 48 63.3251V1.67562C48 0.58698 49.0456 -0.202419 50.12 0.0459285C53.5202 0.607011 57.0939 1.39064 59.9975 3.28732C62.9359 1.36779 66.5525 0.591081 69.9922 0.0268982C71.0429 -0.143897 71.991 0.646741 71.9917 1.67562L71.9952 26.6302ZM80.6863 28.864L70.8482 32.8749V35.8605L87.9896 28.864H80.6863ZM70.8482 31.6662L77.7219 28.864H70.8482V31.6662ZM80.449 36.1364L90.1516 32.1759V29.1903L73.1337 36.1364H80.449ZM90.1516 33.3851L83.4109 36.1364H90.1516V33.3851ZM69.7007 33.0589H50.294V36.1364H69.7007V33.0589ZM50.294 31.9416H69.7007V28.864H50.294V31.9416ZM103.842 28.864L110.706 31.6622V28.864H103.842ZM110.706 32.8708L100.878 28.864H93.5741L110.706 35.8566V32.8708ZM98.1532 36.1364L91.2989 33.3387V36.1364H98.1532ZM91.2989 32.1298L101.115 36.1364H108.43L91.2989 29.1441V32.1298ZM59.9975 54.2581C55.0303 54.2581 50.6321 57.8414 50.3125 62.7663H69.6825C69.3626 57.8414 64.9644 54.2581 59.9975 54.2581ZM66.9961 55.5441L69.7007 49.8866V40.836L65.793 54.7156C66.2147 54.9661 66.6163 55.243 66.9961 55.5441ZM69.7007 52.5325L67.8839 56.3323C68.6087 57.0521 69.2225 57.8708 69.7007 58.7644V52.5325ZM50.294 49.8866L52.9989 55.5441C53.4569 55.1806 53.9476 54.8523 54.4666 54.5636L50.294 40.6051V49.8866ZM52.1109 56.3323L50.294 52.5325V58.7644C50.7722 57.8708 51.3864 57.0521 52.1109 56.3323ZM65.9202 37.2533L63.3197 53.628C63.8166 53.7783 64.2978 53.9609 64.761 54.1734L69.5249 37.2533H65.9202ZM62.2071 53.3528L64.7639 37.2533H60.5807L60.569 53.1549C61.1277 53.1825 61.6744 53.2491 62.2071 53.3528ZM55.699 37.2533L57.9389 53.3247C58.4241 53.2372 58.9204 53.1798 59.4264 53.1549L59.4379 37.2533H55.699ZM56.8207 53.5854L54.5447 37.2533H50.4826L55.5043 54.0535C55.9292 53.8718 56.3686 53.7154 56.8207 53.5854ZM91.2989 22.9724H110.706V3.72807L108.169 7.94082C108.942 8.65333 109.384 9.64434 109.384 10.6827C109.384 12.7673 107.647 14.4586 105.505 14.4586C103.364 14.4586 101.627 12.7673 101.627 10.6827C101.627 9.66232 102.046 8.6954 102.795 7.98355L100.948 3.27273L99.0594 8.00101C99.7945 8.70957 100.209 9.67381 100.209 10.6827C100.209 12.7673 98.4725 14.4586 96.3308 14.4586C94.1888 14.4586 92.452 12.7673 92.452 10.6827C92.452 9.68745 92.8552 8.73623 93.5722 8.02953L91.2989 3.89677V22.9724ZM110.706 24.0895H91.2989V25.363H110.706V24.0895ZM110.706 26.4799H91.2989V27.7474H110.706V26.4799ZM50.294 24.0794V27.7474H58.5327C56.1478 25.7075 53.5491 24.199 50.294 24.0794ZM61.5 27.7474H69.7007V24.1032C66.4586 24.342 63.9293 25.7385 61.5 27.7474ZM69.7007 22.9875V7.25525C66.5801 7.78901 63.0941 8.59305 60.5712 10.5479V27.0545C63.265 24.7895 66.0772 23.232 69.7007 22.9875ZM69.7007 6.12364V4.85076C66.5801 5.38466 63.0941 6.18922 60.5712 8.1439V9.16911C63.2307 7.40926 66.5731 6.65143 69.7007 6.12364ZM69.7007 3.71953V2.337C66.5797 2.87104 63.0941 3.67532 60.5712 5.62976V6.76543C63.2307 5.00501 66.5731 4.24694 69.7007 3.71953ZM50.294 6.12364C53.4223 6.65143 56.7638 7.40926 59.4239 9.16953V8.1439C56.901 6.18894 53.4153 5.38466 50.294 4.85076V6.12364ZM59.4239 6.76543V5.62976C56.901 3.67532 53.4157 2.87104 50.294 2.337V3.71953C53.4223 4.24694 56.7638 5.00501 59.4239 6.76543Z" fill="#41494B"/>
<path fill-rule="evenodd" clip-rule="evenodd" d="M50.9456 109.066H51.7842L49.6034 111.376L51.9637 113.852H51.0699L48.7648 111.428V113.852H48V109.066H48.7648V111.394L50.9456 109.066ZM57.3573 113.852H56.5832V109.686H55.0663C54.9828 110.722 54.8681 111.545 54.7201 112.153C54.5738 112.763 54.3818 113.207 54.1473 113.49C53.9113 113.772 53.6124 113.913 53.2503 113.913C53.0836 113.913 52.9514 113.895 52.8539 113.861V113.325C52.9215 113.341 52.9986 113.35 53.0836 113.35C53.4376 113.35 53.7193 112.997 53.927 112.289C54.1363 111.582 54.2952 110.507 54.4023 109.066H57.3573V113.852ZM58.8707 109.066H59.6904L60.7967 111.795C61.0406 112.418 61.19 112.868 61.2499 113.144H61.286C61.3253 112.997 61.4103 112.742 61.5378 112.382C61.6652 112.023 62.0823 110.917 62.7887 109.066H63.6101L61.4386 114.515C61.2231 115.055 60.9714 115.437 60.685 115.662C60.3969 115.888 60.0445 116 59.6259 116C59.3931 116 59.1618 115.976 58.9352 115.927V115.346C59.1036 115.38 59.2923 115.398 59.5016 115.398C60.0272 115.398 60.4017 115.119 60.6267 114.56L60.9084 113.879L58.8707 109.066ZM64.8591 110.983C64.8591 109.935 65.0212 109.118 65.3468 108.531C65.6725 107.945 66.1887 107.578 66.8969 107.432C67.7748 107.255 68.549 107.112 69.2194 107L69.3626 107.638C68.2956 107.806 67.534 107.941 67.0761 108.04C66.6309 108.136 66.2956 108.362 66.0738 108.722C65.8503 109.079 65.7276 109.567 65.7072 110.184H65.7623C65.9526 109.939 66.1982 109.747 66.5002 109.607C66.8009 109.468 67.1155 109.398 67.4444 109.398C68.0659 109.398 68.549 109.589 68.8967 109.971C69.2444 110.351 69.4176 110.88 69.4176 111.555C69.4176 112.303 69.2161 112.888 68.8133 113.308C68.4105 113.728 67.8502 113.94 67.1313 113.94C66.4215 113.94 65.8645 113.682 65.4618 113.166C65.0605 112.651 64.8591 111.923 64.8591 110.983ZM67.2004 113.332C68.1384 113.332 68.6056 112.766 68.6056 111.634C68.6056 110.554 68.1808 110.014 67.3295 110.014C67.0967 110.014 66.8699 110.06 66.6544 110.151C66.4373 110.243 66.239 110.364 66.0597 110.516C65.8803 110.667 65.7402 110.823 65.6427 110.983C65.6427 111.749 65.7702 112.332 66.0251 112.733C66.28 113.132 66.6718 113.332 67.2004 113.332ZM72.2071 109.066V111.071H75.0377V109.066H75.8025V113.852H75.0377V111.695H72.2071V113.852H71.4423V109.066H72.2071ZM78.8831 111.044H80.2615C80.9034 111.044 81.3786 111.157 81.6886 111.382C81.997 111.609 82.1513 111.946 82.1513 112.393C82.1513 112.874 81.9876 113.237 81.6603 113.483C81.3331 113.728 80.8515 113.852 80.2158 113.852H78.1183V109.066H78.8831V111.044ZM83.7642 113.852H82.9994V109.066H83.7642V113.852ZM78.8831 111.668V113.245H80.178C80.99 113.245 81.3959 112.976 81.3959 112.438C81.3959 112.169 81.3016 111.974 81.1143 111.852C80.9271 111.73 80.6076 111.668 80.1561 111.668H78.8831ZM86.7991 109.066V112.101L86.7659 112.895L86.7518 113.144L89.4866 109.066H90.4401V113.852H89.7258V110.926L89.7398 110.349L89.762 109.783L87.0335 113.852H86.0798V109.066H86.7991ZM88.242 108.432C87.6723 108.432 87.2584 108.328 86.9972 108.121C86.736 107.912 86.5898 107.569 86.5582 107.092H87.2774C87.3056 107.395 87.389 107.607 87.5291 107.726C87.6692 107.845 87.913 107.905 88.2593 107.905C88.577 107.905 88.8099 107.841 88.9626 107.713C89.1152 107.584 89.2081 107.377 89.2411 107.092H89.9649C89.9288 107.552 89.7729 107.89 89.4992 108.108C89.2269 108.325 88.8068 108.432 88.242 108.432ZM99.5975 115.507H98.8549V113.852H95.3239V115.507H94.5859V113.228H94.9825C95.3947 112.698 95.7172 112.077 95.9502 111.363C96.1846 110.65 96.3057 109.884 96.3152 109.066H98.8738V113.228H99.5975V115.507ZM98.1357 113.228V109.638H97.0013C96.9619 110.284 96.8297 110.938 96.6079 111.601C96.3844 112.263 96.1074 112.806 95.7755 113.228H98.1357ZM105.66 111.455C105.66 112.235 105.452 112.845 105.038 113.283C104.623 113.721 104.05 113.94 103.318 113.94C102.867 113.94 102.466 113.839 102.115 113.638C101.765 113.438 101.495 113.149 101.305 112.773C101.112 112.397 101.018 111.958 101.018 111.455C101.018 110.674 101.224 110.066 101.635 109.631C102.047 109.196 102.618 108.978 103.35 108.978C104.058 108.978 104.618 109.202 105.035 109.647C105.452 110.093 105.66 110.695 105.66 111.455ZM101.811 111.455C101.811 112.066 101.94 112.532 102.198 112.852C102.456 113.173 102.835 113.332 103.337 113.332C103.838 113.332 104.219 113.173 104.478 112.855C104.738 112.536 104.867 112.069 104.867 111.455C104.867 110.846 104.738 110.384 104.478 110.068C104.219 109.753 103.835 109.595 103.328 109.595C102.826 109.595 102.448 109.75 102.193 110.062C101.939 110.373 101.811 110.838 101.811 111.455ZM110.317 113.153L110.459 112.748L110.657 112.232L112.028 109.075H113V113.852H112.322V109.901L112.229 110.154L111.963 110.822L110.657 113.852H110.017L108.712 110.813C108.55 110.422 108.437 110.118 108.375 109.901V113.852H107.694V109.075H108.629L109.952 112.11C110.084 112.43 110.205 112.777 110.317 113.153Z" fill="#41494B"/>
</svg>
