<svg width="352" height="65" viewBox="0 0 352 65" fill="none" xmlns="http://www.w3.org/2000/svg">
<path fill-rule="evenodd" clip-rule="evenodd" d="M50.5514 6H58V58H50.6381L26 31.9543L50.5514 6Z" fill="#00A0E3"/>
<path fill-rule="evenodd" clip-rule="evenodd" d="M6.53826 6.53831H26.0131L6.53826 27.0464V6.53831ZM0 0H65V65H0V0ZM3.19996 3.19963H61.7999V61.8004H3.19996V3.19963ZM26.1002 58.4615H6.53826V37.8619L26.1002 58.4615Z" fill="#2B2A29"/>
<path fill-rule="evenodd" clip-rule="evenodd" d="M84 39V15H101V39H94.8604V20.1456H90.1396V39H84Z" fill="#2B2A29"/>
<path fill-rule="evenodd" clip-rule="evenodd" d="M107.145 39H102L108.639 15H115.477L122 39H115.645L111.434 21.9265L107.145 39Z" fill="#2B2A29"/>
<path fill-rule="evenodd" clip-rule="evenodd" d="M135.397 39L134.232 34.2866H128.493L127.249 39H122L128.525 15H135.365L142 39H135.397ZM129.668 29.0332H133.041L131.349 22.0822L129.668 29.0332Z" fill="#2B2A29"/>
<path fill-rule="evenodd" clip-rule="evenodd" d="M154.226 29.3932L160 29.7993C159.727 32.7651 158.796 35.0395 157.206 36.6225C155.616 38.2055 153.66 39 151.34 39C148.546 39 146.292 37.9084 144.578 35.731C142.86 33.5536 142 30.5393 142 26.7062C142 22.9033 142.813 19.8343 144.439 17.4994C146.065 15.1643 148.334 14 151.247 14C153.969 14 156.063 14.8854 157.525 16.6564C158.981 18.4272 159.81 20.7805 160 23.7038L154.103 24.0801C154.103 22.4607 153.841 21.2961 153.316 20.5743C152.791 19.8525 152.168 19.4949 151.458 19.4949C149.477 19.4949 148.484 21.8542 148.484 26.5788C148.484 29.2234 148.741 31.0246 149.256 31.9706C149.775 32.9227 150.501 33.3959 151.432 33.3959C153.095 33.3959 154.026 32.0615 154.226 29.3932Z" fill="#2B2A29"/>
<path fill-rule="evenodd" clip-rule="evenodd" d="M171.596 20.7573V39H165.405V20.7573H161V15H176V20.7573H171.596Z" fill="#2B2A29"/>
<path fill-rule="evenodd" clip-rule="evenodd" d="M184.221 36.2767V38.8591H178V14.3669H184.221V24.1712C184.221 25.4749 184.158 27.0233 184.034 28.8285C184.794 26.8699 185.554 25.1381 186.305 23.6203L189.598 16.986V14.3669H195.819V38.8591H189.598V29.1404C189.598 27.7389 189.65 26.1966 189.754 24.5015C189.144 26.1477 188.389 27.88 187.487 29.6913L184.221 36.2767Z" fill="#00A0E3"/>
<path fill-rule="evenodd" clip-rule="evenodd" d="M217.108 14.3669V38.8591H210.7V29.3488H205.854V38.8591H199.446V14.3669H205.854V23.4001H210.7V14.3669H217.108Z" fill="#00A0E3"/>
<path fill-rule="evenodd" clip-rule="evenodd" d="M220.553 33.4246L225.269 14.3669H232.954L237.529 33.4246H239.81V44H235.809L235.278 38.8591H222.835L222.304 44H218.271V33.4246H220.553ZM225.544 33.4246H231.338L228.79 19.9848H228.484L225.544 33.4246Z" fill="#00A0E3"/>
<path fill-rule="evenodd" clip-rule="evenodd" d="M246.198 31.2886L238.279 14.3669H245.37L249.033 23.7793L252.045 14.3669H257.692L251.555 32.2187C251.008 33.8343 250.377 35.1258 249.669 36.0865C248.96 37.0478 248.184 37.7515 247.339 38.198C246.495 38.6388 245.423 38.8591 244.13 38.8591H240.905V33.4246H243.046C244.833 33.4246 245.886 32.7146 246.198 31.2886Z" fill="#00A0E3"/>
<path fill-rule="evenodd" clip-rule="evenodd" d="M269.473 29.5324L275.319 29.9421C275.043 32.9348 274.1 35.2297 272.49 36.827C270.88 38.4244 268.9 39.2261 266.55 39.2261C263.721 39.2261 261.439 38.1246 259.704 35.9275C257.964 33.7304 257.094 30.6888 257.094 26.8211C257.094 22.9839 257.917 19.8871 259.563 17.531C261.21 15.1748 263.508 14 266.457 14C269.213 14 271.333 14.8934 272.813 16.6804C274.287 18.4672 275.126 20.8418 275.319 23.7915L269.348 24.1712C269.348 22.5372 269.083 21.3621 268.551 20.6337C268.02 19.9054 267.389 19.5445 266.67 19.5445C264.664 19.5445 263.658 21.9252 263.658 26.6925C263.658 29.361 263.919 31.1786 264.44 32.1331C264.966 33.0938 265.701 33.5713 266.644 33.5713C268.327 33.5713 269.27 32.2248 269.473 29.5324Z" fill="#00A0E3"/>
<path fill-rule="evenodd" clip-rule="evenodd" d="M286.595 20.2423V38.8591H280.53V20.2423H276.216V14.3669H290.909V20.2423H286.595Z" fill="#00A0E3"/>
<path fill-rule="evenodd" clip-rule="evenodd" d="M299.23 29.9727V38.8591H292.727V14.3669H301.626C303.846 14.3669 305.534 14.6667 306.691 15.2665C307.842 15.8664 308.759 16.7782 309.436 18.0146C310.114 19.2444 310.453 20.6276 310.453 22.1577C310.453 24.4954 309.759 26.3805 308.379 27.8189C306.998 29.2565 305.154 29.9727 302.845 29.9727H299.23ZM299.136 24.7221H301.261C303.137 24.7221 304.075 23.8956 304.075 22.2433C304.075 20.6887 303.21 19.9115 301.475 19.9115H299.136V24.7221Z" fill="#00A0E3"/>
<path fill-rule="evenodd" clip-rule="evenodd" d="M319.05 36.2767V38.8591H312.829V14.3669H319.05V24.1712C319.05 25.4749 318.987 27.0233 318.862 28.8285C319.623 26.8699 320.384 25.1381 321.134 23.6203L324.427 16.986V14.3669H330.648V38.8591H324.427V29.1404C324.427 27.7389 324.479 26.1966 324.583 24.5015C323.974 26.1477 323.218 27.88 322.316 29.6913L319.05 36.2767Z" fill="#00A0E3"/>
<path fill-rule="evenodd" clip-rule="evenodd" d="M345.591 29.4957H342.622L339.323 38.8591H333.274L337.869 28.5656C334.994 27.2741 333.556 25.034 333.556 21.8518C333.556 19.3978 334.233 17.5371 335.583 16.2701C336.937 15.0036 338.782 14.3669 341.12 14.3669H352V38.8591H345.591V29.4957ZM345.591 19.5812H343.085C341.85 19.5812 341.063 19.8259 340.725 20.3096C340.386 20.7988 340.215 21.3315 340.215 21.9191C340.215 22.7636 340.464 23.3634 340.959 23.7303C341.455 24.0978 342.236 24.2814 343.299 24.2814H345.591V19.5812Z" fill="#00A0E3"/>
<path fill-rule="evenodd" clip-rule="evenodd" d="M85 50.417H90.2669V57.1328H89.4245V51.1105H85.8419V57.1328H85V50.417ZM100.663 54.0171H95.8239C95.8239 54.7238 96.0381 55.3219 96.4658 55.8107C96.9293 56.3427 97.54 56.6091 98.2973 56.6091C98.8498 56.6091 99.4649 56.4433 100.142 56.1114V56.8709C99.5092 57.1328 98.8764 57.2637 98.2436 57.2637C97.2901 57.2637 96.5236 56.9885 95.9447 56.4387C95.276 55.8107 94.9418 54.8853 94.9418 53.6636C94.9418 52.6773 95.2067 51.8719 95.7371 51.2484C96.2672 50.6241 96.9962 50.3121 97.923 50.3121C99.0725 50.3121 99.8616 50.766 100.289 51.6736C100.539 52.1973 100.663 52.8914 100.663 53.7553V54.0171ZM95.8239 53.3231H99.7811C99.7811 52.7471 99.6786 52.2671 99.4736 51.8832C99.1619 51.2985 98.6446 51.0061 97.923 51.0061C97.2455 51.0061 96.711 51.268 96.3185 51.7912C95.9888 52.2367 95.8239 52.7471 95.8239 53.3231ZM106.234 60H105.391V51.713L105.338 50.417H106.14V51.8045C106.327 51.3946 106.541 51.0799 106.782 50.862C107.183 50.4953 107.691 50.3121 108.306 50.3121C109.286 50.3121 110.035 50.6483 110.552 51.3203C111.024 51.931 111.26 52.7471 111.26 53.7685C111.26 54.9814 110.939 55.889 110.298 56.4914C109.772 56.9885 109.108 57.2377 108.306 57.2377C107.842 57.2377 107.423 57.1068 107.049 56.8449C106.719 56.6179 106.452 56.3123 106.247 55.9284L106.234 56.5697V60ZM106.234 53.7685C106.234 54.6761 106.456 55.383 106.902 55.889C107.285 56.3255 107.753 56.5436 108.306 56.5436C108.858 56.5436 109.326 56.33 109.709 55.9022C110.155 55.3957 110.378 54.6844 110.378 53.7685C110.378 52.8692 110.155 52.1668 109.709 51.6602C109.326 51.2242 108.858 51.0061 108.306 51.0061C107.771 51.0061 107.307 51.2242 106.915 51.6602C106.461 52.1668 106.234 52.8692 106.234 53.7685ZM121.188 54.0171H116.349C116.349 54.7238 116.563 55.3219 116.991 55.8107C117.454 56.3427 118.065 56.6091 118.822 56.6091C119.375 56.6091 119.99 56.4433 120.667 56.1114V56.8709C120.034 57.1328 119.402 57.2637 118.769 57.2637C117.815 57.2637 117.049 56.9885 116.47 56.4387C115.801 55.8107 115.467 54.8853 115.467 53.6636C115.467 52.6773 115.732 51.8719 116.262 51.2484C116.792 50.6241 117.521 50.3121 118.448 50.3121C119.597 50.3121 120.387 50.766 120.814 51.6736C121.064 52.1973 121.188 52.8914 121.188 53.7553V54.0171ZM116.349 53.3231H120.306C120.306 52.7471 120.204 52.2671 119.999 51.8832C119.687 51.2985 119.17 51.0061 118.448 51.0061C117.77 51.0061 117.236 51.268 116.844 51.7912C116.514 52.2367 116.349 52.7471 116.349 53.3231ZM126.759 60H125.916V51.713L125.863 50.417H126.665V51.8045C126.852 51.3946 127.066 51.0799 127.307 50.862C127.708 50.4953 128.216 50.3121 128.831 50.3121C129.811 50.3121 130.56 50.6483 131.077 51.3203C131.549 51.931 131.785 52.7471 131.785 53.7685C131.785 54.9814 131.464 55.889 130.822 56.4914C130.297 56.9885 129.633 57.2377 128.831 57.2377C128.367 57.2377 127.949 57.1068 127.574 56.8449C127.244 56.6179 126.977 56.3123 126.772 55.9284L126.759 56.5697V60ZM126.759 53.7685C126.759 54.6761 126.982 55.383 127.427 55.889C127.81 56.3255 128.278 56.5436 128.831 56.5436C129.384 56.5436 129.852 56.33 130.235 55.9022C130.68 55.3957 130.903 54.6844 130.903 53.7685C130.903 52.8692 130.68 52.1668 130.235 51.6602C129.852 51.2242 129.384 51.0061 128.831 51.0061C128.296 51.0061 127.832 51.2242 127.44 51.6602C126.986 52.1668 126.759 52.8692 126.759 53.7685ZM136.807 51.5166V50.7311C137.084 50.609 137.398 50.5085 137.75 50.4298C138.102 50.3515 138.47 50.3121 138.853 50.3121C139.869 50.3121 140.564 50.6305 140.938 51.268C141.161 51.6431 141.272 52.1579 141.272 52.8125V55.6666L141.312 57.1328H140.564V55.9939C140.287 56.4736 139.913 56.8143 139.441 57.0151C139.093 57.1634 138.715 57.2377 138.305 57.2377C137.565 57.2377 136.995 57.0368 136.594 56.6351C136.237 56.2861 136.059 55.8541 136.059 55.3392C136.059 54.6235 136.317 54.0781 136.834 53.703C137.449 53.2576 138.501 53.0352 139.989 53.0352H140.43V52.7993C140.43 52.3022 140.354 51.9221 140.203 51.6602C139.953 51.2242 139.503 51.0061 138.853 51.0061C138.113 51.0061 137.431 51.176 136.807 51.5166ZM140.43 53.729H139.668C138.848 53.729 138.216 53.8296 137.77 54.0303C137.217 54.2833 136.941 54.7021 136.941 55.287C136.941 55.662 137.075 55.9652 137.342 56.1965C137.609 56.428 137.926 56.5436 138.291 56.5436C138.987 56.5436 139.517 56.33 139.882 55.9022C140.248 55.4745 140.43 54.9114 140.43 54.2135V53.729ZM152.137 47V47.7722C151.602 47.851 151.198 47.9076 150.926 47.9425C150.655 47.9776 150.367 47.9948 150.064 47.9948C149.102 47.9948 148.38 48.2132 147.899 48.6494C147.222 49.2603 146.883 50.3209 146.883 51.8306V52.1451C147.105 51.5687 147.451 51.1193 147.919 50.7965C148.387 50.4736 148.906 50.3121 149.476 50.3121C150.358 50.3121 151.094 50.5739 151.682 51.0976C152.377 51.7174 152.725 52.6295 152.725 53.8339C152.725 54.9076 152.4 55.7535 151.749 56.3733C151.142 56.9496 150.381 57.2377 149.463 57.2377C148.545 57.2377 147.819 56.967 147.284 56.4259C146.838 55.9722 146.522 55.3264 146.334 54.488C146.192 53.8423 146.121 53.0701 146.121 52.1713C146.121 50.8181 146.33 49.7578 146.749 48.99C147.096 48.3527 147.6 47.8988 148.26 47.6286C148.705 47.4449 149.32 47.3185 150.105 47.2485C150.532 47.2485 150.92 47.2224 151.268 47.1703C151.624 47.0915 151.914 47.0349 152.137 47ZM147.137 53.8339C147.137 54.7327 147.391 55.4267 147.899 55.915C148.335 56.3344 148.866 56.5436 149.489 56.5436C150.122 56.5436 150.653 56.3384 151.08 55.9284C151.588 55.4396 151.842 54.7416 151.842 53.8339C151.842 52.8914 151.588 52.1668 151.08 51.6602C150.644 51.2242 150.113 51.0061 149.489 51.0061C148.866 51.0061 148.34 51.2197 147.912 51.6476C147.395 52.1624 147.137 52.8914 147.137 53.8339ZM156.999 53.7813C156.999 52.7865 157.266 51.9704 157.801 51.3334C158.371 50.6522 159.16 50.3121 160.167 50.3121C161.165 50.3121 161.953 50.6522 162.533 51.3334C163.068 51.9704 163.335 52.7865 163.335 53.7813C163.335 54.7766 163.068 55.5882 162.533 56.2163C161.953 56.897 161.165 57.2377 160.167 57.2377C159.168 57.2377 158.38 56.897 157.801 56.2163C157.266 55.5882 156.999 54.7766 156.999 53.7813ZM157.881 53.7813C157.881 54.4708 158.045 55.0689 158.375 55.5749C158.794 56.2206 159.392 56.5436 160.167 56.5436C160.933 56.5436 161.526 56.2252 161.945 55.5882C162.284 55.0729 162.452 54.4708 162.452 53.7813C162.452 53.0918 162.288 52.4897 161.958 51.9749C161.539 51.3291 160.942 51.0061 160.167 51.0061C159.392 51.0061 158.799 51.3246 158.389 51.9615C158.05 52.4852 157.881 53.0918 157.881 53.7813ZM167.141 50.417H172.261V51.1105H170.122V57.1328H169.28V51.1105H167.141V50.417ZM176.535 50.417H177.377V53.3668L180.557 50.4145L181.639 50.417L178.273 53.5455L182.003 57.1328L180.817 57.1283L177.417 53.8054L177.377 57.1328H176.535V50.417ZM186.49 51.5166V50.7311C186.766 50.609 187.08 50.5085 187.432 50.4298C187.785 50.3515 188.152 50.3121 188.536 50.3121C189.551 50.3121 190.247 50.6305 190.621 51.268C190.844 51.6431 190.955 52.1579 190.955 52.8125V55.6666L190.995 57.1328H190.247V55.9939C189.97 56.4736 189.596 56.8143 189.124 57.0151C188.776 57.1634 188.397 57.2377 187.987 57.2377C187.247 57.2377 186.677 57.0368 186.276 56.6351C185.919 56.2861 185.742 55.8541 185.742 55.3392C185.742 54.6235 186 54.0781 186.517 53.703C187.132 53.2576 188.183 53.0352 189.672 53.0352H190.113V52.7993C190.113 52.3022 190.037 51.9221 189.886 51.6602C189.636 51.2242 189.186 51.0061 188.536 51.0061C187.796 51.0061 187.114 51.176 186.49 51.5166ZM190.113 53.729H189.351C188.531 53.729 187.898 53.8296 187.452 54.0303C186.9 54.2833 186.624 54.7021 186.624 55.287C186.624 55.662 186.757 55.9652 187.025 56.1965C187.292 56.428 187.609 56.5436 187.974 56.5436C188.669 56.5436 189.2 56.33 189.565 55.9022C189.93 55.4745 190.113 54.9114 190.113 54.2135V53.729ZM199.667 50.417H202.381C203.103 50.417 203.651 50.6045 204.025 50.9796C204.346 51.294 204.506 51.6997 204.506 52.1973C204.506 52.8171 204.19 53.2753 203.557 53.5721C203.967 53.6764 204.284 53.8841 204.506 54.1937C204.729 54.5033 204.841 54.8593 204.841 55.2609C204.841 55.7846 204.671 56.2118 204.333 56.5436C203.922 56.9364 203.321 57.1328 202.528 57.1328H199.667V50.417ZM200.509 51.1105V53.297H202.327C202.764 53.297 203.096 53.1965 203.323 52.9957C203.55 52.7954 203.664 52.5507 203.664 52.2628C203.664 51.9398 203.57 51.678 203.384 51.4772C203.152 51.2331 202.799 51.1105 202.327 51.1105H200.509ZM200.509 53.9909V56.4387H202.461C202.942 56.4387 203.312 56.33 203.57 56.1114C203.829 55.8933 203.958 55.6099 203.958 55.2609C203.958 54.8765 203.82 54.5688 203.544 54.338C203.267 54.1067 202.862 53.9909 202.327 53.9909H200.509ZM208.646 50.417H213.767V51.1105H211.628V57.1328H210.785V51.1105H208.646V50.417ZM217.305 53.7813C217.305 52.7865 217.573 51.9704 218.107 51.3334C218.677 50.6522 219.466 50.3121 220.473 50.3121C221.471 50.3121 222.26 50.6522 222.839 51.3334C223.374 51.9704 223.642 52.7865 223.642 53.7813C223.642 54.7766 223.374 55.5882 222.839 56.2163C222.26 56.897 221.471 57.2377 220.473 57.2377C219.475 57.2377 218.686 56.897 218.107 56.2163C217.573 55.5882 217.305 54.7766 217.305 53.7813ZM218.187 53.7813C218.187 54.4708 218.352 55.0689 218.682 55.5749C219.101 56.2206 219.698 56.5436 220.473 56.5436C221.24 56.5436 221.832 56.2252 222.251 55.5882C222.59 55.0729 222.759 54.4708 222.759 53.7813C222.759 53.0918 222.594 52.4897 222.264 51.9749C221.846 51.3291 221.249 51.0061 220.473 51.0061C219.698 51.0061 219.106 51.3246 218.695 51.9615C218.357 52.4852 218.187 53.0918 218.187 53.7813ZM229.012 60H228.169V51.713L228.116 50.417H228.918V51.8045C229.105 51.3946 229.319 51.0799 229.559 50.862C229.961 50.4953 230.469 50.3121 231.084 50.3121C232.064 50.3121 232.812 50.6483 233.33 51.3203C233.802 51.931 234.038 52.7471 234.038 53.7685C234.038 54.9814 233.717 55.889 233.075 56.4914C232.55 56.9885 231.886 57.2377 231.084 57.2377C230.62 57.2377 230.201 57.1068 229.827 56.8449C229.497 56.6179 229.23 56.3123 229.025 55.9284L229.012 56.5697V60ZM229.012 53.7685C229.012 54.6761 229.234 55.383 229.68 55.889C230.063 56.3255 230.531 56.5436 231.083 56.5436C231.636 56.5436 232.104 56.33 232.487 55.9022C232.933 55.3957 233.156 54.6844 233.156 53.7685C233.156 52.8692 232.933 52.1668 232.487 51.6602C232.104 51.2242 231.636 51.0061 231.083 51.0061C230.549 51.0061 230.085 51.2242 229.693 51.6602C229.239 52.1668 229.012 52.8692 229.012 53.7685ZM238.512 50.417H239.341V55.3392V56.046L239.842 55.3302L243.381 50.4189L244.314 50.417V57.1328H243.485V52.2105V51.5033L242.993 52.2126L239.448 57.1328H238.512V50.417ZM249.831 50.417V52.4243C249.831 52.7559 249.902 53.007 250.045 53.1812C250.303 53.5023 250.807 53.6636 251.556 53.6636C251.974 53.6636 252.54 53.5981 253.253 53.4672V50.417H254.095V57.1328H253.253V54.1607C252.888 54.2224 252.56 54.268 252.271 54.2986C251.981 54.3291 251.689 54.3444 251.395 54.3444C250.468 54.3444 249.813 54.1569 249.43 53.7837C249.136 53.4953 248.989 53.0878 248.989 52.5571V50.417H249.831ZM259.305 50.417H260.147V53.297H263.864V50.417H264.706V57.1328H263.864V53.9909H260.147V57.1328H259.305V50.417ZM269.448 53.7813C269.448 52.7865 269.715 51.9704 270.25 51.3334C270.82 50.6522 271.609 50.3121 272.616 50.3121C273.614 50.3121 274.402 50.6522 274.982 51.3334C275.517 51.9704 275.784 52.7865 275.784 53.7813C275.784 54.7766 275.517 55.5882 274.982 56.2163C274.402 56.897 273.614 57.2377 272.616 57.2377C271.617 57.2377 270.829 56.897 270.25 56.2163C269.715 55.5882 269.448 54.7766 269.448 53.7813ZM270.33 53.7813C270.33 54.4708 270.494 55.0689 270.824 55.5749C271.243 56.2206 271.841 56.5436 272.616 56.5436C273.382 56.5436 273.975 56.2252 274.394 55.5882C274.733 55.0729 274.902 54.4708 274.902 53.7813C274.902 53.0918 274.737 52.4897 274.407 51.9749C273.988 51.3291 273.391 51.0061 272.616 51.0061C271.841 51.0061 271.248 51.3246 270.838 51.9615C270.499 52.4852 270.33 53.0918 270.33 53.7813ZM280.258 50.417H284.456V51.1105H281.1V57.1328H280.258V50.417ZM287.607 53.7813C287.607 52.7865 287.874 51.9704 288.409 51.3334C288.979 50.6522 289.768 50.3121 290.775 50.3121C291.773 50.3121 292.562 50.6522 293.141 51.3334C293.676 51.9704 293.943 52.7865 293.943 53.7813C293.943 54.7766 293.676 55.5882 293.141 56.2163C292.562 56.897 291.773 57.2377 290.775 57.2377C289.777 57.2377 288.988 56.897 288.409 56.2163C287.874 55.5882 287.607 54.7766 287.607 53.7813ZM288.489 53.7813C288.489 54.4708 288.654 55.0689 288.984 55.5749C289.403 56.2206 290 56.5436 290.775 56.5436C291.541 56.5436 292.134 56.2252 292.553 55.5882C292.892 55.0729 293.061 54.4708 293.061 53.7813C293.061 53.0918 292.896 52.4897 292.566 51.9749C292.148 51.3291 291.55 51.0061 290.775 51.0061C290 51.0061 289.407 51.3246 288.997 51.9615C288.658 52.4852 288.489 53.0918 288.489 53.7813ZM306.773 50.5739L306.733 51.3069C306.466 51.1937 306.198 51.1129 305.931 51.0646C305.663 51.0169 305.401 50.9929 305.142 50.9929C304.313 50.9929 303.667 51.268 303.204 51.8177C302.776 52.3326 302.562 52.9874 302.562 53.7813C302.562 54.7327 302.847 55.4528 303.417 55.9416C303.899 56.3516 304.505 56.5568 305.236 56.5568C305.503 56.5568 305.743 56.5391 305.958 56.5042C306.171 56.4693 306.435 56.391 306.746 56.2689L306.827 56.9758C306.586 57.0628 306.332 57.1283 306.065 57.1722C305.797 57.2155 305.521 57.2377 305.236 57.2377C304.086 57.2377 303.19 56.8926 302.549 56.2035C301.969 55.5749 301.68 54.7676 301.68 53.7813C301.68 52.7688 301.991 51.9374 302.616 51.2873C303.239 50.637 304.077 50.3121 305.129 50.3121C305.708 50.3121 306.256 50.3992 306.773 50.5739ZM311.368 50.417H312.21V53.0612H313.988C314.736 53.0612 315.324 53.2182 315.753 53.5326C316.225 53.8817 316.461 54.401 316.461 55.0906C316.461 55.7975 316.229 56.3212 315.766 56.6617C315.338 56.9758 314.745 57.1328 313.988 57.1328H311.368V50.417ZM312.21 53.7553V56.4387H313.921C314.358 56.4387 314.701 56.3733 314.95 56.2424C315.369 56.0243 315.579 55.6403 315.579 55.0906C315.579 54.558 315.374 54.1829 314.964 53.9648C314.696 53.8251 314.349 53.7553 313.921 53.7553H312.21ZM317.731 50.417H318.573V57.1328H317.731V50.417ZM324.678 60H323.836V51.713L323.783 50.417H324.585V51.8045C324.772 51.3946 324.985 51.0799 325.226 50.862C325.627 50.4953 326.135 50.3121 326.75 50.3121C327.731 50.3121 328.479 50.6483 328.996 51.3203C329.468 51.931 329.704 52.7471 329.704 53.7685C329.704 54.9814 329.384 55.889 328.742 56.4914C328.216 56.9885 327.552 57.2377 326.75 57.2377C326.287 57.2377 325.868 57.1068 325.494 56.8449C325.164 56.6179 324.896 56.3123 324.691 55.9284L324.678 56.5697V60ZM324.678 53.7685C324.678 54.6761 324.901 55.383 325.347 55.889C325.73 56.3255 326.198 56.5436 326.75 56.5436C327.303 56.5436 327.771 56.33 328.154 55.9022C328.6 55.3957 328.822 54.6844 328.822 53.7685C328.822 52.8692 328.6 52.1668 328.154 51.6602C327.771 51.2242 327.303 51.0061 326.75 51.0061C326.215 51.0061 325.752 51.2242 325.36 51.6602C324.905 52.1668 324.678 52.8692 324.678 53.7685ZM334.713 50.417H335.555V53.0612H337.334C338.082 53.0612 338.67 53.2182 339.098 53.5326C339.57 53.8817 339.807 54.401 339.807 55.0906C339.807 55.7975 339.575 56.3212 339.112 56.6617C338.684 56.9758 338.091 57.1328 337.334 57.1328H334.713V50.417ZM335.555 53.7553V56.4387H337.267C337.704 56.4387 338.046 56.3733 338.296 56.2424C338.715 56.0243 338.924 55.6403 338.924 55.0906C338.924 54.558 338.72 54.1829 338.309 53.9648C338.042 53.8251 337.695 53.7553 337.267 53.7553H335.555ZM349 50.417V57.1328H348.158V54.3444H346.486L345.029 57.1328H344.014L345.618 54.1873C345.27 54.0998 344.976 53.9383 344.735 53.703C344.388 53.3625 344.214 52.9219 344.214 52.3803C344.214 51.8832 344.374 51.4512 344.695 51.0844C345.087 50.6394 345.635 50.417 346.34 50.417H349ZM348.158 51.1105H346.527C346.027 51.1105 345.653 51.2548 345.404 51.5408C345.199 51.774 345.096 52.053 345.096 52.3741C345.096 52.7033 345.194 52.9829 345.39 53.2074C345.649 53.5023 346.027 53.6504 346.527 53.6504H348.158V51.1105Z" fill="#2B2A29"/>
</svg>
