<svg width="50" height="50" viewBox="0 0 50 50" xmlns="http://www.w3.org/2000/svg"><g fill="none" fill-rule="evenodd"><polygon points="0 0 50 0 50 50 0 50"/><path d="M43.75,25 L43.75,25 C43.75,35.35625 35.35625,43.75 25,43.75 L25,43.75 C14.64375,43.75 6.25,35.35625 6.25,25 L6.25,25 C6.25,14.64375 14.64375,6.25 25,6.25 L25,6.25 C35.35625,6.25 43.75,14.64375 43.75,25 Z" stroke="#FFF" stroke-width="2.5" stroke-linecap="round" stroke-linejoin="round"/><path d="M22.79375,18.8708333 L30.88125,23.6541667 C31.9041667,24.2583333 31.9041667,25.7395833 30.88125,26.34375 L22.79375,31.1270833 C21.7520833,31.74375 20.4354167,30.9916667 20.4354167,29.78125 L20.4354167,20.2166667 C20.4354167,19.00625 21.7520833,18.2541667 22.79375,18.8708333 L22.79375,18.8708333 Z" fill="#FFF"/></g></svg>